<svg xmlns="http://www.w3.org/2000/svg" xmlns:xlink="http://www.w3.org/1999/xlink" width="1920" zoomAndPan="magnify" viewBox="0 0 1440 809.999993" height="1080" preserveAspectRatio="xMidYMid meet" version="1.0"><defs><filter x="0%" y="0%" width="100%" height="100%" id="560449b290"><feColorMatrix values="0 0 0 0 1 0 0 0 0 1 0 0 0 0 1 0 0 0 1 0" color-interpolation-filters="sRGB"/></filter><mask id="41247c16a0"><g filter="url(#560449b290)"><rect x="-144" width="1728" fill="#000000" y="-80.999999" height="971.999992" fill-opacity="0.4"/></g></mask><clipPath id="3a009f9795"><path d="M 0.519531 0.199219 L 17 0.199219 L 17 78.441406 L 0.519531 78.441406 Z M 0.519531 0.199219 " clip-rule="nonzero"/></clipPath><clipPath id="7655730a9c"><rect x="0" width="18" y="0" height="79"/></clipPath><mask id="d87b6036a2"><g filter="url(#560449b290)"><rect x="-144" width="1728" fill="#000000" y="-80.999999" height="971.999992" fill-opacity="0.4"/></g></mask><clipPath id="9d1b1d9044"><path d="M 0.519531 1 L 17 1 L 17 29 L 0.519531 29 Z M 0.519531 1 " clip-rule="nonzero"/></clipPath><clipPath id="26fee6f52a"><rect x="0" width="18" y="0" height="31"/></clipPath><clipPath id="5182b615c9"><path d="M 479 56.273438 L 914 56.273438 L 914 409 L 479 409 Z M 479 56.273438 " clip-rule="nonzero"/></clipPath><mask id="8563e02879"><g filter="url(#560449b290)"><rect x="-144" width="1728" fill="#000000" y="-80.999999" height="971.999992" fill-opacity="0.4"/></g></mask><clipPath id="983309545d"><rect x="0" width="46" y="0" height="35"/></clipPath><mask id="095da789c4"><g filter="url(#560449b290)"><rect x="-144" width="1728" fill="#000000" y="-80.999999" height="971.999992" fill-opacity="0.4"/></g></mask><clipPath id="c2e4e42605"><rect x="0" width="26" y="0" height="20"/></clipPath></defs><rect x="-144" width="1728" fill="#ffffff" y="-80.999999" height="971.999992" fill-opacity="1"/><rect x="-144" width="1728" fill="#ffffff" y="-80.999999" height="971.999992" fill-opacity="1"/><path fill="#329f83" d="M 486.84375 64.105469 L 905.84375 64.105469 L 905.84375 565.085938 L 486.84375 565.085938 Z M 486.84375 64.105469 " fill-opacity="1" fill-rule="nonzero"/><g mask="url(#41247c16a0)"><g transform="matrix(1, 0, 0, 1, 509, 169)"><g clip-path="url(#7655730a9c)"><g clip-path="url(#3a009f9795)"><path stroke-linecap="round" transform="matrix(1.66117, 0, 0, 1.660362, -202.142403, -112.533508)" fill="none" stroke-linejoin="round" d="M 126.740139 110.239434 L 126.740139 72.891131 " stroke="#ffffff" stroke-width="9.19" stroke-opacity="1" stroke-miterlimit="4"/></g></g></g></g><g mask="url(#d87b6036a2)"><g transform="matrix(1, 0, 0, 1, 509, 121)"><g clip-path="url(#26fee6f52a)"><g clip-path="url(#9d1b1d9044)"><path stroke-linecap="round" transform="matrix(1.66117, 0, 0, 1.660362, -202.142403, -64.533508)" fill="none" stroke-linejoin="round" d="M 126.740139 51.700822 L 126.740139 44.449957 " stroke="#ffffff" stroke-width="9.19" stroke-opacity="1" stroke-miterlimit="4"/></g></g></g></g><g clip-path="url(#5182b615c9)"><path stroke-linecap="round" transform="matrix(1.66117, 0, 0, 1.660362, 306.857597, 56.466488)" fill="none" stroke-linejoin="round" d="M 108.349018 207.639106 L 108.349018 4.600791 L 360.580857 4.600791 L 360.580857 203.279647 " stroke="#000000" stroke-width="9.19" stroke-opacity="1" stroke-miterlimit="4"/></g><path fill="#f8d9c3" d="M 750.089844 756.789062 C 755.191406 743.824219 748.761719 729.03125 735.773438 723.933594 L 731.21875 722.171875 L 766.6875 736.136719 C 778.945312 740.949219 793.265625 736.136719 799.261719 724.429688 C 806.15625 710.964844 799.742188 694.675781 785.988281 689.265625 L 740.125 671.449219 L 799.410156 694.492188 C 811.671875 699.308594 825.988281 694.492188 831.988281 682.789062 C 838.878906 669.324219 832.46875 653.035156 818.714844 647.621094 L 754.726562 622.75 L 836.339844 654.945312 C 849.363281 660.074219 864.097656 653.664062 869.214844 640.632812 C 874.347656 627.613281 867.933594 612.886719 854.910156 607.773438 L 771.136719 574.730469 L 714.242188 552.351562 L 783.695312 579.664062 C 802.867188 587.203125 824.511719 577.785156 832.054688 558.625 C 836.273438 547.917969 831.007812 535.828125 820.292969 531.613281 C 802.71875 524.707031 785.125 517.78125 767.550781 510.875 C 754.425781 505.710938 741.46875 500.628906 728.8125 494.6875 C 712.78125 487.164062 694.425781 486.765625 677.050781 486.683594 C 640.238281 486.535156 603.425781 487.132812 566.613281 487.3125 C 566.613281 487.3125 539.804688 476.804688 539.804688 476.804688 C 539.804688 476.804688 484.570312 617.601562 480.101562 629.007812 C 503.375 638.125 471.398438 625.605469 494.667969 634.722656 C 498.738281 636.316406 502.84375 637.925781 506.628906 640.117188 C 511.960938 643.207031 516.582031 647.371094 521.164062 651.507812 C 537.394531 666.183594 553.609375 680.863281 569.835938 695.539062 C 581.234375 705.851562 592.726562 716.195312 605.550781 724.746094 C 617.929688 732.996094 631.117188 737.398438 644.773438 742.777344 C 661.949219 749.535156 679.125 756.292969 696.300781 763.035156 L 717.234375 771.121094 C 730.207031 776.21875 745.007812 769.792969 750.109375 756.808594 Z M 750.089844 756.789062 " fill-opacity="1" fill-rule="nonzero"/><path stroke-linecap="round" transform="matrix(1.66117, 0, 0, 1.660362, 306.857597, 56.466488)" fill="none" stroke-linejoin="round" d="M 287.049294 315.110465 C 298.59048 319.651078 311.62017 313.978841 316.160926 302.439098 C 318.700552 295.990487 315.530723 288.709038 309.080545 286.17053 C 298.501123 282.011046 287.909944 277.8398 277.330523 273.680316 C 269.429466 270.570114 261.629524 267.509318 254.010647 263.930939 " stroke="#000000" stroke-width="9.19" stroke-opacity="1" stroke-miterlimit="4"/><path stroke-linecap="round" transform="matrix(1.66117, 0, 0, 1.660362, 306.857597, 56.466488)" fill="none" stroke-linejoin="round" d="M 249.03016 431.039598 C 256.301013 432.799379 264.009247 428.941035 266.819295 421.788982 C 269.890361 413.98054 266.019784 405.071058 258.201029 402.000851 L 255.459175 400.939806 L 276.810841 409.350527 C 284.189863 412.24899 292.810481 409.350527 296.420041 402.299638 C 300.570448 394.190056 296.709276 384.37951 288.429627 381.121091 L 260.820606 370.390659 L 296.509398 384.268936 C 303.890773 387.169752 312.509039 384.268936 316.120951 377.220399 C 320.269006 369.110818 316.410186 359.300272 308.130536 356.0395 L 269.610532 341.060184 L 318.740527 360.450717 C 326.580445 363.539745 335.450322 359.679048 338.530794 351.830611 C 341.620672 343.989232 337.7595 335.119745 329.919582 332.040128 L 279.489205 312.13907 " stroke="#000000" stroke-width="9.19" stroke-opacity="1" stroke-miterlimit="4"/><path stroke-linecap="round" transform="matrix(1.66117, 0, 0, 1.660362, 306.857597, 56.466488)" fill="none" stroke-linejoin="round" d="M 128.999935 358.359212 C 138.770439 367.200467 148.529185 376.039369 158.299688 384.880624 C 165.159028 391.089265 172.079508 397.31908 179.799499 402.469028 C 187.249067 407.440176 195.1901 410.089258 203.410961 413.328856 " stroke="#000000" stroke-width="9.19" stroke-opacity="1" stroke-miterlimit="4"/><path stroke-linecap="round" transform="matrix(1.66117, 0, 0, 1.660362, 306.857597, 56.466488)" fill="none" stroke-linejoin="round" d="M 199.730856 259.140945 C 185.2691 259.230346 170.819101 259.409147 156.369103 259.479727 C 156.369103 259.479727 140.230723 253.151101 140.230723 253.151101 C 140.230723 253.151101 106.980442 337.949982 104.29032 344.819717 C 118.300587 350.3108 99.051167 342.77056 113.059082 348.25929 " stroke="#000000" stroke-width="9.19" stroke-opacity="1" stroke-miterlimit="4"/><path fill="#f8d9c3" d="M 701.234375 548.730469 L 656.285156 576.890625 C 638.160156 588.246094 614.554688 585.359375 599.707031 569.964844 L 597.660156 567.859375 C 590.285156 560.21875 591.351562 547.835938 599.90625 541.542969 L 677.363281 484.707031 C 689.839844 475.558594 705.125 470.992188 720.554688 471.9375 C 745.789062 473.484375 771.003906 475.257812 796.222656 476.902344 C 803.25 477.351562 810.308594 476.457031 817.003906 474.28125 L 861.023438 466.59375 C 861.023438 466.59375 908 610.363281 911.804688 622.003906 C 904.878906 625.421875 903.816406 625.273438 893.964844 626.851562 C 887.652344 627.863281 886.65625 628.296875 880.277344 627.996094 L 871.125 627.996094 C 868.78125 618.515625 861.953125 610.761719 852.835938 607.242188 L 701.234375 548.765625 Z M 701.234375 548.730469 " fill-opacity="1" fill-rule="nonzero"/><g mask="url(#8563e02879)"><g transform="matrix(1, 0, 0, 1, 672, 494)"><g clip-path="url(#983309545d)"><path stroke-linecap="round" transform="matrix(1.66117, 0, 0, 1.660362, -365.142403, -437.533503)" fill="none" stroke-linejoin="round" d="M 225.129462 279.199625 L 233.919388 272.751014 C 236.259136 271.028875 238.939851 269.800792 241.731088 269.130287 " stroke="#ffffff" stroke-width="9.19" stroke-opacity="1" stroke-miterlimit="4"/></g></g></g><g mask="url(#095da789c4)"><g transform="matrix(1, 0, 0, 1, 733, 494)"><g clip-path="url(#c2e4e42605)"><path stroke-linecap="round" transform="matrix(1.66117, 0, 0, 1.660362, -426.142393, -437.533503)" fill="none" stroke-linejoin="round" d="M 262.029274 269.480832 C 263.560104 269.579643 265.090933 269.680807 266.631169 269.779618 " stroke="#ffffff" stroke-width="9.19" stroke-opacity="1" stroke-miterlimit="4"/></g></g></g><path stroke-linecap="round" transform="matrix(1.66117, 0, 0, 1.660362, 306.857597, 56.466488)" fill="none" stroke-linejoin="round" d="M 339.68068 344.189207 C 338.269777 338.479328 334.159346 333.80932 328.670933 331.689583 L 249.869647 301.279242 " stroke="#000000" stroke-width="9.19" stroke-opacity="1" stroke-miterlimit="4"/><path stroke-linecap="round" transform="matrix(1.66117, 0, 0, 1.660362, 306.857597, 56.466488)" fill="none" stroke-linejoin="round" d="M 237.409022 296.479838 L 210.350253 313.440085 C 199.439269 320.279235 185.229124 318.540628 176.291053 309.268838 L 175.058865 308.00076 C 170.619223 303.398979 171.261184 295.941081 176.41098 292.150964 L 223.038974 257.919921 C 230.549681 252.410017 239.751121 249.65977 249.039566 250.229111 C 264.230288 251.16076 279.409254 252.228863 294.59057 253.219328 C 298.820928 253.489883 303.070098 252.951126 307.100577 251.6407 L 333.599688 247.010687 C 333.599688 247.010687 361.878888 333.599934 364.169254 340.610828 C 360.000035 342.669396 359.360426 342.579995 353.42993 343.530465 " stroke="#000000" stroke-width="9.19" stroke-opacity="1" stroke-miterlimit="4"/><path fill="#f3c278" d="M 541.546875 472.355469 L 480.75 627.367188 C 476.628906 637.910156 464.703125 643.105469 454.152344 638.9375 L 314.515625 592.648438 L 314.515625 374.34375 L 529.953125 445.773438 C 540.5 449.890625 545.699219 461.8125 541.5625 472.355469 Z M 541.546875 472.355469 " fill-opacity="1" fill-rule="nonzero"/><path stroke-linecap="round" transform="matrix(1.66117, 0, 0, 1.660362, 306.857597, 56.466488)" fill="none" stroke-linejoin="round" d="M 4.600614 191.441118 L 134.290822 234.459305 C 140.639885 236.938997 143.769738 244.119282 141.279495 250.469081 L 104.68067 343.829252 C 102.199832 350.179051 95.020687 353.310427 88.669272 350.800151 L 4.61002 322.918907 " stroke="#000000" stroke-width="9.19" stroke-opacity="1" stroke-miterlimit="4"/><path fill="#233a45" d="M 1078.1875 369.097656 L 1078.1875 587.367188 L 937.121094 633.394531 C 926.390625 636.914062 914.761719 631.066406 911.242188 620.292969 L 859.527344 462.042969 C 856.007812 451.265625 861.90625 439.695312 872.667969 436.175781 L 1078.15625 369.097656 Z M 1078.1875 369.097656 " fill-opacity="1" fill-rule="nonzero"/><path stroke-linecap="round" transform="matrix(1.66117, 0, 0, 1.660362, 306.857597, 56.466488)" fill="none" stroke-linejoin="round" d="M 464.32926 319.749889 L 379.409358 347.471152 C 372.949774 349.590889 365.949343 346.068974 363.830637 339.580368 L 332.699061 244.269851 C 330.580355 237.778892 334.131128 230.810346 340.609524 228.690609 L 464.310448 188.290921 " stroke="#000000" stroke-width="9.19" stroke-opacity="1" stroke-miterlimit="4"/><path stroke-linecap="round" transform="matrix(1.269543, -1.070808, 1.071329, 1.268926, -26.871907, 351.645502)" fill-opacity="1" fill="#f8d9c3" fill-rule="nonzero" stroke-linejoin="round" d="M 133.519597 349.000391 L 151.889484 348.999404 C 152.370118 348.998648 152.849675 349.02469 153.327598 349.070901 C 153.80552 349.117112 154.280569 349.188604 154.752466 349.282063 C 155.224363 349.375521 155.688276 349.493026 156.149036 349.632498 C 156.607999 349.770453 157.058978 349.932455 157.503489 350.116704 C 157.948001 350.300954 158.382451 350.504419 158.805603 350.732211 C 159.230272 350.958206 159.640048 351.205494 160.039763 351.471999 C 160.439477 351.738503 160.825816 352.024503 161.196983 352.328484 C 161.568149 352.632465 161.922625 352.956223 162.263446 353.296164 C 162.602469 353.634589 162.924523 353.989476 163.229606 354.360827 C 163.53469 354.732179 163.821006 355.118477 164.086759 355.518205 C 164.354029 355.916136 164.600734 356.327497 164.826875 356.752288 C 165.054534 357.175282 165.259831 357.610189 165.442487 358.053696 C 165.628458 358.496921 165.788472 358.949027 165.927363 359.407934 C 166.068052 359.868358 166.184022 360.33255 166.278868 360.803543 C 166.372196 361.276334 166.442324 361.751096 166.489251 362.227828 C 166.536178 362.704559 166.559905 363.183261 166.56043 363.663934 C 166.560955 364.144606 166.536483 364.625732 166.488249 365.102199 C 166.441813 365.580182 166.371617 366.053507 166.277939 366.525487 C 166.184262 366.997468 166.068341 367.462991 165.92838 367.920541 C 165.788699 368.381406 165.626494 368.832499 165.442047 369.277136 C 165.259116 369.719974 165.05546 370.154558 164.827483 370.577853 C 164.601304 371.002665 164.353838 371.412593 164.087164 371.812469 C 163.82049 372.212344 163.535845 372.597054 163.229914 372.966879 C 162.924263 373.34002 162.603675 373.694399 162.263599 374.03541 C 161.923243 374.373107 161.568229 374.695357 161.196762 375.000644 C 160.825295 375.305931 160.438891 375.592456 160.039068 375.858422 C 159.641042 376.125904 159.229596 376.372827 158.804731 376.59919 C 158.381383 376.823756 157.94821 377.030795 157.504652 377.213679 C 157.059577 377.39836 156.607431 377.558605 156.148495 377.697727 C 155.688041 377.838648 155.223831 377.95485 154.751034 378.048413 C 154.281551 378.141695 153.806794 378.212056 153.326765 378.259497 C 152.850049 378.306656 152.371375 378.330614 151.888945 378.329853 L 133.520574 378.329042 C 133.039941 378.329797 132.560663 378.30707 132.080944 378.259343 C 131.604539 378.211334 131.127972 378.14164 130.65939 378.0479 C 130.187493 377.954441 129.722063 377.838734 129.261303 377.699262 C 128.80206 377.557992 128.349564 377.397789 127.905052 377.213539 C 127.462338 377.030806 127.027608 376.824027 126.604736 376.599549 C 126.181584 376.371757 125.768494 376.124749 125.368779 375.858245 C 124.969064 375.591741 124.58604 375.305459 124.213076 374.999962 C 123.84191 374.695981 123.485917 374.37402 123.146893 374.035596 C 122.806072 373.695655 122.485536 373.33897 122.180453 372.967618 C 121.875369 372.596267 121.589332 372.213283 121.321783 371.812038 C 121.05603 371.41231 120.809325 371.000949 120.581666 370.577955 C 120.355525 370.153164 120.150508 369.721571 119.966054 369.276548 C 119.783398 368.833042 119.620069 368.381217 119.481178 367.92231 C 119.342287 367.463403 119.226037 366.995896 119.132988 366.526419 C 119.038142 366.055426 118.968014 365.580664 118.91929 365.102416 C 118.87388 364.623886 118.850154 364.145184 118.849629 363.664512 C 118.850901 363.185357 118.873856 362.706029 118.920292 362.228045 C 118.966728 361.750061 119.038442 361.274939 119.13212 360.802958 C 119.22428 360.332776 119.341998 359.868769 119.481679 359.407904 C 119.62136 358.94704 119.783564 358.495946 119.966495 358.053108 C 120.150943 357.608472 120.356396 357.175405 120.581058 356.752391 C 120.809035 356.329095 121.054703 355.91765 121.321377 355.517775 C 121.588051 355.1179 121.876011 354.732909 122.180145 354.361566 C 122.484278 353.990224 122.806384 353.634047 123.14674 353.29635 C 123.486816 352.955339 123.841829 352.633088 124.213297 352.327802 C 124.584764 352.022515 124.96965 351.737788 125.369474 351.471822 C 125.769297 351.205856 126.180743 350.958933 126.603811 350.731053 C 127.028676 350.50469 127.462129 350.300965 127.907204 350.116284 C 128.348965 349.931884 128.801111 349.771639 129.261564 349.630718 C 129.720501 349.491596 130.188025 349.375113 130.657508 349.281831 C 131.130305 349.188268 131.605062 349.117906 132.081777 349.070747 C 132.560289 349.025104 133.040481 348.999348 133.519597 349.000391 Z M 133.519597 349.000391 " stroke="#000000" stroke-width="9.19" stroke-opacity="1" stroke-miterlimit="4"/><path stroke-linecap="round" transform="matrix(1.269543, -1.070808, 1.071329, 1.268926, -36.323137, 385.417033)" fill-opacity="1" fill="#f8d9c3" fill-rule="nonzero" stroke-linejoin="round" d="M 152.970422 366.961203 L 182.399587 366.959124 C 182.882017 366.959885 183.359778 366.98441 183.8377 367.030621 C 184.315622 367.076832 184.790672 367.148324 185.262569 367.241783 C 185.734466 367.335241 186.198378 367.452746 186.659138 367.592218 C 187.118101 367.730173 187.56908 367.892175 188.013592 368.076424 C 188.458103 368.260674 188.891036 368.465937 189.315705 368.691931 C 189.740374 368.917925 190.15015 369.165214 190.549865 369.431718 C 190.94958 369.698223 191.335919 369.984223 191.707085 370.288204 C 192.076734 370.593983 192.432727 370.915943 192.773548 371.255884 C 193.112572 371.594308 193.436422 371.950713 193.739709 372.320547 C 194.044792 372.691899 194.331109 373.078197 194.596861 373.477925 C 194.864131 373.875856 195.110837 374.287217 195.336978 374.712008 C 195.564636 375.135002 195.769934 375.569909 195.95259 376.013416 C 196.13856 376.456641 196.298575 376.908747 196.437466 377.367654 C 196.578154 377.828078 196.694124 378.29227 196.78897 378.763263 C 196.882299 379.236054 196.952427 379.710816 196.999354 380.187547 C 197.046281 380.664279 197.06849 381.144779 197.069015 381.625451 C 197.069541 382.106124 197.046585 382.585452 196.998352 383.061919 C 196.951916 383.539902 196.881999 384.016541 196.788042 384.485207 C 196.694364 384.957188 196.578444 385.422711 196.436965 385.882059 C 196.298801 386.341126 196.136597 386.792219 195.952149 387.236856 C 195.769219 387.679694 195.565562 388.114277 195.337586 388.537573 C 195.111406 388.962385 194.863941 389.372313 194.597267 389.772188 C 194.330593 390.172064 194.045948 390.556773 193.738499 390.928397 C 193.434366 391.29974 193.112261 391.655917 192.773701 391.99513 C 192.433345 392.332827 192.076815 392.656875 191.706865 392.960364 C 191.335398 393.265651 190.948994 393.552176 190.54917 393.818142 C 190.151144 394.085624 189.739698 394.332547 189.314833 394.55891 C 188.891485 394.783476 188.458312 394.990515 188.014754 395.173398 C 187.569679 395.35808 187.117533 395.518325 186.658597 395.657447 C 186.198143 395.798368 185.733934 395.91457 185.261136 396.008133 C 184.791653 396.101414 184.316897 396.171776 183.836867 396.219217 C 183.360152 396.266376 182.881478 396.290334 182.399047 396.289573 L 152.971399 396.289854 C 152.488969 396.289093 152.009691 396.266366 151.531769 396.220155 C 151.055364 396.172146 150.578797 396.102452 150.108417 396.007196 C 149.63652 395.913737 149.17109 395.79803 148.71033 395.658558 C 148.252885 395.518805 147.800389 395.358601 147.355877 395.174352 C 146.911366 394.990102 146.478432 394.78484 146.053763 394.558845 C 145.630612 394.331053 145.219319 394.085562 144.819604 393.819058 C 144.419889 393.552554 144.035067 393.264755 143.663901 392.960774 C 143.292735 392.656793 142.936741 392.334833 142.595921 391.994892 C 142.256897 391.656468 141.934564 391.298265 141.631277 390.928431 C 141.326194 390.55708 141.039877 390.170781 140.772607 389.772851 C 140.506855 389.373122 140.258352 388.960245 140.032491 388.538768 C 139.80635 388.113976 139.599535 387.680867 139.416879 387.237361 C 139.232426 386.792337 139.070894 386.34203 138.932003 385.883122 C 138.791315 385.422699 138.676862 384.956709 138.582016 384.485715 C 138.48717 384.014722 138.417042 383.53996 138.370115 383.063229 C 138.324705 382.584699 138.299182 382.10448 138.300454 381.625325 C 138.299928 381.144652 138.322884 380.665325 138.36932 380.187341 C 138.417553 379.710874 138.48747 379.234235 138.582944 378.763771 C 138.675105 378.293588 138.791025 377.828065 138.932504 377.368717 C 139.072185 376.907852 139.232592 376.455242 139.415523 376.012404 C 139.601767 375.569284 139.805424 375.134701 140.031883 374.713203 C 140.258063 374.288391 140.505528 373.878463 140.772202 373.478588 C 141.038876 373.078712 141.325038 372.692205 141.629172 372.320862 C 141.935103 371.951036 142.257208 371.594859 142.595767 371.255646 C 142.935844 370.914634 143.292654 370.593901 143.664121 370.288614 C 144.035589 369.983328 144.420475 369.6986 144.820299 369.432635 C 145.218325 369.165152 145.62977 368.918229 146.054636 368.691866 C 146.479501 368.465502 146.911157 368.260261 147.356232 368.07558 C 147.79979 367.892696 148.251935 367.732451 148.712389 367.591531 C 149.171325 367.452408 149.637052 367.334408 150.108333 367.242643 C 150.579333 367.147564 151.054089 367.077202 151.532602 367.031559 C 152.010834 366.982602 152.489509 366.958644 152.970422 366.961203 Z M 152.970422 366.961203 " stroke="#000000" stroke-width="9.19" stroke-opacity="1" stroke-miterlimit="4"/><path stroke-linecap="round" transform="matrix(1.269543, -1.070808, 1.071329, 1.268926, -46.257414, 418.641623)" fill-opacity="1" fill="#f8d9c3" fill-rule="nonzero" stroke-linejoin="round" d="M 182.880037 385.149977 L 201.249924 385.14899 C 201.72904 385.150033 202.210115 385.174277 202.688037 385.220487 C 203.16596 385.266698 203.641009 385.33819 204.112906 385.431649 C 204.583286 385.526906 205.048716 385.642613 205.509476 385.782085 C 205.968439 385.92004 206.419417 386.082041 206.863929 386.266291 C 207.308441 386.45054 207.741374 386.655803 208.166043 386.881797 C 208.589194 387.10959 209.000488 387.355081 209.400202 387.621585 C 209.799917 387.888089 210.186256 388.17409 210.557422 388.47807 C 210.927071 388.783849 211.283065 389.10581 211.623885 389.445751 C 211.962909 389.784175 212.284962 390.139063 212.590046 390.510414 C 212.89513 390.881765 213.181446 391.268063 213.447199 391.667792 C 213.714468 392.065722 213.961174 392.477083 214.187315 392.901875 C 214.414974 393.324868 214.620271 393.759775 214.802927 394.203282 C 214.985583 394.646789 215.148912 395.098613 215.287803 395.55752 C 215.428491 396.017944 215.544461 396.482136 215.63779 396.954927 C 215.732636 397.425921 215.802764 397.900682 215.849691 398.377414 C 215.895101 398.855944 215.918827 399.334646 215.919352 399.815318 C 215.919878 400.29599 215.896922 400.775318 215.848689 401.251785 C 215.802253 401.729769 215.730539 402.204891 215.638379 402.675074 C 215.544702 403.147054 215.428781 403.612578 215.287302 404.071926 C 215.149138 404.530992 214.986934 404.982086 214.802486 405.426722 C 214.619556 405.86956 214.414382 406.305942 214.187923 406.727439 C 213.961743 407.152252 213.714278 407.56218 213.447604 407.962055 C 213.18093 408.36193 212.894768 408.748438 212.588837 409.118264 C 212.284703 409.489606 211.962598 409.845783 211.624039 410.184997 C 211.282165 410.524492 210.927152 410.846742 210.557202 411.15023 C 210.185735 411.455517 209.799331 411.742042 209.399507 412.008008 C 209.001481 412.27549 208.590036 412.522413 208.16517 412.748777 C 207.740305 412.97514 207.30865 413.180381 206.865092 413.363265 C 206.420016 413.547947 205.967871 413.708191 205.507417 413.849112 C 205.048481 413.988234 204.584271 414.104436 204.111474 414.197999 C 203.640473 414.293079 203.165717 414.36344 202.687204 414.409083 C 202.210489 414.456243 201.731815 414.4802 201.249384 414.47944 L 182.879497 414.480426 C 182.400381 414.479384 181.921103 414.456656 181.441384 414.408929 C 180.963461 414.362718 180.488412 414.291226 180.018312 414.199284 C 179.547932 414.104027 179.082503 413.98832 178.621742 413.848848 C 178.160982 413.709377 177.710004 413.547375 177.265492 413.363126 C 176.822778 413.180393 176.388047 412.973613 175.965176 412.749136 C 175.542024 412.521343 175.128934 412.274336 174.729219 412.007832 C 174.329504 411.741327 173.944962 411.456843 173.571999 411.151346 C 173.20235 410.845567 172.846356 410.523607 172.507333 410.185182 C 172.166512 409.845242 171.844459 409.490354 171.539375 409.119003 C 171.234291 408.747651 170.949772 408.36287 170.682222 407.961625 C 170.414953 407.563694 170.168247 407.152333 169.942106 406.727542 C 169.714447 406.304548 169.510947 405.871158 169.326494 405.426134 C 169.143838 404.982628 168.980509 404.530803 168.841618 404.071896 C 168.702727 403.612989 168.58496 403.14728 168.491631 402.674489 C 168.398582 402.205012 168.328454 401.730251 168.27973 401.252002 C 168.232803 400.775271 168.210594 400.294771 168.210069 399.814099 C 168.21134 399.334943 168.234296 398.855615 168.280732 398.377631 C 168.327168 397.899648 168.398882 397.424525 168.491042 396.954343 C 168.58472 396.482362 168.702437 396.018355 168.842119 395.557491 C 168.980283 395.098424 169.142487 394.647331 169.326935 394.202694 C 169.509865 393.759856 169.716836 393.324991 169.941498 392.901977 C 170.169475 392.478681 170.415143 392.067237 170.681817 391.667362 C 170.948491 391.267486 171.236451 390.882495 171.540584 390.511153 C 171.844718 390.13981 172.166823 389.783633 172.50718 389.445936 C 172.847256 389.104925 173.202269 388.782675 173.572219 388.479186 C 173.943686 388.173899 174.33009 387.887374 174.729914 387.621408 C 175.129737 387.355443 175.541183 387.10852 175.964251 386.88064 C 176.387598 386.656074 176.822569 386.450552 177.266127 386.267668 C 177.709405 386.08147 178.16155 385.921225 178.620487 385.782103 C 179.08094 385.641182 179.546947 385.526497 180.017947 385.431417 C 180.490745 385.337854 180.965501 385.267493 181.442217 385.220333 C 181.920729 385.17469 182.399403 385.150733 182.880037 385.149977 Z M 182.880037 385.149977 " stroke="#000000" stroke-width="9.19" stroke-opacity="1" stroke-miterlimit="4"/><path stroke-linecap="round" transform="matrix(1.269543, -1.070808, 1.071329, 1.268926, -49.746495, 456.133101)" fill-opacity="1" fill="#f8d9c3" fill-rule="nonzero" stroke-linejoin="round" d="M 215.260782 399.309384 L 228.53015 399.310893 C 228.974045 399.309919 229.419899 399.332146 229.8626 399.37634 C 230.306819 399.418737 230.746367 399.484898 231.184281 399.571228 C 231.61888 399.657839 232.050326 399.766417 232.476822 399.895445 C 232.903319 400.024473 233.323349 400.175749 233.734834 400.344443 C 234.1466 400.516451 234.548024 400.70436 234.941464 400.916314 C 235.333107 401.126753 235.716206 401.354608 236.085929 401.60196 C 236.455652 401.849312 236.813517 402.114362 237.157726 402.395595 C 237.502215 402.680142 237.831252 402.979355 238.146633 403.294749 C 238.460217 403.608627 238.760145 403.938688 239.042824 404.281897 C 239.325502 404.625106 239.591211 404.984778 239.83939 405.354285 C 240.086051 405.72559 240.315183 406.10673 240.523471 406.497985 C 240.733557 406.890757 240.924595 407.295161 241.094509 407.706366 C 241.264423 408.117572 241.415011 408.537095 241.544475 408.96342 C 241.673938 409.389745 241.781998 409.819556 241.868934 410.256169 C 241.95587 410.692781 242.021403 411.132881 242.065531 411.576467 C 242.10966 412.020054 242.130588 412.46561 242.129832 412.911339 L 242.130915 415.03942 C 242.130159 415.485149 242.109236 415.929252 242.064834 416.372011 C 242.022228 416.816286 241.955861 417.255902 241.869329 417.693893 C 241.780999 418.130367 241.67374 418.560103 241.544518 418.986696 C 241.415296 419.413289 241.265348 419.831628 241.094954 420.245026 C 240.92428 420.655109 240.734677 421.058455 240.524068 421.450231 C 240.315256 421.843523 240.085438 422.225246 239.837929 422.595118 C 239.59042 422.96499 239.32522 423.323011 239.043845 423.667384 C 238.759156 424.012037 238.461607 424.342761 238.147605 424.656521 C 237.832085 424.972079 237.503425 425.270392 237.156794 425.55354 C 236.813477 425.836406 236.455224 426.100511 236.085628 426.348887 C 235.714235 426.595747 235.334534 426.823283 234.941694 427.033573 C 234.548854 427.243864 234.145908 427.433314 233.734655 427.603439 C 233.321884 427.775363 232.90384 427.924366 232.477488 428.054044 C 232.051136 428.183723 231.621308 428.291998 231.182892 428.377634 C 230.746273 428.464786 230.306178 428.530535 229.862607 428.57488 C 229.420553 428.617427 228.97682 428.640086 228.531128 428.639544 L 215.260242 428.639833 C 214.81455 428.63929 214.370493 428.618579 213.927792 428.574385 C 213.483574 428.531989 213.044025 428.465828 212.606112 428.379498 C 212.169716 428.29137 211.73827 428.182792 211.311773 428.053764 C 210.885276 427.924736 210.467044 427.774976 210.055558 427.606283 C 209.643793 427.434275 209.242089 427.243052 208.848929 427.034411 C 208.457286 426.823973 208.074187 426.596118 207.704464 426.348766 C 207.332943 426.099897 206.976876 425.836363 206.632386 425.551816 C 206.288177 425.270584 205.959141 424.971371 205.64376 424.655976 C 205.328379 424.340582 205.030247 424.012038 204.747569 423.668829 C 204.464611 423.322305 204.199182 422.965947 203.95252 422.594642 C 203.704341 422.225135 203.475209 421.843996 203.265124 421.451224 C 203.055039 421.058452 202.865798 420.655565 202.695883 420.244359 C 202.525969 419.833154 202.375381 419.41363 202.245918 418.987306 C 202.116454 418.560981 202.008394 418.13117 201.921458 417.694557 C 201.836039 417.256146 201.770507 416.816047 201.726378 416.37246 C 201.68225 415.928874 201.659805 415.485115 201.660561 415.039387 L 201.660995 412.909507 C 201.660234 412.465576 201.682673 412.019675 201.725279 411.5754 C 201.769682 411.132642 201.834531 410.694823 201.921064 410.256833 C 202.007596 409.818842 202.116372 409.387309 202.245595 408.960715 C 202.375096 408.537436 202.524765 408.115783 202.695439 407.7057 C 202.864316 407.2941 203.055716 406.892271 203.264528 406.498979 C 203.476654 406.105405 203.704954 405.72548 203.950666 405.354091 C 204.198175 404.984219 204.463376 404.626198 204.748065 404.281544 C 205.029439 403.937172 205.328785 403.607965 205.642788 403.294205 C 205.958308 402.978647 206.286968 402.680334 206.633599 402.397186 C 206.976915 402.11432 207.333371 401.848698 207.704764 401.601838 C 208.07436 401.353462 208.457375 401.125645 208.850216 400.915354 C 209.241539 400.706862 209.642687 400.515895 210.055458 400.343972 C 210.466711 400.173847 210.884755 400.024843 211.311107 399.895165 C 211.739256 399.767003 212.169085 399.658728 212.605703 399.571575 C 213.042322 399.484423 213.484214 399.420191 213.927786 399.375846 C 214.371357 399.331501 214.813573 399.310639 215.260782 399.309384 Z M 215.260782 399.309384 " stroke="#000000" stroke-width="9.19" stroke-opacity="1" stroke-miterlimit="4"/><path stroke-linecap="round" transform="matrix(1.66117, 0, 0, 1.660362, 306.857597, 56.466488)" fill-opacity="1" fill="#329f83" fill-rule="nonzero" stroke-linejoin="round" d="M 381.530416 255.680199 C 381.530416 256.08956 381.509252 256.498921 381.469276 256.905929 C 381.429301 257.312937 381.370513 257.717593 381.290562 258.119896 C 381.210611 258.522199 381.109496 258.919796 380.991921 259.310336 C 380.871994 259.703229 380.735607 260.089063 380.578056 260.467839 C 380.420505 260.846616 380.246494 261.215982 380.05367 261.57829 C 379.858496 261.938245 379.649212 262.28879 379.421116 262.629924 C 379.19302 262.971058 378.950815 263.300429 378.689797 263.615684 C 378.431132 263.933291 378.156006 264.236783 377.866771 264.526159 C 377.575184 264.815535 377.27184 265.090795 376.956738 265.349586 C 376.639285 265.61073 376.310074 265.853053 375.969106 266.08126 C 375.630489 266.309467 375.277764 266.518853 374.917983 266.71177 C 374.555852 266.90704 374.186665 267.081136 373.808073 267.238763 C 373.429481 267.394038 373.043834 267.532844 372.651132 267.650477 C 372.258431 267.770462 371.863378 267.869273 371.461271 267.949263 C 371.059164 268.029253 370.654705 268.090422 370.245543 268.130417 C 369.838732 268.170412 369.429571 268.189234 369.020409 268.189234 C 368.611247 268.189234 368.202085 268.170412 367.792923 268.130417 C 367.386113 268.090422 366.981654 268.029253 366.579546 267.949263 C 366.177439 267.869273 365.780035 267.770462 365.389685 267.650477 C 364.996983 267.532844 364.611337 267.394038 364.232744 267.238763 C 363.854152 267.081136 363.484966 266.90704 363.122834 266.71177 C 362.760702 266.518853 362.410328 266.309467 362.06936 266.08126 C 361.728391 265.853053 361.401532 265.61073 361.084079 265.349586 C 360.766626 265.090795 360.463282 264.815535 360.174047 264.526159 C 359.884811 264.236783 359.609685 263.933291 359.348668 263.615684 C 359.090003 263.300429 358.845446 262.971058 358.61735 262.629924 C 358.391606 262.28879 358.17997 261.938245 357.987147 261.57829 C 357.794323 261.215982 357.617961 260.846616 357.462761 260.467839 C 357.30521 260.089063 357.166472 259.703229 357.048896 259.310336 C 356.92897 258.919796 356.830206 258.522199 356.750255 258.119896 C 356.670304 257.717593 356.611516 257.312937 356.569189 256.905929 C 356.529214 256.498921 356.510402 256.08956 356.510402 255.680199 C 356.510402 255.270838 356.529214 254.861477 356.569189 254.454469 C 356.611516 254.045108 356.670304 253.640452 356.750255 253.240502 C 356.830206 252.838199 356.92897 252.440601 357.048896 252.047709 C 357.166472 251.657169 357.30521 251.271335 357.462761 250.892558 C 357.617961 250.513782 357.794323 250.144416 357.987147 249.782108 C 358.17997 249.422152 358.391606 249.071608 358.61735 248.730474 C 358.845446 248.389339 359.090003 248.059969 359.348668 247.744714 C 359.609685 247.427106 359.884811 247.123614 360.174047 246.834239 C 360.463282 246.544863 360.766626 246.269603 361.084079 246.010811 C 361.401532 245.749667 361.728391 245.504992 362.06936 245.279138 C 362.410328 245.050931 362.760702 244.839192 363.122834 244.646275 C 363.484966 244.453358 363.854152 244.279262 364.232744 244.121634 C 364.611337 243.966359 364.996983 243.827553 365.387333 243.707568 C 365.780035 243.589936 366.177439 243.491124 366.579546 243.411134 C 366.981654 243.331144 367.386113 243.269975 367.792923 243.22998 C 368.202085 243.189985 368.611247 243.171164 369.020409 243.171164 C 369.429571 243.171164 369.838732 243.189985 370.245543 243.22998 C 370.654705 243.269975 371.059164 243.331144 371.461271 243.411134 C 371.863378 243.491124 372.258431 243.589936 372.651132 243.707568 C 373.043834 243.827553 373.429481 243.966359 373.808073 244.121634 C 374.186665 244.279262 374.555852 244.453358 374.917983 244.646275 C 375.277764 244.839192 375.630489 245.050931 375.969106 245.279138 C 376.310074 245.504992 376.639285 245.749667 376.956738 246.010811 C 377.27184 246.269603 377.575184 246.544863 377.866771 246.834239 C 378.156006 247.123614 378.431132 247.427106 378.689797 247.744714 C 378.950815 248.059969 379.19302 248.389339 379.421116 248.730474 C 379.649212 249.071608 379.858496 249.422152 380.05367 249.782108 C 380.246494 250.144416 380.420505 250.513782 380.578056 250.892558 C 380.735607 251.271335 380.871994 251.657169 380.991921 252.047709 C 381.109496 252.440601 381.210611 252.838199 381.290562 253.240502 C 381.370513 253.640452 381.429301 254.045108 381.469276 254.454469 C 381.509252 254.861477 381.530416 255.270838 381.530416 255.680199 Z M 381.530416 255.680199 " stroke="#000000" stroke-width="9.19" stroke-opacity="1" stroke-miterlimit="4"/><path stroke-linecap="round" transform="matrix(1.66117, 0, 0, 1.660362, 306.857597, 56.466488)" fill-opacity="1" fill="#329f83" fill-rule="nonzero" stroke-linejoin="round" d="M 422.608858 241.740753 C 422.608858 242.150114 422.590046 242.559475 422.55007 242.966484 C 422.510094 243.373492 422.448955 243.778147 422.369004 244.18045 C 422.289053 244.582753 422.19029 244.980351 422.070363 245.370891 C 421.952788 245.763783 421.814049 246.149618 421.656498 246.528394 C 421.501299 246.904818 421.324936 247.276537 421.132112 247.636492 C 420.939289 247.9988 420.730005 248.349344 420.501909 248.690479 C 420.273813 249.031613 420.029257 249.358631 419.770591 249.676239 C 419.509574 249.993846 419.234448 250.297338 418.945213 250.586714 C 418.655978 250.876089 418.352633 251.151349 418.03518 251.410141 C 417.720079 251.671285 417.390868 251.913608 417.0499 252.141815 C 416.708931 252.370022 416.358557 252.579407 415.996425 252.772325 C 415.636645 252.965242 415.265107 253.14169 414.886515 253.296965 C 414.507923 253.454593 414.124627 253.593399 413.731926 253.711032 C 413.339225 253.831017 412.94182 253.929828 412.539713 254.009818 C 412.137606 254.089808 411.733147 254.148624 411.326336 254.188619 C 410.919526 254.230967 410.510364 254.249788 410.098851 254.249788 C 409.689689 254.249788 409.280527 254.230967 408.873717 254.188619 C 408.466906 254.148624 408.060096 254.089808 407.66034 254.009818 C 407.258233 253.929828 406.860828 253.831017 406.468127 253.711032 C 406.075425 253.593399 405.69213 253.454593 405.313538 253.296965 C 404.934946 253.14169 404.563408 252.965242 404.203627 252.772325 C 403.841496 252.579407 403.491121 252.370022 403.150153 252.141815 C 402.809185 251.913608 402.479974 251.671285 402.164873 251.410141 C 401.847419 251.151349 401.544075 250.876089 401.25484 250.586714 C 400.963253 250.297338 400.690479 249.993846 400.429462 249.676239 C 400.170796 249.358631 399.92624 249.031613 399.698144 248.690479 C 399.470048 248.349344 399.260764 247.9988 399.06794 247.636492 C 398.875117 247.276537 398.698754 246.904818 398.541203 246.528394 C 398.386004 246.149618 398.247265 245.763783 398.12969 245.370891 C 398.009763 244.980351 397.911 244.582753 397.831049 244.18045 C 397.751098 243.778147 397.689958 243.373492 397.649983 242.966484 C 397.610007 242.559475 397.591195 242.150114 397.588844 241.740753 C 397.591195 241.331392 397.610007 240.922032 397.649983 240.512671 C 397.689958 240.105662 397.751098 239.701007 397.831049 239.298704 C 397.911 238.896401 398.009763 238.501156 398.12969 238.108263 C 398.247265 237.715371 398.386004 237.331889 398.541203 236.953113 C 398.698754 236.574336 398.875117 236.20497 399.06794 235.842662 C 399.260764 235.480354 399.470048 235.12981 399.698144 234.788676 C 399.92624 234.449894 400.170796 234.120523 400.429462 233.802916 C 400.690479 233.487661 400.963253 233.184169 401.25484 232.894793 C 401.544075 232.605417 401.847419 232.330157 402.164873 232.069013 C 402.479974 231.810222 402.809185 231.565546 403.150153 231.337339 C 403.491121 231.111485 403.841496 230.899747 404.203627 230.70683 C 404.563408 230.513912 404.934946 230.339816 405.313538 230.182189 C 405.69213 230.024561 406.075425 229.888108 406.468127 229.768123 C 406.860828 229.65049 407.258233 229.549326 407.66034 229.469336 C 408.060096 229.389346 408.466906 229.33053 408.873717 229.290535 C 409.280527 229.25054 409.689689 229.229366 410.098851 229.229366 C 410.510364 229.229366 410.919526 229.25054 411.326336 229.290535 C 411.733147 229.33053 412.137606 229.389346 412.539713 229.469336 C 412.94182 229.549326 413.339225 229.65049 413.731926 229.768123 C 414.124627 229.888108 414.507923 230.024561 414.886515 230.182189 C 415.265107 230.339816 415.636645 230.513912 415.996425 230.70683 C 416.358557 230.899747 416.708931 231.111485 417.0499 231.337339 C 417.390868 231.565546 417.720079 231.810222 418.03518 232.069013 C 418.352633 232.330157 418.655978 232.605417 418.945213 232.894793 C 419.234448 233.184169 419.509574 233.487661 419.770591 233.802916 C 420.029257 234.120523 420.273813 234.449894 420.501909 234.788676 C 420.730005 235.12981 420.939289 235.480354 421.132112 235.842662 C 421.324936 236.20497 421.501299 236.574336 421.656498 236.953113 C 421.814049 237.331889 421.952788 237.715371 422.070363 238.108263 C 422.19029 238.501156 422.289053 238.896401 422.369004 239.298704 C 422.448955 239.701007 422.510094 240.105662 422.55007 240.512671 C 422.590046 240.922032 422.608858 241.331392 422.608858 241.740753 Z M 422.608858 241.740753 " stroke="#000000" stroke-width="9.19" stroke-opacity="1" stroke-miterlimit="4"/><path stroke-linecap="round" transform="matrix(1.66117, 0, 0, 1.660362, 306.857597, 56.466488)" fill="none" stroke-linejoin="round" d="M 189.250198 40.859818 L 279.879555 40.859818 " stroke="#000000" stroke-width="9.19" stroke-opacity="1" stroke-miterlimit="4"/><path stroke-linecap="round" transform="matrix(1.66117, 0, 0, 1.660362, 306.857597, 56.466488)" fill="none" stroke-linejoin="round" d="M 234.558997 32.199717 L 234.558997 131.509737 " stroke="#000000" stroke-width="9.19" stroke-opacity="1" stroke-miterlimit="4"/><path stroke-linecap="round" transform="matrix(1.66117, 0, 0, 1.660362, 306.857597, 56.466488)" fill="none" stroke-linejoin="round" d="M 270.090239 40.859818 L 288.130986 83.440412 " stroke="#000000" stroke-width="9.19" stroke-opacity="1" stroke-miterlimit="4"/><path stroke-linecap="round" transform="matrix(1.66117, 0, 0, 1.660362, 306.857597, 56.466488)" fill="none" stroke-linejoin="round" d="M 270.090239 40.859818 L 252.058898 83.440412 " stroke="#000000" stroke-width="9.19" stroke-opacity="1" stroke-miterlimit="4"/><path stroke-linecap="round" transform="matrix(1.66117, 0, 0, 1.660362, 306.857597, 56.466488)" fill="none" stroke-linejoin="round" d="M 290.640042 84.179144 L 249.291177 84.179144 C 253.199378 91.380603 260.728897 95.860046 268.91919 95.860046 L 271.009678 95.860046 C 279.19997 95.860046 286.729489 91.380603 290.640042 84.179144 Z M 290.640042 84.179144 " stroke="#000000" stroke-width="9.19" stroke-opacity="1" stroke-miterlimit="4"/><path stroke-linecap="round" transform="matrix(1.66117, 0, 0, 1.660362, 306.857597, 56.466488)" fill="none" stroke-linejoin="round" d="M 199.088895 40.859818 L 217.129642 83.440412 " stroke="#000000" stroke-width="9.19" stroke-opacity="1" stroke-miterlimit="4"/><path stroke-linecap="round" transform="matrix(1.66117, 0, 0, 1.660362, 306.857597, 56.466488)" fill="none" stroke-linejoin="round" d="M 199.088895 40.859818 L 181.0505 83.440412 " stroke="#000000" stroke-width="9.19" stroke-opacity="1" stroke-miterlimit="4"/><path stroke-linecap="round" transform="matrix(1.66117, 0, 0, 1.660362, 306.857597, 56.466488)" fill="none" stroke-linejoin="round" d="M 219.629292 84.179144 L 178.280427 84.179144 C 182.19098 91.380603 189.720499 95.860046 197.910791 95.860046 L 199.998928 95.860046 C 208.18922 95.860046 215.72109 91.380603 219.629292 84.179144 Z M 219.629292 84.179144 " stroke="#000000" stroke-width="9.19" stroke-opacity="1" stroke-miterlimit="4"/><path stroke-linecap="round" transform="matrix(1.66117, 0, 0, 1.660362, 306.857597, 56.466488)" fill="none" stroke-linejoin="round" d="M 209.618935 131.509737 L 259.49906 131.509737 " stroke="#000000" stroke-width="9.19" stroke-opacity="1" stroke-miterlimit="4"/><path stroke-linecap="round" transform="matrix(1.66117, 0, 0, 1.660362, 306.857597, 56.466488)" fill="none" stroke-linejoin="round" d="M 151.889485 171.100114 L 317.040389 171.100114 " stroke="#000000" stroke-width="9.19" stroke-opacity="1" stroke-miterlimit="4"/><path stroke-linecap="round" transform="matrix(1.66117, 0, 0, 1.660362, 306.857597, 56.466488)" fill="none" stroke-linejoin="round" d="M 151.889485 200.981109 L 317.040389 200.981109 " stroke="#000000" stroke-width="9.19" stroke-opacity="1" stroke-miterlimit="4"/><path stroke-linecap="round" transform="matrix(1.66117, 0, 0, 1.660362, 306.857597, 56.466488)" fill="none" stroke-linejoin="round" d="M 151.889485 230.859752 L 248.080152 230.859752 " stroke="#000000" stroke-width="9.19" stroke-opacity="1" stroke-miterlimit="4"/></svg>