<svg xmlns="http://www.w3.org/2000/svg" xmlns:xlink="http://www.w3.org/1999/xlink" width="1920" zoomAndPan="magnify" viewBox="0 0 1440 809.999993" height="1080" preserveAspectRatio="xMidYMid meet" version="1.0"><defs><clipPath id="253310f071"><path d="M 459.578125 146 L 977 146 L 977 664.246094 L 459.578125 664.246094 Z M 459.578125 146 " clip-rule="nonzero"/></clipPath></defs><rect x="-144" width="1728" fill="#ffffff" y="-80.999999" height="971.999992" fill-opacity="1"/><rect x="-144" width="1728" fill="#ffffff" y="-80.999999" height="971.999992" fill-opacity="1"/><path fill="#37d8b8" d="M 718.820312 614.222656 L 657.476562 614.222656 C 657.113281 614.222656 656.75 614.1875 656.394531 614.117188 C 656.039062 614.046875 655.691406 613.941406 655.355469 613.800781 C 655.019531 613.664062 654.699219 613.492188 654.394531 613.289062 C 654.09375 613.085938 653.8125 612.855469 653.554688 612.597656 C 653.300781 612.339844 653.070312 612.0625 652.867188 611.757812 C 652.664062 611.457031 652.492188 611.136719 652.355469 610.796875 C 652.214844 610.460938 652.109375 610.113281 652.039062 609.757812 C 651.96875 609.402344 651.933594 609.039062 651.933594 608.675781 L 651.933594 564.625 L 607.929688 564.625 C 607.566406 564.625 607.207031 564.589844 606.847656 564.519531 C 606.492188 564.445312 606.144531 564.339844 605.808594 564.203125 C 605.472656 564.0625 605.152344 563.890625 604.851562 563.6875 C 604.546875 563.488281 604.269531 563.257812 604.011719 563 C 603.753906 562.742188 603.523438 562.460938 603.320312 562.160156 C 603.117188 561.855469 602.949219 561.535156 602.808594 561.199219 C 602.667969 560.863281 602.5625 560.515625 602.492188 560.15625 C 602.421875 559.800781 602.386719 559.441406 602.386719 559.074219 L 602.386719 497.660156 C 602.386719 497.296875 602.421875 496.9375 602.492188 496.578125 C 602.5625 496.222656 602.667969 495.875 602.808594 495.539062 C 602.949219 495.199219 603.117188 494.882812 603.320312 494.578125 C 603.523438 494.273438 603.753906 493.996094 604.011719 493.738281 C 604.265625 493.480469 604.546875 493.25 604.851562 493.046875 C 605.152344 492.84375 605.472656 492.671875 605.808594 492.535156 C 606.144531 492.394531 606.492188 492.289062 606.847656 492.21875 C 607.207031 492.148438 607.566406 492.113281 607.929688 492.113281 L 651.933594 492.113281 L 651.933594 448.058594 C 651.933594 447.695312 651.96875 447.335938 652.039062 446.976562 C 652.109375 446.621094 652.214844 446.273438 652.355469 445.9375 C 652.492188 445.597656 652.664062 445.277344 652.867188 444.976562 C 653.070312 444.671875 653.296875 444.394531 653.554688 444.136719 C 653.8125 443.878906 654.09375 443.648438 654.394531 443.445312 C 654.699219 443.242188 655.019531 443.070312 655.355469 442.933594 C 655.691406 442.792969 656.039062 442.6875 656.394531 442.617188 C 656.75 442.546875 657.113281 442.511719 657.476562 442.511719 L 718.820312 442.511719 C 719.183594 442.511719 719.542969 442.546875 719.898438 442.617188 C 720.257812 442.6875 720.605469 442.792969 720.941406 442.933594 C 721.277344 443.070312 721.59375 443.242188 721.898438 443.445312 C 722.199219 443.648438 722.480469 443.878906 722.738281 444.136719 C 722.996094 444.394531 723.226562 444.671875 723.425781 444.976562 C 723.628906 445.277344 723.800781 445.597656 723.941406 445.9375 C 724.078125 446.273438 724.183594 446.621094 724.253906 446.976562 C 724.324219 447.335938 724.363281 447.695312 724.363281 448.058594 L 724.363281 492.113281 L 768.363281 492.113281 C 768.726562 492.113281 769.089844 492.148438 769.445312 492.21875 C 769.804688 492.289062 770.148438 492.394531 770.484375 492.535156 C 770.820312 492.671875 771.140625 492.84375 771.445312 493.046875 C 771.746094 493.25 772.027344 493.480469 772.285156 493.738281 C 772.542969 493.996094 772.769531 494.273438 772.972656 494.578125 C 773.175781 494.882812 773.347656 495.199219 773.484375 495.539062 C 773.625 495.875 773.730469 496.222656 773.800781 496.578125 C 773.871094 496.9375 773.90625 497.296875 773.90625 497.660156 L 773.90625 559.074219 C 773.90625 559.441406 773.871094 559.800781 773.800781 560.15625 C 773.730469 560.515625 773.625 560.863281 773.484375 561.199219 C 773.347656 561.535156 773.175781 561.855469 772.972656 562.160156 C 772.769531 562.460938 772.542969 562.742188 772.285156 563 C 772.027344 563.257812 771.746094 563.488281 771.445312 563.6875 C 771.140625 563.890625 770.820312 564.0625 770.484375 564.203125 C 770.148438 564.339844 769.804688 564.445312 769.445312 564.519531 C 769.089844 564.589844 768.726562 564.625 768.363281 564.625 L 724.363281 564.625 L 724.363281 608.675781 C 724.363281 609.039062 724.324219 609.402344 724.253906 609.757812 C 724.183594 610.113281 724.078125 610.460938 723.941406 610.796875 C 723.800781 611.136719 723.628906 611.457031 723.425781 611.757812 C 723.226562 612.0625 722.996094 612.339844 722.738281 612.597656 C 722.480469 612.855469 722.199219 613.085938 721.898438 613.289062 C 721.59375 613.492188 721.277344 613.664062 720.941406 613.800781 C 720.601562 613.941406 720.257812 614.046875 719.898438 614.117188 C 719.542969 614.1875 719.183594 614.222656 718.820312 614.222656 Z M 663.019531 603.125 L 713.277344 603.125 L 713.277344 559.074219 C 713.277344 558.710938 713.3125 558.351562 713.382812 557.992188 C 713.453125 557.636719 713.558594 557.289062 713.699219 556.953125 C 713.835938 556.613281 714.007812 556.296875 714.210938 555.992188 C 714.410156 555.6875 714.640625 555.410156 714.898438 555.152344 C 715.15625 554.894531 715.4375 554.664062 715.738281 554.460938 C 716.042969 554.257812 716.359375 554.089844 716.699219 553.949219 C 717.035156 553.808594 717.378906 553.703125 717.738281 553.632812 C 718.09375 553.5625 718.453125 553.527344 718.820312 553.527344 L 762.820312 553.527344 L 762.820312 503.210938 L 718.820312 503.210938 C 718.453125 503.210938 718.09375 503.175781 717.738281 503.105469 C 717.378906 503.03125 717.035156 502.925781 716.695312 502.789062 C 716.359375 502.648438 716.042969 502.476562 715.738281 502.277344 C 715.4375 502.074219 715.15625 501.84375 714.898438 501.585938 C 714.640625 501.328125 714.410156 501.046875 714.210938 500.746094 C 714.007812 500.441406 713.835938 500.121094 713.695312 499.785156 C 713.558594 499.449219 713.453125 499.101562 713.382812 498.742188 C 713.3125 498.386719 713.277344 498.027344 713.277344 497.660156 L 713.277344 453.609375 L 663.019531 453.609375 L 663.019531 497.660156 C 663.019531 498.027344 662.984375 498.386719 662.914062 498.742188 C 662.839844 499.101562 662.734375 499.449219 662.597656 499.785156 C 662.457031 500.121094 662.285156 500.441406 662.085938 500.746094 C 661.882812 501.046875 661.652344 501.328125 661.394531 501.585938 C 661.136719 501.84375 660.859375 502.074219 660.554688 502.277344 C 660.253906 502.476562 659.933594 502.648438 659.597656 502.789062 C 659.261719 502.925781 658.914062 503.03125 658.558594 503.105469 C 658.199219 503.175781 657.839844 503.210938 657.476562 503.210938 L 613.472656 503.210938 L 613.472656 553.527344 L 657.476562 553.527344 C 657.839844 553.527344 658.199219 553.5625 658.558594 553.632812 C 658.914062 553.703125 659.261719 553.808594 659.597656 553.949219 C 659.933594 554.085938 660.253906 554.257812 660.554688 554.460938 C 660.859375 554.664062 661.136719 554.894531 661.394531 555.152344 C 661.652344 555.410156 661.882812 555.6875 662.085938 555.992188 C 662.285156 556.296875 662.457031 556.613281 662.597656 556.953125 C 662.734375 557.289062 662.839844 557.636719 662.910156 557.992188 C 662.984375 558.351562 663.019531 558.710938 663.019531 559.074219 Z M 663.019531 603.125 " fill-opacity="1" fill-rule="nonzero"/><g clip-path="url(#253310f071)"><path fill="#000000" d="M 975.050781 406.328125 C 980.039062 382.332031 973.828125 368.433594 967.742188 361 C 960.425781 352.078125 948.957031 347.1875 935.746094 347.332031 L 877.472656 347.332031 L 877.472656 189.105469 C 877.472656 188.742188 877.4375 188.378906 877.367188 188.023438 C 877.296875 187.664062 877.191406 187.316406 877.050781 186.980469 C 876.910156 186.644531 876.742188 186.324219 876.539062 186.023438 C 876.335938 185.71875 876.105469 185.4375 875.847656 185.179688 C 875.59375 184.921875 875.3125 184.691406 875.007812 184.492188 C 874.707031 184.289062 874.386719 184.117188 874.050781 183.976562 C 873.714844 183.839844 873.367188 183.734375 873.011719 183.660156 C 872.652344 183.589844 872.292969 183.554688 871.929688 183.554688 L 834.296875 183.554688 L 834.296875 151.679688 C 834.296875 151.316406 834.261719 150.957031 834.191406 150.597656 C 834.117188 150.242188 834.011719 149.894531 833.875 149.558594 C 833.734375 149.222656 833.5625 148.902344 833.363281 148.597656 C 833.160156 148.296875 832.929688 148.015625 832.671875 147.757812 C 832.414062 147.5 832.136719 147.269531 831.832031 147.066406 C 831.53125 146.863281 831.210938 146.695312 830.875 146.554688 C 830.539062 146.414062 830.191406 146.308594 829.835938 146.238281 C 829.476562 146.167969 829.117188 146.132812 828.753906 146.132812 L 543.1875 146.132812 C 542.824219 146.132812 542.464844 146.167969 542.109375 146.238281 C 541.75 146.308594 541.402344 146.414062 541.066406 146.554688 C 540.730469 146.695312 540.414062 146.863281 540.109375 147.066406 C 539.808594 147.269531 539.527344 147.5 539.269531 147.757812 C 539.011719 148.015625 538.78125 148.296875 538.582031 148.597656 C 538.378906 148.902344 538.207031 149.222656 538.066406 149.558594 C 537.929688 149.894531 537.824219 150.242188 537.753906 150.597656 C 537.683594 150.957031 537.648438 151.316406 537.648438 151.679688 L 537.648438 364.101562 L 489.777344 364.101562 C 473.125 364.101562 459.578125 377.300781 459.578125 393.523438 L 459.578125 634.289062 C 459.578125 650.675781 473.261719 664.007812 490.085938 664.007812 L 879.699219 664.007812 C 881.210938 664.019531 882.714844 663.914062 884.214844 663.699219 C 885.710938 663.484375 887.183594 663.160156 888.632812 662.726562 C 890.082031 662.289062 891.492188 661.75 892.863281 661.109375 C 894.230469 660.464844 895.546875 659.722656 896.804688 658.882812 C 898.0625 658.042969 899.253906 657.113281 900.375 656.097656 C 901.496094 655.082031 902.539062 653.988281 903.496094 652.816406 C 904.457031 651.644531 905.324219 650.410156 906.097656 649.109375 C 906.875 647.808594 907.550781 646.457031 908.125 645.054688 C 908.289062 644.765625 908.40625 644.457031 908.480469 644.132812 C 908.964844 642.785156 909.351562 641.410156 909.632812 640.007812 Z M 935.792969 358.429688 C 942.855469 358.371094 952.574219 359.992188 959.167969 368.039062 C 965.699219 376.015625 967.4375 388.472656 964.28125 403.71875 L 910.207031 599.679688 L 910.207031 427.082031 C 910.207031 410.695312 896.519531 397.363281 879.699219 397.363281 L 877.472656 397.363281 L 877.472656 358.429688 Z M 866.386719 194.652344 L 866.386719 397.363281 L 834.296875 397.363281 L 834.296875 194.652344 Z M 548.730469 157.230469 L 823.210938 157.230469 L 823.210938 397.363281 L 596.652344 397.363281 L 586.003906 377.976562 C 585.417969 376.921875 584.765625 375.914062 584.042969 374.945312 C 583.320312 373.980469 582.539062 373.070312 581.695312 372.207031 C 580.851562 371.347656 579.957031 370.546875 579.003906 369.804688 C 578.054688 369.066406 577.058594 368.390625 576.019531 367.785156 C 574.980469 367.175781 573.902344 366.640625 572.792969 366.179688 C 571.679688 365.714844 570.542969 365.328125 569.378906 365.015625 C 568.214844 364.707031 567.035156 364.472656 565.839844 364.320312 C 564.648438 364.167969 563.445312 364.09375 562.242188 364.101562 L 548.730469 364.101562 Z M 899.121094 634.289062 C 899.121094 644.558594 890.40625 652.910156 879.699219 652.910156 L 490.085938 652.910156 C 479.375 652.910156 470.664062 644.558594 470.664062 634.289062 L 470.664062 393.523438 C 470.664062 383.417969 479.238281 375.199219 489.777344 375.199219 L 562.242188 375.199219 C 563.667969 375.183594 565.074219 375.359375 566.453125 375.722656 C 567.832031 376.085938 569.140625 376.625 570.375 377.335938 C 571.609375 378.050781 572.730469 378.917969 573.734375 379.933594 C 574.738281 380.945312 575.589844 382.078125 576.289062 383.320312 L 588.515625 405.585938 C 588.753906 406.023438 589.046875 406.417969 589.390625 406.773438 C 589.738281 407.132812 590.125 407.4375 590.550781 407.691406 C 590.976562 407.941406 591.429688 408.136719 591.910156 408.265625 C 592.386719 408.398438 592.875 408.460938 593.371094 408.460938 L 879.699219 408.460938 C 890.40625 408.460938 899.121094 416.816406 899.121094 427.082031 Z M 684.058594 300.195312 L 792.222656 300.195312 C 792.585938 300.195312 792.945312 300.160156 793.304688 300.089844 C 793.660156 300.019531 794.007812 299.914062 794.34375 299.773438 C 794.679688 299.636719 795 299.464844 795.300781 299.261719 C 795.605469 299.058594 795.882812 298.828125 796.140625 298.570312 C 796.398438 298.3125 796.628906 298.035156 796.832031 297.730469 C 797.03125 297.425781 797.203125 297.109375 797.34375 296.769531 C 797.480469 296.433594 797.585938 296.085938 797.660156 295.730469 C 797.730469 295.371094 797.765625 295.011719 797.765625 294.648438 L 797.765625 186.363281 C 797.765625 186 797.730469 185.636719 797.660156 185.28125 C 797.585938 184.921875 797.480469 184.574219 797.34375 184.238281 C 797.203125 183.902344 797.03125 183.582031 796.832031 183.28125 C 796.628906 182.976562 796.398438 182.695312 796.140625 182.4375 C 795.882812 182.179688 795.605469 181.949219 795.300781 181.75 C 795 181.546875 794.679688 181.375 794.34375 181.234375 C 794.007812 181.097656 793.660156 180.992188 793.304688 180.917969 C 792.945312 180.847656 792.585938 180.8125 792.222656 180.8125 L 684.058594 180.8125 C 683.695312 180.8125 683.335938 180.847656 682.976562 180.917969 C 682.621094 180.992188 682.273438 181.097656 681.9375 181.234375 C 681.601562 181.375 681.28125 181.546875 680.980469 181.75 C 680.675781 181.949219 680.398438 182.179688 680.140625 182.4375 C 679.882812 182.695312 679.652344 182.976562 679.449219 183.28125 C 679.246094 183.582031 679.078125 183.902344 678.9375 184.238281 C 678.796875 184.574219 678.695312 184.921875 678.621094 185.28125 C 678.550781 185.636719 678.515625 186 678.515625 186.363281 L 678.515625 294.648438 C 678.515625 295.011719 678.550781 295.371094 678.621094 295.730469 C 678.695312 296.085938 678.796875 296.433594 678.9375 296.769531 C 679.078125 297.109375 679.246094 297.425781 679.449219 297.730469 C 679.652344 298.035156 679.882812 298.3125 680.140625 298.570312 C 680.398438 298.828125 680.675781 299.058594 680.980469 299.261719 C 681.28125 299.464844 681.601562 299.636719 681.9375 299.773438 C 682.273438 299.914062 682.621094 300.019531 682.976562 300.089844 C 683.335938 300.160156 683.695312 300.195312 684.058594 300.195312 Z M 711.84375 289.097656 L 711.84375 282.925781 C 711.855469 281.78125 711.941406 280.640625 712.105469 279.507812 C 712.269531 278.375 712.507812 277.257812 712.824219 276.15625 C 713.136719 275.058594 713.527344 273.984375 713.988281 272.933594 C 714.449219 271.886719 714.980469 270.875 715.578125 269.902344 C 716.179688 268.925781 716.839844 267.996094 717.566406 267.109375 C 718.292969 266.226562 719.074219 265.394531 719.910156 264.613281 C 720.75 263.835938 721.636719 263.117188 722.574219 262.460938 C 723.507812 261.800781 724.484375 261.210938 725.503906 260.683594 C 725.703125 260.578125 725.898438 260.460938 726.085938 260.328125 C 726.273438 260.195312 726.453125 260.054688 726.621094 259.902344 C 726.792969 259.746094 726.953125 259.585938 727.101562 259.410156 C 727.25 259.238281 727.390625 259.058594 727.515625 258.867188 C 727.644531 258.675781 727.757812 258.480469 727.863281 258.273438 C 727.964844 258.070312 728.054688 257.859375 728.132812 257.644531 C 728.207031 257.429688 728.273438 257.210938 728.320312 256.984375 C 728.371094 256.761719 728.40625 256.535156 728.429688 256.308594 C 728.449219 256.082031 728.457031 255.851562 728.453125 255.625 C 728.445312 255.394531 728.425781 255.167969 728.390625 254.941406 C 728.355469 254.714844 728.304688 254.492188 728.242188 254.269531 C 728.183594 254.050781 728.105469 253.835938 728.015625 253.625 C 727.929688 253.414062 727.828125 253.207031 727.710938 253.011719 C 727.597656 252.8125 727.472656 252.621094 727.335938 252.4375 C 727.195312 252.253906 727.046875 252.082031 726.890625 251.917969 C 726.730469 251.753906 726.5625 251.601562 726.382812 251.457031 C 725.101562 250.40625 723.957031 249.226562 722.941406 247.917969 C 721.929688 246.609375 721.074219 245.203125 720.375 243.699219 C 719.679688 242.199219 719.15625 240.636719 718.8125 239.015625 C 718.464844 237.398438 718.304688 235.757812 718.328125 234.101562 C 718.328125 222.210938 727.214844 212.535156 738.140625 212.535156 C 749.066406 212.535156 757.953125 222.210938 757.953125 234.101562 C 757.976562 235.757812 757.816406 237.398438 757.46875 239.015625 C 757.125 240.636719 756.601562 242.199219 755.90625 243.699219 C 755.207031 245.203125 754.351562 246.609375 753.339844 247.917969 C 752.324219 249.226562 751.179688 250.40625 749.898438 251.457031 C 749.722656 251.601562 749.550781 251.753906 749.394531 251.917969 C 749.234375 252.082031 749.085938 252.257812 748.945312 252.4375 C 748.808594 252.621094 748.683594 252.8125 748.570312 253.011719 C 748.453125 253.207031 748.351562 253.414062 748.265625 253.625 C 748.175781 253.835938 748.101562 254.050781 748.039062 254.269531 C 747.976562 254.492188 747.925781 254.714844 747.890625 254.941406 C 747.859375 255.167969 747.835938 255.394531 747.832031 255.625 C 747.824219 255.851562 747.832031 256.082031 747.851562 256.308594 C 747.875 256.539062 747.910156 256.761719 747.960938 256.988281 C 748.011719 257.210938 748.074219 257.429688 748.148438 257.644531 C 748.226562 257.859375 748.316406 258.070312 748.417969 258.277344 C 748.523438 258.480469 748.636719 258.679688 748.765625 258.867188 C 748.890625 259.058594 749.03125 259.242188 749.179688 259.414062 C 749.328125 259.585938 749.488281 259.75 749.660156 259.902344 C 749.828125 260.054688 750.007812 260.199219 750.195312 260.328125 C 750.382812 260.460938 750.578125 260.582031 750.78125 260.6875 C 751.796875 261.210938 752.773438 261.804688 753.707031 262.460938 C 754.644531 263.117188 755.53125 263.835938 756.371094 264.617188 C 757.207031 265.394531 757.992188 266.226562 758.714844 267.109375 C 759.441406 267.996094 760.105469 268.925781 760.703125 269.902344 C 761.300781 270.878906 761.832031 271.886719 762.292969 272.9375 C 762.753906 273.984375 763.144531 275.058594 763.460938 276.15625 C 763.773438 277.257812 764.015625 278.375 764.179688 279.507812 C 764.34375 280.640625 764.429688 281.78125 764.4375 282.925781 L 764.4375 289.097656 Z M 689.601562 191.910156 L 786.679688 191.910156 L 786.679688 289.097656 L 775.523438 289.097656 L 775.523438 282.925781 C 775.515625 280.230469 775.210938 277.570312 774.609375 274.941406 C 774.003906 272.316406 773.117188 269.789062 771.949219 267.359375 C 770.78125 264.933594 769.355469 262.664062 767.679688 260.554688 C 766.003906 258.449219 764.113281 256.550781 762.011719 254.867188 C 764.3125 251.898438 766.0625 248.632812 767.269531 245.074219 C 768.472656 241.515625 769.0625 237.859375 769.039062 234.101562 C 769.039062 216.089844 755.179688 201.4375 738.140625 201.4375 C 721.101562 201.4375 707.242188 216.089844 707.242188 234.101562 C 707.21875 237.859375 707.808594 241.515625 709.011719 245.074219 C 710.21875 248.632812 711.96875 251.898438 714.269531 254.867188 C 712.167969 256.550781 710.277344 258.449219 708.601562 260.554688 C 706.925781 262.664062 705.503906 264.933594 704.332031 267.359375 C 703.164062 269.789062 702.277344 272.316406 701.675781 274.941406 C 701.070312 277.570312 700.765625 280.230469 700.757812 282.925781 L 700.757812 289.097656 L 689.601562 289.097656 Z M 577.808594 223.601562 L 653.425781 223.601562 C 653.789062 223.601562 654.152344 223.566406 654.507812 223.496094 C 654.867188 223.425781 655.210938 223.320312 655.546875 223.179688 C 655.882812 223.042969 656.203125 222.871094 656.507812 222.667969 C 656.808594 222.464844 657.089844 222.234375 657.347656 221.976562 C 657.605469 221.71875 657.832031 221.441406 658.035156 221.136719 C 658.238281 220.835938 658.410156 220.515625 658.546875 220.179688 C 658.6875 219.839844 658.792969 219.496094 658.863281 219.136719 C 658.933594 218.78125 658.96875 218.417969 658.96875 218.054688 L 658.96875 186.363281 C 658.96875 186 658.933594 185.636719 658.863281 185.28125 C 658.792969 184.921875 658.6875 184.574219 658.546875 184.238281 C 658.410156 183.902344 658.238281 183.582031 658.035156 183.28125 C 657.832031 182.976562 657.605469 182.695312 657.347656 182.4375 C 657.089844 182.179688 656.808594 181.949219 656.507812 181.75 C 656.203125 181.546875 655.882812 181.375 655.546875 181.234375 C 655.210938 181.097656 654.867188 180.992188 654.507812 180.917969 C 654.152344 180.847656 653.789062 180.8125 653.425781 180.8125 L 577.808594 180.8125 C 577.445312 180.8125 577.082031 180.847656 576.726562 180.917969 C 576.371094 180.992188 576.023438 181.097656 575.6875 181.234375 C 575.351562 181.375 575.03125 181.546875 574.726562 181.75 C 574.425781 181.949219 574.144531 182.179688 573.886719 182.4375 C 573.628906 182.695312 573.402344 182.976562 573.199219 183.28125 C 572.996094 183.582031 572.824219 183.902344 572.6875 184.238281 C 572.546875 184.574219 572.441406 184.921875 572.371094 185.28125 C 572.300781 185.636719 572.265625 186 572.265625 186.363281 L 572.265625 218.054688 C 572.265625 218.417969 572.300781 218.78125 572.371094 219.136719 C 572.441406 219.496094 572.546875 219.839844 572.6875 220.179688 C 572.824219 220.515625 572.996094 220.835938 573.199219 221.136719 C 573.402344 221.441406 573.628906 221.71875 573.886719 221.976562 C 574.144531 222.234375 574.425781 222.464844 574.726562 222.667969 C 575.03125 222.871094 575.351562 223.042969 575.6875 223.179688 C 576.023438 223.320312 576.371094 223.425781 576.726562 223.496094 C 577.082031 223.566406 577.445312 223.601562 577.808594 223.601562 Z M 583.351562 191.910156 L 647.882812 191.910156 L 647.882812 212.503906 L 583.351562 212.503906 Z M 572.265625 250.816406 C 572.265625 250.453125 572.300781 250.089844 572.371094 249.734375 C 572.441406 249.375 572.546875 249.03125 572.6875 248.691406 C 572.824219 248.355469 572.996094 248.035156 573.199219 247.734375 C 573.402344 247.429688 573.628906 247.148438 573.886719 246.890625 C 574.144531 246.636719 574.425781 246.40625 574.726562 246.203125 C 575.03125 246 575.351562 245.828125 575.6875 245.691406 C 576.023438 245.550781 576.371094 245.445312 576.726562 245.375 C 577.082031 245.304688 577.445312 245.265625 577.808594 245.265625 L 650.179688 245.265625 C 650.542969 245.265625 650.902344 245.304688 651.261719 245.375 C 651.617188 245.445312 651.964844 245.550781 652.300781 245.691406 C 652.636719 245.828125 652.957031 246 653.257812 246.203125 C 653.558594 246.40625 653.839844 246.636719 654.097656 246.894531 C 654.355469 247.152344 654.585938 247.429688 654.789062 247.734375 C 654.988281 248.035156 655.160156 248.355469 655.300781 248.691406 C 655.4375 249.03125 655.542969 249.375 655.613281 249.734375 C 655.6875 250.089844 655.722656 250.453125 655.722656 250.816406 C 655.722656 251.179688 655.6875 251.542969 655.613281 251.898438 C 655.542969 252.257812 655.4375 252.605469 655.300781 252.941406 C 655.160156 253.277344 654.988281 253.597656 654.789062 253.898438 C 654.585938 254.203125 654.355469 254.484375 654.097656 254.742188 C 653.839844 255 653.558594 255.226562 653.257812 255.429688 C 652.957031 255.632812 652.636719 255.804688 652.300781 255.945312 C 651.964844 256.082031 651.617188 256.1875 651.261719 256.257812 C 650.902344 256.332031 650.542969 256.367188 650.179688 256.367188 L 577.808594 256.367188 C 577.445312 256.367188 577.082031 256.332031 576.726562 256.257812 C 576.371094 256.1875 576.023438 256.082031 575.6875 255.945312 C 575.351562 255.804688 575.03125 255.632812 574.726562 255.429688 C 574.425781 255.230469 574.144531 255 573.886719 254.742188 C 573.628906 254.484375 573.402344 254.203125 573.199219 253.898438 C 572.996094 253.597656 572.824219 253.277344 572.6875 252.941406 C 572.546875 252.605469 572.441406 252.257812 572.371094 251.898438 C 572.300781 251.542969 572.265625 251.179688 572.265625 250.816406 Z M 572.265625 276.902344 C 572.265625 276.535156 572.300781 276.175781 572.371094 275.820312 C 572.441406 275.460938 572.546875 275.113281 572.6875 274.777344 C 572.824219 274.441406 572.996094 274.121094 573.199219 273.816406 C 573.402344 273.515625 573.628906 273.234375 573.886719 272.976562 C 574.144531 272.71875 574.425781 272.488281 574.726562 272.285156 C 575.03125 272.085938 575.351562 271.914062 575.6875 271.773438 C 576.023438 271.632812 576.371094 271.53125 576.726562 271.457031 C 577.082031 271.386719 577.445312 271.351562 577.808594 271.351562 L 650.179688 271.351562 C 650.542969 271.351562 650.902344 271.386719 651.261719 271.457031 C 651.617188 271.53125 651.964844 271.636719 652.300781 271.773438 C 652.636719 271.914062 652.957031 272.085938 653.257812 272.285156 C 653.558594 272.488281 653.839844 272.71875 654.097656 272.976562 C 654.355469 273.234375 654.585938 273.515625 654.789062 273.816406 C 654.988281 274.121094 655.160156 274.441406 655.300781 274.777344 C 655.4375 275.113281 655.542969 275.460938 655.613281 275.820312 C 655.6875 276.175781 655.722656 276.535156 655.722656 276.902344 C 655.722656 277.265625 655.6875 277.625 655.613281 277.984375 C 655.542969 278.339844 655.4375 278.6875 655.300781 279.023438 C 655.160156 279.363281 654.988281 279.679688 654.789062 279.984375 C 654.585938 280.285156 654.355469 280.566406 654.097656 280.824219 C 653.839844 281.082031 653.558594 281.3125 653.257812 281.515625 C 652.957031 281.71875 652.636719 281.886719 652.300781 282.027344 C 651.964844 282.167969 651.617188 282.273438 651.261719 282.34375 C 650.902344 282.414062 650.542969 282.449219 650.179688 282.449219 L 577.808594 282.449219 C 577.445312 282.449219 577.082031 282.414062 576.726562 282.34375 C 576.371094 282.273438 576.023438 282.167969 575.6875 282.027344 C 575.351562 281.890625 575.03125 281.71875 574.726562 281.515625 C 574.425781 281.3125 574.144531 281.082031 573.886719 280.824219 C 573.628906 280.566406 573.402344 280.289062 573.199219 279.984375 C 572.996094 279.679688 572.824219 279.363281 572.6875 279.023438 C 572.546875 278.6875 572.441406 278.339844 572.371094 277.984375 C 572.300781 277.625 572.265625 277.265625 572.265625 276.902344 Z M 572.265625 320.941406 C 572.265625 320.578125 572.300781 320.214844 572.371094 319.859375 C 572.441406 319.5 572.546875 319.152344 572.6875 318.816406 C 572.824219 318.480469 572.996094 318.160156 573.199219 317.859375 C 573.402344 317.554688 573.628906 317.273438 573.886719 317.015625 C 574.144531 316.757812 574.425781 316.53125 574.726562 316.328125 C 575.03125 316.125 575.351562 315.953125 575.6875 315.8125 C 576.023438 315.675781 576.371094 315.570312 576.726562 315.5 C 577.082031 315.425781 577.445312 315.390625 577.808594 315.390625 L 792.222656 315.390625 C 792.585938 315.390625 792.945312 315.425781 793.304688 315.5 C 793.660156 315.570312 794.007812 315.675781 794.34375 315.816406 C 794.679688 315.953125 795 316.125 795.300781 316.328125 C 795.605469 316.53125 795.882812 316.757812 796.140625 317.015625 C 796.398438 317.273438 796.628906 317.554688 796.832031 317.859375 C 797.03125 318.160156 797.203125 318.480469 797.34375 318.816406 C 797.480469 319.15625 797.585938 319.5 797.660156 319.859375 C 797.730469 320.214844 797.765625 320.578125 797.765625 320.941406 C 797.765625 321.304688 797.730469 321.667969 797.660156 322.023438 C 797.585938 322.382812 797.480469 322.726562 797.34375 323.066406 C 797.203125 323.402344 797.03125 323.722656 796.832031 324.023438 C 796.628906 324.328125 796.398438 324.609375 796.140625 324.863281 C 795.882812 325.121094 795.605469 325.351562 795.300781 325.554688 C 795 325.757812 794.679688 325.929688 794.34375 326.066406 C 794.007812 326.207031 793.660156 326.3125 793.304688 326.382812 C 792.945312 326.453125 792.585938 326.492188 792.222656 326.492188 L 577.808594 326.492188 C 577.445312 326.492188 577.082031 326.457031 576.726562 326.382812 C 576.371094 326.3125 576.023438 326.207031 575.6875 326.070312 C 575.351562 325.929688 575.03125 325.757812 574.726562 325.554688 C 574.425781 325.351562 574.144531 325.125 573.886719 324.867188 C 573.628906 324.609375 573.402344 324.328125 573.199219 324.023438 C 572.996094 323.722656 572.824219 323.402344 572.6875 323.066406 C 572.546875 322.726562 572.441406 322.382812 572.371094 322.023438 C 572.300781 321.667969 572.265625 321.304688 572.265625 320.941406 Z M 572.265625 347.027344 C 572.265625 346.660156 572.300781 346.300781 572.371094 345.941406 C 572.441406 345.585938 572.546875 345.238281 572.6875 344.902344 C 572.824219 344.566406 572.996094 344.246094 573.199219 343.941406 C 573.402344 343.640625 573.628906 343.359375 573.886719 343.101562 C 574.144531 342.84375 574.425781 342.613281 574.726562 342.410156 C 575.03125 342.207031 575.351562 342.039062 575.6875 341.898438 C 576.023438 341.757812 576.371094 341.652344 576.726562 341.582031 C 577.082031 341.511719 577.445312 341.476562 577.808594 341.476562 L 792.222656 341.476562 C 792.585938 341.476562 792.945312 341.511719 793.304688 341.582031 C 793.664062 341.652344 794.007812 341.757812 794.347656 341.894531 C 794.683594 342.035156 795.003906 342.207031 795.304688 342.40625 C 795.609375 342.609375 795.890625 342.839844 796.148438 343.097656 C 796.40625 343.355469 796.636719 343.636719 796.839844 343.9375 C 797.042969 344.242188 797.214844 344.5625 797.351562 344.898438 C 797.492188 345.238281 797.597656 345.585938 797.667969 345.941406 C 797.738281 346.300781 797.777344 346.660156 797.777344 347.027344 C 797.777344 347.390625 797.738281 347.75 797.667969 348.109375 C 797.597656 348.46875 797.492188 348.816406 797.351562 349.152344 C 797.214844 349.488281 797.042969 349.808594 796.839844 350.113281 C 796.636719 350.414062 796.40625 350.695312 796.148438 350.953125 C 795.890625 351.210938 795.609375 351.441406 795.304688 351.644531 C 795.003906 351.847656 794.683594 352.015625 794.347656 352.15625 C 794.007812 352.292969 793.664062 352.398438 793.304688 352.46875 C 792.945312 352.539062 792.585938 352.574219 792.222656 352.574219 L 577.808594 352.574219 C 577.445312 352.574219 577.082031 352.539062 576.726562 352.46875 C 576.371094 352.398438 576.023438 352.292969 575.6875 352.152344 C 575.351562 352.011719 575.03125 351.84375 574.726562 351.640625 C 574.425781 351.4375 574.144531 351.207031 573.886719 350.949219 C 573.628906 350.691406 573.402344 350.410156 573.199219 350.109375 C 572.996094 349.804688 572.824219 349.484375 572.6875 349.148438 C 572.546875 348.8125 572.441406 348.464844 572.371094 348.109375 C 572.300781 347.75 572.265625 347.390625 572.265625 347.027344 Z M 797.765625 374.316406 C 797.765625 374.679688 797.730469 375.039062 797.660156 375.398438 C 797.585938 375.753906 797.480469 376.101562 797.34375 376.4375 C 797.203125 376.777344 797.03125 377.09375 796.832031 377.398438 C 796.628906 377.703125 796.398438 377.980469 796.140625 378.238281 C 795.882812 378.496094 795.605469 378.726562 795.300781 378.929688 C 795 379.132812 794.679688 379.300781 794.34375 379.441406 C 794.007812 379.582031 793.660156 379.6875 793.304688 379.757812 C 792.945312 379.828125 792.585938 379.863281 792.222656 379.863281 L 607.929688 379.863281 C 607.566406 379.863281 607.207031 379.828125 606.847656 379.757812 C 606.492188 379.6875 606.144531 379.582031 605.808594 379.441406 C 605.472656 379.300781 605.152344 379.132812 604.851562 378.929688 C 604.546875 378.726562 604.265625 378.496094 604.011719 378.238281 C 603.753906 377.980469 603.523438 377.699219 603.320312 377.398438 C 603.117188 377.09375 602.949219 376.773438 602.808594 376.4375 C 602.667969 376.101562 602.5625 375.753906 602.492188 375.398438 C 602.421875 375.039062 602.386719 374.679688 602.386719 374.316406 C 602.386719 373.949219 602.421875 373.589844 602.492188 373.230469 C 602.5625 372.875 602.667969 372.527344 602.808594 372.191406 C 602.949219 371.855469 603.117188 371.535156 603.320312 371.230469 C 603.523438 370.929688 603.753906 370.648438 604.011719 370.390625 C 604.265625 370.132812 604.546875 369.902344 604.851562 369.699219 C 605.152344 369.5 605.472656 369.328125 605.808594 369.1875 C 606.144531 369.046875 606.492188 368.945312 606.847656 368.871094 C 607.207031 368.800781 607.566406 368.765625 607.929688 368.765625 L 792.222656 368.765625 C 792.585938 368.765625 792.945312 368.800781 793.304688 368.871094 C 793.660156 368.941406 794.007812 369.046875 794.34375 369.1875 C 794.679688 369.328125 795 369.5 795.300781 369.699219 C 795.605469 369.902344 795.882812 370.132812 796.140625 370.390625 C 796.398438 370.648438 796.628906 370.929688 796.832031 371.230469 C 797.03125 371.535156 797.203125 371.855469 797.34375 372.191406 C 797.480469 372.527344 797.585938 372.875 797.660156 373.230469 C 797.730469 373.589844 797.765625 373.949219 797.765625 374.316406 Z M 797.765625 374.316406 " fill-opacity="1" fill-rule="nonzero"/></g></svg>