<svg xmlns="http://www.w3.org/2000/svg" xmlns:xlink="http://www.w3.org/1999/xlink" width="1920" zoomAndPan="magnify" viewBox="0 0 1440 809.999993" height="1080" preserveAspectRatio="xMidYMid meet" version="1.0"><defs><clipPath id="d74b5f8541"><path d="M 360.222656 58.460938 L 1079.472656 58.460938 L 1079.472656 777.710938 L 360.222656 777.710938 Z M 360.222656 58.460938 " clip-rule="nonzero"/></clipPath></defs><rect x="-144" width="1728" fill="#ffffff" y="-80.999999" height="971.999992" fill-opacity="1"/><rect x="-144" width="1728" fill="#ffffff" y="-80.999999" height="971.999992" fill-opacity="1"/><path fill="#329f83" d="M 683.839844 342.300781 C 683.039062 342.300781 682.1875 342.09375 681.445312 341.648438 C 624.488281 307.871094 626.511719 264.191406 626.621094 262.351562 C 626.789062 259.769531 628.980469 257.785156 631.5625 257.914062 L 662.984375 259.511719 C 665.582031 259.640625 667.589844 261.867188 667.460938 264.46875 C 667.441406 264.582031 667.164062 271.636719 673.476562 281.332031 C 679.476562 290.578125 692.734375 304.136719 721.890625 316.1875 C 724.304688 317.191406 725.4375 319.941406 724.453125 322.355469 C 723.449219 324.769531 720.703125 325.902344 718.289062 324.917969 C 692.714844 314.332031 674.832031 301.183594 665.15625 285.824219 C 660.679688 278.730469 658.992188 272.675781 658.359375 268.722656 L 636.261719 267.589844 C 636.6875 271.75 637.894531 278.339844 641.238281 286.179688 C 646.640625 298.789062 658.84375 317.246094 686.273438 333.496094 C 688.5 334.835938 689.261719 337.710938 687.925781 339.960938 C 687.035156 341.484375 685.453125 342.300781 683.839844 342.300781 Z M 720.089844 487.859375 C 718.230469 487.859375 716.488281 486.761719 715.726562 484.941406 C 714.722656 482.527344 715.875 479.761719 718.269531 478.777344 C 737.507812 470.792969 752.644531 460.058594 762.003906 447.761719 C 768.96875 438.644531 772.644531 428.617188 772.644531 418.757812 C 772.644531 408.894531 768.96875 398.886719 762.003906 389.75 C 752.625 377.453125 737.492188 366.71875 718.269531 358.734375 C 715.855469 357.730469 714.722656 354.984375 715.726562 352.570312 C 716.726562 350.15625 719.476562 349.023438 721.871094 350.023438 C 742.652344 358.640625 759.105469 370.398438 769.507812 384.027344 C 777.734375 394.816406 782.078125 406.816406 782.078125 418.757812 C 782.078125 430.695312 777.714844 442.695312 769.507812 453.484375 C 759.105469 467.097656 742.652344 478.871094 721.871094 487.488281 C 721.316406 487.746094 720.703125 487.859375 720.089844 487.859375 Z M 756.339844 504.683594 C 757.175781 504.683594 758.03125 504.460938 758.773438 503.996094 C 773.445312 495.027344 785.457031 484.476562 794.523438 472.59375 C 807.019531 456.214844 813.632812 437.585938 813.632812 418.773438 C 813.632812 399.945312 807.019531 381.335938 794.523438 364.957031 C 785.457031 353.089844 773.425781 342.523438 758.773438 333.550781 C 756.542969 332.195312 753.648438 332.902344 752.292969 335.113281 C 750.9375 337.339844 751.640625 340.238281 753.851562 341.613281 C 767.5 349.949219 778.679688 359.738281 787.019531 370.675781 C 798.253906 385.402344 804.195312 402.042969 804.179688 418.773438 C 804.179688 435.507812 798.234375 452.144531 787.019531 466.871094 C 778.679688 477.8125 767.5 487.578125 753.851562 495.9375 C 751.621094 497.292969 750.9375 500.207031 752.292969 502.4375 C 753.203125 503.882812 754.742188 504.683594 756.339844 504.683594 Z M 631.320312 579.636719 C 628.832031 579.636719 626.753906 577.683594 626.621094 575.160156 C 626.511719 573.359375 624.503906 529.699219 681.445312 495.917969 C 683.691406 494.582031 686.570312 495.34375 687.90625 497.570312 C 689.242188 499.800781 688.480469 502.695312 686.253906 504.035156 C 658.824219 520.300781 646.640625 538.761719 641.238281 551.351562 C 637.875 559.1875 636.667969 565.800781 636.242188 569.941406 L 658.339844 568.808594 C 658.972656 564.851562 660.644531 558.800781 665.121094 551.703125 C 674.796875 536.347656 692.679688 523.21875 718.25 512.613281 C 720.664062 511.609375 723.433594 512.761719 724.417969 515.175781 C 725.417969 517.589844 724.269531 520.355469 721.855469 521.339844 C 692.699219 533.414062 679.4375 546.96875 673.4375 556.199219 C 667.144531 565.910156 667.421875 572.949219 667.421875 573.003906 C 667.496094 574.25 667.050781 575.511719 666.214844 576.441406 C 665.378906 577.371094 664.191406 577.945312 662.945312 578.019531 L 631.523438 579.617188 C 631.488281 579.636719 631.414062 579.636719 631.320312 579.636719 Z M 631.320312 579.636719 " fill-opacity="1" fill-rule="evenodd"/><path fill="#329f83" d="M 781.820312 568.828125 L 803.957031 569.960938 C 803.433594 564.667969 801.597656 555.417969 795.5625 544.460938 C 786.816406 528.566406 767.183594 506.167969 723.394531 489.546875 C 700.144531 480.726562 681.890625 468.265625 670.636719 453.519531 C 662.410156 442.730469 658.0625 430.734375 658.0625 418.792969 C 658.0625 406.851562 662.425781 394.855469 670.636719 384.066406 C 681.890625 369.320312 700.144531 356.859375 723.394531 348.039062 C 767.183594 331.4375 786.816406 309.003906 795.5625 293.125 C 801.617188 282.148438 803.433594 272.898438 803.957031 267.625 L 781.800781 268.757812 C 781.152344 272.917969 779.292969 279.4375 774.242188 287.070312 C 763.546875 303.171875 743.824219 316.726562 715.652344 327.425781 C 688.480469 337.710938 666.882812 352.679688 653.121094 370.695312 C 641.886719 385.421875 635.964844 402.0625 635.964844 418.792969 C 635.964844 435.523438 641.90625 452.164062 653.121094 466.890625 C 666.882812 484.90625 688.480469 499.875 715.652344 510.160156 C 743.839844 520.839844 763.546875 534.433594 774.242188 550.515625 C 779.3125 558.113281 781.152344 564.648438 781.820312 568.828125 Z M 808.839844 579.636719 C 808.746094 579.636719 808.671875 579.636719 808.597656 579.636719 L 777.175781 578.019531 C 774.578125 577.890625 772.589844 575.679688 772.699219 573.078125 C 772.71875 572.949219 773.015625 565.429688 766.015625 555.175781 C 759.347656 545.410156 744.621094 531.222656 712.289062 518.945312 C 683.484375 508.027344 660.441406 491.980469 645.621094 472.574219 C 633.121094 456.195312 626.511719 437.566406 626.511719 418.753906 C 626.511719 399.925781 633.121094 381.316406 645.621094 364.9375 C 660.441406 345.53125 683.503906 329.484375 712.289062 318.566406 C 744.621094 306.308594 759.347656 292.101562 766.015625 282.335938 C 772.996094 272.101562 772.699219 264.582031 772.699219 264.507812 C 772.644531 263.242188 773.070312 262 773.90625 261.070312 C 774.761719 260.140625 775.933594 259.546875 777.175781 259.492188 L 808.597656 257.875 C 809.84375 257.820312 811.066406 258.246094 811.996094 259.082031 C 812.925781 259.917969 813.480469 261.070312 813.539062 262.296875 C 813.6875 264.839844 816.121094 322.875 726.71875 356.785156 C 705.121094 364.972656 688.316406 376.359375 678.121094 389.730469 C 671.15625 398.847656 667.476562 408.875 667.476562 418.738281 C 667.476562 428.597656 671.15625 438.625 678.121094 447.746094 C 688.316406 461.097656 705.101562 472.480469 726.71875 480.691406 C 816.195312 514.617188 813.6875 572.726562 813.539062 575.179688 C 813.40625 577.703125 811.308594 579.636719 808.839844 579.636719 Z M 808.839844 579.636719 " fill-opacity="1" fill-rule="evenodd"/><path fill="#329f83" d="M 766.8125 293.902344 L 673.308594 293.902344 C 670.710938 293.902344 668.59375 291.804688 668.59375 289.1875 C 668.59375 286.585938 670.710938 284.46875 673.308594 284.46875 L 766.8125 284.46875 C 769.414062 284.46875 771.53125 286.585938 771.53125 289.1875 C 771.53125 291.785156 769.414062 293.902344 766.8125 293.902344 Z M 766.8125 293.902344 " fill-opacity="1" fill-rule="evenodd"/><path fill="#329f83" d="M 766.8125 553.097656 L 673.308594 553.097656 C 670.710938 553.097656 668.59375 551 668.59375 548.378906 C 668.59375 545.78125 670.710938 543.664062 673.308594 543.664062 L 766.8125 543.664062 C 769.414062 543.664062 771.53125 545.78125 771.53125 548.378906 C 771.53125 550.980469 769.414062 553.097656 766.8125 553.097656 Z M 766.8125 553.097656 " fill-opacity="1" fill-rule="evenodd"/><path fill="#329f83" d="M 771.121094 399.851562 L 669.132812 399.851562 C 666.53125 399.851562 664.414062 397.753906 664.414062 395.132812 C 664.414062 392.535156 666.53125 390.417969 669.132812 390.417969 L 771.140625 390.417969 C 773.742188 390.417969 775.859375 392.535156 775.859375 395.132812 C 775.839844 397.734375 773.722656 399.851562 771.121094 399.851562 Z M 771.121094 399.851562 " fill-opacity="1" fill-rule="evenodd"/><path fill="#329f83" d="M 777.378906 423.492188 L 662.835938 423.492188 C 660.234375 423.492188 658.117188 421.375 658.117188 418.773438 C 658.117188 416.175781 660.234375 414.058594 662.835938 414.058594 L 777.378906 414.058594 C 780 414.058594 782.097656 416.175781 782.097656 418.773438 C 782.117188 421.375 780 423.492188 777.378906 423.492188 Z M 777.378906 423.492188 " fill-opacity="1" fill-rule="evenodd"/><path fill="#329f83" d="M 771.121094 447.152344 L 669.132812 447.152344 C 666.53125 447.152344 664.414062 445.050781 664.414062 442.433594 C 664.414062 439.832031 666.53125 437.714844 669.132812 437.714844 L 771.140625 437.714844 C 773.742188 437.714844 775.859375 439.832031 775.859375 442.433594 C 775.839844 445.035156 773.722656 447.152344 771.121094 447.152344 Z M 771.121094 447.152344 " fill-opacity="1" fill-rule="evenodd"/><path fill="#329f83" d="M 917.273438 267.347656 L 522.921875 267.347656 C 520.324219 267.347656 518.207031 265.25 518.207031 262.628906 C 518.207031 260.03125 520.324219 257.914062 522.921875 257.914062 L 917.273438 257.914062 C 919.875 257.914062 921.992188 260.03125 921.992188 262.628906 C 921.972656 265.25 919.875 267.347656 917.273438 267.347656 Z M 917.273438 267.347656 " fill-opacity="1" fill-rule="evenodd"/><path fill="#329f83" d="M 616.351562 503.4375 C 614.160156 503.4375 612.191406 501.898438 611.726562 499.6875 L 567.566406 285.9375 L 523.40625 499.6875 C 522.886719 502.230469 520.378906 503.886719 517.835938 503.363281 C 515.269531 502.84375 513.636719 500.335938 514.15625 497.792969 L 562.941406 261.703125 C 563.386719 259.511719 565.320312 257.949219 567.566406 257.949219 C 569.8125 257.949219 571.726562 259.527344 572.210938 261.703125 L 620.996094 497.792969 C 621.515625 500.335938 619.882812 502.84375 617.316406 503.363281 C 616.964844 503.421875 616.648438 503.4375 616.351562 503.4375 Z M 616.351562 503.4375 " fill-opacity="1" fill-rule="evenodd"/><path fill="#329f83" d="M 523.738281 503.4375 C 526.097656 525.519531 544.855469 542.789062 567.546875 542.789062 C 590.242188 542.789062 609 525.519531 611.375 503.4375 Z M 567.546875 552.242188 C 538.039062 552.242188 514.046875 528.230469 514.046875 498.742188 C 514.046875 496.140625 516.164062 494.023438 518.761719 494.023438 L 616.351562 494.023438 C 618.953125 494.023438 621.050781 496.140625 621.050781 498.742188 C 621.050781 528.230469 597.058594 552.242188 567.546875 552.242188 Z M 567.546875 552.242188 " fill-opacity="1" fill-rule="evenodd"/><path fill="#329f83" d="M 921.417969 503.4375 C 919.226562 503.4375 917.257812 501.898438 916.792969 499.6875 L 872.628906 285.9375 L 828.46875 499.6875 C 827.949219 502.230469 825.441406 503.886719 822.878906 503.363281 C 820.335938 502.84375 818.683594 500.335938 819.222656 497.792969 L 868.023438 261.703125 C 868.46875 259.511719 870.402344 257.949219 872.648438 257.949219 C 874.894531 257.949219 876.808594 259.527344 877.273438 261.703125 L 926.058594 497.792969 C 926.578125 500.335938 924.945312 502.84375 922.382812 503.363281 C 922.046875 503.421875 921.730469 503.4375 921.417969 503.4375 Z M 921.417969 503.4375 " fill-opacity="1" fill-rule="evenodd"/><path fill="#329f83" d="M 828.804688 503.4375 C 831.179688 525.519531 849.917969 542.789062 872.628906 542.789062 C 895.34375 542.789062 914.082031 525.519531 916.4375 503.4375 Z M 872.628906 552.242188 C 843.121094 552.242188 819.128906 528.230469 819.128906 498.742188 C 819.128906 496.140625 821.246094 494.023438 823.84375 494.023438 L 921.433594 494.023438 C 924.035156 494.023438 926.152344 496.140625 926.152344 498.742188 C 926.132812 528.230469 902.121094 552.242188 872.628906 552.242188 Z M 872.628906 552.242188 " fill-opacity="1" fill-rule="evenodd"/><g clip-path="url(#d74b5f8541)"><path fill="#329f83" d="M 719.847656 777.710938 C 623.78125 777.710938 533.46875 740.3125 465.558594 672.378906 C 397.644531 604.445312 360.222656 514.15625 360.222656 418.085938 C 360.222656 322.019531 397.625 231.710938 465.558594 163.796875 C 533.488281 95.882812 623.78125 58.460938 719.847656 58.460938 C 815.914062 58.460938 906.226562 95.863281 974.140625 163.796875 C 1042.050781 231.730469 1079.472656 322.019531 1079.472656 418.085938 C 1079.472656 514.15625 1042.070312 604.464844 974.140625 672.378906 C 906.207031 740.292969 815.914062 777.710938 719.847656 777.710938 Z M 719.847656 91.148438 C 539.582031 91.148438 392.90625 237.820312 392.90625 418.085938 C 392.90625 598.355469 539.5625 745.027344 719.847656 745.027344 C 900.117188 745.027344 1046.789062 598.375 1046.789062 418.085938 C 1046.789062 237.820312 900.117188 91.148438 719.847656 91.148438 Z M 719.847656 91.148438 " fill-opacity="1" fill-rule="nonzero"/></g></svg>