<svg xmlns="http://www.w3.org/2000/svg" xmlns:xlink="http://www.w3.org/1999/xlink" width="1920" zoomAndPan="magnify" viewBox="0 0 1440 809.999993" height="1080" preserveAspectRatio="xMidYMid meet" version="1.0"><defs><clipPath id="015ebcf7cc"><path d="M 644 423 L 949.671875 423 L 949.671875 728.945312 L 644 728.945312 Z M 644 423 " clip-rule="nonzero"/></clipPath><clipPath id="8638981efd"><path d="M 598 104.195312 L 712 104.195312 L 712 213 L 598 213 Z M 598 104.195312 " clip-rule="nonzero"/></clipPath><clipPath id="512dae0cf7"><path d="M 457.671875 153 L 669 153 L 669 687 L 457.671875 687 Z M 457.671875 153 " clip-rule="nonzero"/></clipPath></defs><rect x="-144" width="1728" fill="#ffffff" y="-80.999999" height="971.999992" fill-opacity="1"/><rect x="-144" width="1728" fill="#ffffff" y="-80.999999" height="971.999992" fill-opacity="1"/><g clip-path="url(#015ebcf7cc)"><path fill="#329f83" d="M 796.75 423.542969 C 794.25 423.542969 791.753906 423.601562 789.261719 423.726562 C 786.765625 423.847656 784.277344 424.03125 781.789062 424.277344 C 779.304688 424.523438 776.824219 424.828125 774.355469 425.195312 C 771.882812 425.5625 769.425781 425.988281 766.972656 426.476562 C 764.523438 426.964844 762.089844 427.511719 759.664062 428.117188 C 757.242188 428.726562 754.835938 429.390625 752.445312 430.117188 C 750.054688 430.84375 747.683594 431.625 745.332031 432.46875 C 742.980469 433.308594 740.652344 434.207031 738.34375 435.164062 C 736.035156 436.121094 733.753906 437.132812 731.496094 438.203125 C 729.238281 439.269531 727.007812 440.394531 724.804688 441.570312 C 722.601562 442.75 720.429688 443.980469 718.285156 445.265625 C 716.144531 446.550781 714.035156 447.886719 711.957031 449.277344 C 709.878906 450.664062 707.839844 452.101562 705.832031 453.59375 C 703.828125 455.082031 701.859375 456.617188 699.925781 458.203125 C 697.996094 459.789062 696.105469 461.421875 694.253906 463.097656 C 692.402344 464.777344 690.597656 466.5 688.828125 468.265625 C 687.0625 470.035156 685.339844 471.84375 683.664062 473.695312 C 681.988281 475.546875 680.355469 477.4375 678.769531 479.371094 C 677.1875 481.300781 675.648438 483.269531 674.164062 485.277344 C 672.675781 487.285156 671.238281 489.328125 669.847656 491.40625 C 668.460938 493.484375 667.125 495.59375 665.839844 497.738281 C 664.558594 499.882812 663.328125 502.054688 662.148438 504.257812 C 660.972656 506.464844 659.847656 508.695312 658.78125 510.953125 C 657.714844 513.214844 656.699219 515.496094 655.746094 517.804688 C 654.789062 520.113281 653.890625 522.445312 653.050781 524.800781 C 652.207031 527.152344 651.425781 529.523438 650.699219 531.914062 C 649.972656 534.308594 649.308594 536.714844 648.703125 539.140625 C 648.09375 541.5625 647.546875 544 647.058594 546.453125 C 646.574219 548.902344 646.144531 551.363281 645.78125 553.835938 C 645.414062 556.308594 645.105469 558.789062 644.863281 561.273438 C 644.617188 563.761719 644.433594 566.253906 644.3125 568.75 C 644.1875 571.246094 644.128906 573.742188 644.128906 576.242188 C 644.128906 578.742188 644.1875 581.238281 644.3125 583.734375 C 644.433594 586.230469 644.617188 588.722656 644.863281 591.210938 C 645.105469 593.695312 645.414062 596.175781 645.78125 598.648438 C 646.144531 601.121094 646.574219 603.582031 647.058594 606.03125 C 647.546875 608.484375 648.09375 610.921875 648.703125 613.347656 C 649.308594 615.769531 649.972656 618.179688 650.699219 620.570312 C 651.425781 622.960938 652.207031 625.332031 653.050781 627.6875 C 653.890625 630.039062 654.789062 632.371094 655.746094 634.679688 C 656.699219 636.988281 657.714844 639.273438 658.78125 641.53125 C 659.847656 643.789062 660.972656 646.019531 662.148438 648.226562 C 663.328125 650.429688 664.558594 652.601562 665.839844 654.746094 C 667.125 656.890625 668.460938 659 669.847656 661.078125 C 671.238281 663.15625 672.675781 665.199219 674.164062 667.207031 C 675.648438 669.214844 677.1875 671.183594 678.769531 673.113281 C 680.355469 675.046875 681.988281 676.9375 683.664062 678.789062 C 685.339844 680.640625 687.0625 682.453125 688.828125 684.21875 C 690.59375 685.984375 692.402344 687.707031 694.253906 689.386719 C 696.105469 691.066406 697.996094 692.695312 699.925781 694.28125 C 701.859375 695.867188 703.828125 697.40625 705.832031 698.894531 C 707.839844 700.382812 709.878906 701.820312 711.957031 703.207031 C 714.035156 704.597656 716.144531 705.933594 718.285156 707.21875 C 720.429688 708.503906 722.601562 709.734375 724.804688 710.914062 C 727.007812 712.089844 729.238281 713.214844 731.496094 714.28125 C 733.753906 715.351562 736.035156 716.363281 738.34375 717.320312 C 740.652344 718.277344 742.980469 719.175781 745.332031 720.015625 C 747.683594 720.859375 750.054688 721.644531 752.445312 722.367188 C 754.835938 723.09375 757.242188 723.761719 759.664062 724.367188 C 762.089844 724.976562 764.523438 725.523438 766.972656 726.007812 C 769.425781 726.496094 771.882812 726.925781 774.355469 727.289062 C 776.824219 727.65625 779.304688 727.964844 781.789062 728.207031 C 784.277344 728.453125 786.765625 728.636719 789.261719 728.761719 C 791.753906 728.882812 794.25 728.945312 796.75 728.945312 C 799.246094 728.945312 801.742188 728.882812 804.238281 728.761719 C 806.734375 728.636719 809.222656 728.453125 811.707031 728.207031 C 814.195312 727.964844 816.671875 727.65625 819.144531 727.289062 C 821.613281 726.925781 824.074219 726.496094 826.523438 726.007812 C 828.972656 725.523438 831.410156 724.976562 833.832031 724.367188 C 836.257812 723.761719 838.664062 723.09375 841.054688 722.367188 C 843.441406 721.644531 845.8125 720.859375 848.167969 720.015625 C 850.519531 719.175781 852.847656 718.277344 855.15625 717.320312 C 857.460938 716.363281 859.746094 715.351562 862.003906 714.28125 C 864.261719 713.214844 866.492188 712.089844 868.695312 710.914062 C 870.898438 709.734375 873.070312 708.503906 875.210938 707.21875 C 877.355469 705.933594 879.464844 704.597656 881.542969 703.207031 C 883.617188 701.820312 885.660156 700.382812 887.667969 698.894531 C 889.671875 697.40625 891.640625 695.867188 893.570312 694.28125 C 895.503906 692.695312 897.394531 691.066406 899.242188 689.386719 C 901.09375 687.707031 902.902344 685.984375 904.667969 684.21875 C 906.433594 682.453125 908.15625 680.640625 909.835938 678.789062 C 911.511719 676.9375 913.144531 675.046875 914.726562 673.113281 C 916.3125 671.183594 917.847656 669.214844 919.335938 667.207031 C 920.824219 665.199219 922.261719 663.15625 923.648438 661.078125 C 925.039062 659 926.375 656.890625 927.65625 654.746094 C 928.941406 652.601562 930.171875 650.429688 931.351562 648.226562 C 932.527344 646.019531 933.648438 643.789062 934.71875 641.53125 C 935.785156 639.273438 936.796875 636.988281 937.753906 634.679688 C 938.710938 632.371094 939.609375 630.039062 940.449219 627.6875 C 941.289062 625.332031 942.074219 622.960938 942.800781 620.570312 C 943.523438 618.179688 944.191406 615.769531 944.796875 613.347656 C 945.402344 610.921875 945.953125 608.484375 946.4375 606.03125 C 946.925781 603.582031 947.351562 601.121094 947.71875 598.648438 C 948.085938 596.175781 948.390625 593.695312 948.636719 591.210938 C 948.882812 588.722656 949.066406 586.230469 949.1875 583.734375 C 949.308594 581.238281 949.371094 578.742188 949.371094 576.242188 C 949.367188 573.746094 949.304688 571.246094 949.179688 568.753906 C 949.054688 566.257812 948.867188 563.765625 948.621094 561.28125 C 948.375 558.792969 948.066406 556.316406 947.699219 553.84375 C 947.328125 551.375 946.898438 548.914062 946.410156 546.464844 C 945.921875 544.015625 945.371094 541.578125 944.765625 539.152344 C 944.15625 536.730469 943.488281 534.324219 942.761719 531.933594 C 942.035156 529.542969 941.25 527.171875 940.40625 524.820312 C 939.566406 522.46875 938.664062 520.140625 937.707031 517.832031 C 936.753906 515.523438 935.738281 513.242188 934.671875 510.984375 C 933.601562 508.726562 932.480469 506.496094 931.300781 504.292969 C 930.121094 502.089844 928.890625 499.917969 927.605469 497.773438 C 926.324219 495.632812 924.988281 493.523438 923.597656 491.445312 C 922.210938 489.367188 920.773438 487.328125 919.285156 485.320312 C 917.796875 483.316406 916.261719 481.347656 914.675781 479.414062 C 913.09375 477.484375 911.460938 475.59375 909.785156 473.742188 C 908.109375 471.890625 906.386719 470.082031 904.621094 468.316406 C 902.855469 466.550781 901.046875 464.828125 899.195312 463.148438 C 897.347656 461.472656 895.457031 459.839844 893.527344 458.253906 C 891.597656 456.667969 889.628906 455.132812 887.625 453.644531 C 885.617188 452.15625 883.578125 450.714844 881.503906 449.328125 C 879.425781 447.9375 877.316406 446.601562 875.175781 445.316406 C 873.035156 444.03125 870.863281 442.800781 868.660156 441.621094 C 866.460938 440.441406 864.230469 439.320312 861.972656 438.25 C 859.71875 437.179688 857.4375 436.167969 855.128906 435.210938 C 852.824219 434.253906 850.496094 433.351562 848.144531 432.507812 C 845.792969 431.667969 843.421875 430.882812 841.035156 430.152344 C 838.644531 429.425781 836.238281 428.757812 833.820312 428.152344 C 831.398438 427.542969 828.960938 426.992188 826.511719 426.503906 C 824.0625 426.015625 821.605469 425.585938 819.136719 425.214844 C 816.664062 424.847656 814.1875 424.539062 811.703125 424.292969 C 809.21875 424.042969 806.730469 423.859375 804.234375 423.734375 C 801.742188 423.609375 799.246094 423.542969 796.75 423.542969 Z M 796.75 696.421875 C 794.785156 696.421875 792.820312 696.375 790.855469 696.277344 C 788.890625 696.183594 786.933594 696.039062 784.976562 695.847656 C 783.019531 695.652344 781.070312 695.414062 779.125 695.125 C 777.179688 694.835938 775.242188 694.5 773.316406 694.117188 C 771.386719 693.734375 769.46875 693.300781 767.5625 692.824219 C 765.65625 692.347656 763.761719 691.824219 761.878906 691.253906 C 760 690.679688 758.132812 690.066406 756.28125 689.402344 C 754.429688 688.738281 752.597656 688.03125 750.78125 687.28125 C 748.964844 686.527344 747.167969 685.730469 745.390625 684.890625 C 743.613281 684.050781 741.855469 683.164062 740.125 682.238281 C 738.390625 681.3125 736.679688 680.34375 734.992188 679.332031 C 733.308594 678.320312 731.644531 677.269531 730.011719 676.175781 C 728.375 675.082031 726.769531 673.953125 725.191406 672.78125 C 723.613281 671.609375 722.0625 670.398438 720.542969 669.152344 C 719.023438 667.902344 717.535156 666.621094 716.078125 665.296875 C 714.621094 663.976562 713.199219 662.621094 711.808594 661.230469 C 710.417969 659.839844 709.0625 658.417969 707.742188 656.960938 C 706.421875 655.503906 705.136719 654.011719 703.890625 652.492188 C 702.644531 650.972656 701.433594 649.421875 700.261719 647.84375 C 699.089844 646.261719 697.960938 644.65625 696.867188 643.019531 C 695.773438 641.386719 694.722656 639.722656 693.710938 638.039062 C 692.703125 636.351562 691.734375 634.640625 690.804688 632.90625 C 689.878906 631.171875 688.996094 629.414062 688.15625 627.636719 C 687.3125 625.859375 686.515625 624.0625 685.765625 622.242188 C 685.011719 620.425781 684.304688 618.59375 683.640625 616.738281 C 682.980469 614.886719 682.363281 613.019531 681.792969 611.140625 C 681.222656 609.257812 680.699219 607.363281 680.21875 605.453125 C 679.742188 603.546875 679.3125 601.628906 678.925781 599.699219 C 678.542969 597.769531 678.207031 595.832031 677.917969 593.886719 C 677.628906 591.941406 677.390625 589.988281 677.195312 588.03125 C 677.003906 586.074219 676.859375 584.113281 676.761719 582.148438 C 676.664062 580.183594 676.617188 578.21875 676.617188 576.25 C 676.617188 574.285156 676.664062 572.320312 676.761719 570.355469 C 676.859375 568.390625 677.003906 566.429688 677.195312 564.472656 C 677.386719 562.515625 677.628906 560.5625 677.917969 558.617188 C 678.203125 556.671875 678.539062 554.734375 678.921875 552.804688 C 679.308594 550.875 679.738281 548.957031 680.214844 547.050781 C 680.691406 545.140625 681.214844 543.246094 681.789062 541.363281 C 682.359375 539.480469 682.972656 537.613281 683.636719 535.761719 C 684.296875 533.910156 685.003906 532.074219 685.757812 530.257812 C 686.511719 528.441406 687.304688 526.644531 688.148438 524.867188 C 688.988281 523.085938 689.871094 521.332031 690.796875 519.597656 C 691.722656 517.863281 692.691406 516.152344 693.703125 514.464844 C 694.714844 512.777344 695.765625 511.117188 696.855469 509.480469 C 697.949219 507.84375 699.082031 506.238281 700.25 504.65625 C 701.421875 503.078125 702.632812 501.527344 703.878906 500.007812 C 705.125 498.484375 706.410156 496.996094 707.730469 495.539062 C 709.050781 494.082031 710.402344 492.65625 711.792969 491.265625 C 713.183594 489.875 714.609375 488.519531 716.0625 487.199219 C 717.519531 485.878906 719.007812 484.59375 720.527344 483.347656 C 722.046875 482.097656 723.597656 480.886719 725.175781 479.714844 C 726.753906 478.542969 728.363281 477.414062 729.996094 476.320312 C 731.628906 475.226562 733.289062 474.175781 734.976562 473.164062 C 736.664062 472.152344 738.375 471.183594 740.105469 470.253906 C 741.839844 469.328125 743.597656 468.445312 745.375 467.601562 C 747.148438 466.761719 748.945312 465.964844 750.761719 465.210938 C 752.578125 464.460938 754.414062 463.75 756.261719 463.089844 C 758.113281 462.425781 759.980469 461.808594 761.863281 461.238281 C 763.742188 460.667969 765.636719 460.144531 767.542969 459.664062 C 769.449219 459.1875 771.367188 458.757812 773.296875 458.371094 C 775.226562 457.988281 777.160156 457.652344 779.105469 457.363281 C 781.050781 457.074219 783 456.832031 784.957031 456.640625 C 786.914062 456.449219 788.875 456.304688 790.835938 456.207031 C 792.800781 456.109375 794.765625 456.0625 796.730469 456.0625 C 798.695312 456.0625 800.660156 456.109375 802.625 456.207031 C 804.589844 456.304688 806.546875 456.449219 808.503906 456.640625 C 810.460938 456.832031 812.410156 457.074219 814.355469 457.363281 C 816.300781 457.652344 818.238281 457.988281 820.164062 458.371094 C 822.09375 458.753906 824.011719 459.183594 825.917969 459.664062 C 827.824219 460.140625 829.71875 460.664062 831.601562 461.234375 C 833.480469 461.804688 835.347656 462.421875 837.199219 463.085938 C 839.050781 463.75 840.882812 464.457031 842.699219 465.207031 C 844.515625 465.960938 846.3125 466.757812 848.089844 467.597656 C 849.867188 468.441406 851.621094 469.324219 853.355469 470.25 C 855.089844 471.179688 856.800781 472.148438 858.484375 473.160156 C 860.171875 474.167969 861.832031 475.222656 863.46875 476.3125 C 865.101562 477.40625 866.707031 478.539062 868.289062 479.710938 C 869.867188 480.882812 871.417969 482.09375 872.9375 483.339844 C 874.457031 484.585938 875.945312 485.871094 877.398438 487.191406 C 878.855469 488.515625 880.28125 489.871094 881.671875 491.261719 C 883.058594 492.652344 884.414062 494.074219 885.734375 495.53125 C 887.054688 496.988281 888.339844 498.480469 889.585938 500 C 890.835938 501.519531 892.042969 503.070312 893.214844 504.648438 C 894.386719 506.230469 895.515625 507.835938 896.609375 509.472656 C 897.703125 511.109375 898.753906 512.769531 899.761719 514.457031 C 900.773438 516.144531 901.742188 517.855469 902.667969 519.589844 C 903.597656 521.324219 904.480469 523.078125 905.320312 524.859375 C 906.160156 526.636719 906.957031 528.433594 907.710938 530.25 C 908.460938 532.066406 909.167969 533.902344 909.832031 535.753906 C 910.492188 537.605469 911.109375 539.472656 911.679688 541.355469 C 912.25 543.238281 912.777344 545.132812 913.253906 547.039062 C 913.730469 548.949219 914.160156 550.867188 914.546875 552.796875 C 914.929688 554.726562 915.265625 556.664062 915.554688 558.609375 C 915.84375 560.554688 916.082031 562.503906 916.273438 564.460938 C 916.46875 566.421875 916.613281 568.382812 916.710938 570.34375 C 916.804688 572.308594 916.855469 574.277344 916.855469 576.242188 C 916.851562 578.207031 916.800781 580.171875 916.703125 582.136719 C 916.605469 584.101562 916.457031 586.0625 916.261719 588.015625 C 916.066406 589.972656 915.824219 591.925781 915.535156 593.867188 C 915.246094 595.8125 914.90625 597.75 914.523438 599.675781 C 914.136719 601.605469 913.707031 603.523438 913.226562 605.429688 C 912.75 607.335938 912.222656 609.230469 911.652344 611.109375 C 911.078125 612.992188 910.460938 614.859375 909.796875 616.707031 C 909.136719 618.558594 908.425781 620.394531 907.675781 622.207031 C 906.921875 624.023438 906.125 625.820312 905.285156 627.597656 C 904.441406 629.375 903.558594 631.128906 902.632812 632.863281 C 901.703125 634.597656 900.734375 636.308594 899.726562 637.992188 C 898.714844 639.679688 897.664062 641.339844 896.570312 642.972656 C 895.476562 644.609375 894.347656 646.214844 893.175781 647.792969 C 892.003906 649.375 890.796875 650.921875 889.550781 652.441406 C 888.300781 653.960938 887.019531 655.449219 885.699219 656.90625 C 884.378906 658.363281 883.027344 659.789062 881.636719 661.175781 C 880.246094 662.566406 878.824219 663.921875 877.367188 665.242188 C 875.914062 666.5625 874.425781 667.847656 872.90625 669.097656 C 871.386719 670.34375 869.839844 671.554688 868.261719 672.726562 C 866.683594 673.898438 865.078125 675.027344 863.445312 676.121094 C 861.808594 677.214844 860.152344 678.265625 858.464844 679.277344 C 856.78125 680.289062 855.074219 681.257812 853.339844 682.1875 C 851.605469 683.113281 849.851562 684 848.078125 684.839844 C 846.300781 685.683594 844.503906 686.480469 842.691406 687.234375 C 840.875 687.988281 839.042969 688.695312 837.195312 689.359375 C 835.34375 690.023438 833.480469 690.640625 831.597656 691.214844 C 829.71875 691.785156 827.828125 692.3125 825.921875 692.792969 C 824.015625 693.269531 822.097656 693.703125 820.171875 694.089844 C 818.246094 694.472656 816.308594 694.8125 814.367188 695.101562 C 812.421875 695.394531 810.472656 695.636719 808.519531 695.832031 C 806.5625 696.027344 804.601562 696.171875 802.640625 696.269531 C 800.679688 696.371094 798.714844 696.421875 796.75 696.421875 Z M 796.75 696.421875 " fill-opacity="1" fill-rule="nonzero"/></g><path fill="#329f83" d="M 728.691406 205.644531 L 728.691406 220.886719 C 728.691406 221.4375 728.636719 221.980469 728.527344 222.519531 C 728.421875 223.058594 728.261719 223.582031 728.054688 224.089844 C 727.84375 224.597656 727.585938 225.078125 727.28125 225.535156 C 726.976562 225.992188 726.628906 226.417969 726.242188 226.804688 C 725.851562 227.191406 725.429688 227.539062 724.972656 227.84375 C 724.515625 228.152344 724.035156 228.40625 723.527344 228.617188 C 723.019531 228.828125 722.496094 228.988281 721.957031 229.09375 C 721.421875 229.203125 720.875 229.253906 720.328125 229.253906 L 590.492188 229.253906 C 589.945312 229.253906 589.402344 229.203125 588.863281 229.09375 C 588.324219 228.988281 587.800781 228.828125 587.292969 228.617188 C 586.785156 228.40625 586.304688 228.152344 585.847656 227.84375 C 585.390625 227.539062 584.96875 227.191406 584.582031 226.804688 C 584.191406 226.417969 583.847656 225.992188 583.539062 225.535156 C 583.234375 225.078125 582.976562 224.597656 582.769531 224.089844 C 582.558594 223.582031 582.398438 223.058594 582.292969 222.519531 C 582.183594 221.980469 582.132812 221.4375 582.132812 220.886719 L 582.132812 205.644531 L 513.125 205.644531 L 513.125 632.511719 L 637.003906 632.511719 C 635.199219 627.375 633.644531 622.167969 632.339844 616.882812 C 631.035156 611.597656 629.988281 606.261719 629.199219 600.875 C 628.40625 595.488281 627.878906 590.074219 627.609375 584.636719 C 627.339844 579.199219 627.332031 573.761719 627.589844 568.324219 C 627.84375 562.886719 628.359375 557.472656 629.136719 552.085938 C 629.914062 546.699219 630.945312 541.359375 632.238281 536.070312 C 633.527344 530.78125 635.070312 525.566406 636.863281 520.429688 C 638.65625 515.289062 640.691406 510.246094 642.972656 505.304688 C 642.421875 505.289062 641.878906 505.226562 641.34375 505.105469 C 640.808594 504.988281 640.289062 504.816406 639.785156 504.597656 C 639.285156 504.375 638.808594 504.109375 638.359375 503.792969 C 637.910156 503.476562 637.492188 503.121094 637.113281 502.726562 C 636.734375 502.328125 636.398438 501.898438 636.101562 501.4375 C 635.804688 500.972656 635.558594 500.488281 635.359375 499.976562 C 635.160156 499.464844 635.011719 498.9375 634.917969 498.394531 C 634.820312 497.855469 634.78125 497.308594 634.789062 496.761719 C 634.800781 496.210938 634.867188 495.667969 634.984375 495.132812 C 635.105469 494.597656 635.273438 494.078125 635.492188 493.574219 C 635.714844 493.070312 635.980469 492.59375 636.296875 492.144531 C 636.609375 491.695312 636.964844 491.28125 637.359375 490.898438 C 637.757812 490.519531 638.183594 490.179688 638.648438 489.886719 C 639.109375 489.589844 639.597656 489.339844 640.109375 489.140625 C 640.621094 488.941406 641.144531 488.792969 641.6875 488.695312 C 642.226562 488.601562 642.769531 488.558594 643.320312 488.570312 L 651.863281 488.570312 C 656.195312 481.4375 661.023438 474.660156 666.34375 468.234375 L 643.320312 468.234375 C 642.769531 468.234375 642.226562 468.183594 641.6875 468.074219 C 641.148438 467.96875 640.625 467.808594 640.117188 467.597656 C 639.613281 467.390625 639.128906 467.132812 638.671875 466.824219 C 638.214844 466.519531 637.792969 466.175781 637.40625 465.785156 C 637.019531 465.398438 636.671875 464.972656 636.367188 464.515625 C 636.0625 464.0625 635.804688 463.578125 635.59375 463.070312 C 635.382812 462.5625 635.222656 462.039062 635.117188 461.5 C 635.011719 460.960938 634.957031 460.417969 634.957031 459.867188 C 634.957031 459.320312 635.011719 458.777344 635.117188 458.238281 C 635.222656 457.699219 635.382812 457.175781 635.59375 456.667969 C 635.804688 456.160156 636.0625 455.675781 636.367188 455.21875 C 636.671875 454.761719 637.019531 454.339844 637.40625 453.953125 C 637.792969 453.5625 638.214844 453.21875 638.671875 452.910156 C 639.128906 452.605469 639.613281 452.347656 640.117188 452.140625 C 640.625 451.929688 641.148438 451.769531 641.6875 451.664062 C 642.226562 451.554688 642.769531 451.5 643.320312 451.5 L 682.25 451.5 C 686.105469 447.945312 690.117188 444.574219 694.289062 441.390625 C 698.460938 438.207031 702.769531 435.226562 707.21875 432.445312 C 711.667969 429.667969 716.234375 427.097656 720.925781 424.746094 C 725.613281 422.390625 730.398438 420.257812 735.285156 418.351562 C 740.171875 416.445312 745.136719 414.769531 750.179688 413.324219 C 755.222656 411.878906 760.324219 410.671875 765.480469 409.707031 C 770.632812 408.738281 775.824219 408.011719 781.046875 407.527344 C 786.269531 407.042969 791.503906 406.800781 796.75 406.808594 L 797.667969 406.808594 L 797.667969 205.644531 Z M 582.101562 607.621094 C 580.984375 607.621094 579.871094 607.566406 578.757812 607.457031 C 577.644531 607.34375 576.539062 607.179688 575.445312 606.964844 C 574.347656 606.746094 573.265625 606.472656 572.195312 606.148438 C 571.125 605.824219 570.074219 605.449219 569.039062 605.019531 C 568.007812 604.59375 567 604.113281 566.011719 603.585938 C 565.027344 603.058594 564.070312 602.484375 563.140625 601.863281 C 562.210938 601.242188 561.3125 600.578125 560.449219 599.867188 C 559.585938 599.15625 558.757812 598.40625 557.964844 597.617188 C 557.175781 596.824219 556.425781 595.996094 555.71875 595.132812 C 555.007812 594.269531 554.34375 593.371094 553.722656 592.441406 C 553.101562 591.511719 552.527344 590.554688 552 589.566406 C 551.472656 588.582031 550.996094 587.570312 550.566406 586.535156 C 550.140625 585.503906 549.761719 584.453125 549.4375 583.382812 C 549.113281 582.3125 548.84375 581.226562 548.625 580.128906 C 548.40625 579.03125 548.242188 577.929688 548.132812 576.816406 C 548.023438 575.703125 547.96875 574.585938 547.96875 573.46875 C 547.96875 572.347656 548.023438 571.234375 548.132812 570.121094 C 548.242188 569.007812 548.40625 567.902344 548.625 566.804688 C 548.84375 565.707031 549.113281 564.625 549.4375 563.554688 C 549.761719 562.484375 550.140625 561.429688 550.566406 560.398438 C 550.996094 559.363281 551.472656 558.355469 552 557.367188 C 552.527344 556.382812 553.101562 555.421875 553.722656 554.492188 C 554.34375 553.5625 555.007812 552.667969 555.71875 551.800781 C 556.425781 550.9375 557.175781 550.109375 557.964844 549.316406 C 558.757812 548.527344 559.585938 547.777344 560.449219 547.066406 C 561.3125 546.359375 562.210938 545.691406 563.140625 545.070312 C 564.070312 544.449219 565.027344 543.875 566.011719 543.347656 C 567 542.820312 568.007812 542.34375 569.039062 541.914062 C 570.074219 541.488281 571.125 541.109375 572.195312 540.785156 C 573.265625 540.460938 574.347656 540.191406 575.445312 539.972656 C 576.539062 539.753906 577.644531 539.589844 578.757812 539.480469 C 579.871094 539.371094 580.984375 539.316406 582.101562 539.316406 C 583.222656 539.316406 584.335938 539.371094 585.449219 539.480469 C 586.5625 539.589844 587.667969 539.753906 588.761719 539.972656 C 589.859375 540.191406 590.941406 540.460938 592.011719 540.785156 C 593.082031 541.109375 594.132812 541.488281 595.167969 541.914062 C 596.199219 542.34375 597.207031 542.820312 598.195312 543.347656 C 599.179688 543.875 600.136719 544.449219 601.066406 545.070312 C 601.996094 545.691406 602.894531 546.359375 603.757812 547.066406 C 604.621094 547.777344 605.449219 548.527344 606.238281 549.316406 C 607.03125 550.109375 607.78125 550.9375 608.488281 551.800781 C 609.199219 552.667969 609.863281 553.5625 610.484375 554.492188 C 611.105469 555.421875 611.679688 556.382812 612.207031 557.367188 C 612.734375 558.355469 613.210938 559.363281 613.640625 560.398438 C 614.066406 561.429688 614.445312 562.484375 614.769531 563.554688 C 615.09375 564.625 615.363281 565.707031 615.582031 566.804688 C 615.800781 567.902344 615.964844 569.007812 616.074219 570.121094 C 616.183594 571.234375 616.238281 572.347656 616.238281 573.46875 C 616.238281 574.585938 616.179688 575.703125 616.070312 576.8125 C 615.960938 577.925781 615.796875 579.03125 615.578125 580.128906 C 615.359375 581.226562 615.085938 582.308594 614.761719 583.378906 C 614.4375 584.449219 614.058594 585.5 613.632812 586.53125 C 613.203125 587.566406 612.726562 588.574219 612.199219 589.5625 C 611.671875 590.546875 611.097656 591.503906 610.476562 592.433594 C 609.855469 593.363281 609.191406 594.261719 608.480469 595.125 C 607.773438 595.988281 607.023438 596.816406 606.230469 597.609375 C 605.441406 598.398438 604.613281 599.148438 603.75 599.859375 C 602.886719 600.570312 601.988281 601.234375 601.0625 601.855469 C 600.132812 602.476562 599.175781 603.050781 598.1875 603.578125 C 597.203125 604.105469 596.195312 604.585938 595.160156 605.011719 C 594.128906 605.441406 593.078125 605.816406 592.007812 606.144531 C 590.941406 606.46875 589.855469 606.738281 588.761719 606.957031 C 587.664062 607.175781 586.558594 607.34375 585.449219 607.453125 C 584.335938 607.5625 583.222656 607.617188 582.101562 607.621094 Z M 582.101562 512.539062 C 580.984375 512.539062 579.871094 512.484375 578.757812 512.375 C 577.644531 512.265625 576.539062 512.101562 575.445312 511.882812 C 574.347656 511.664062 573.265625 511.394531 572.195312 511.070312 C 571.125 510.746094 570.074219 510.367188 569.039062 509.941406 C 568.007812 509.511719 567 509.035156 566.011719 508.507812 C 565.027344 507.980469 564.070312 507.40625 563.140625 506.785156 C 562.210938 506.164062 561.3125 505.496094 560.449219 504.789062 C 559.585938 504.078125 558.757812 503.328125 557.964844 502.539062 C 557.175781 501.746094 556.425781 500.917969 555.71875 500.054688 C 555.007812 499.191406 554.34375 498.292969 553.722656 497.363281 C 553.101562 496.433594 552.527344 495.472656 552 494.488281 C 551.472656 493.5 550.996094 492.492188 550.566406 491.457031 C 550.140625 490.425781 549.761719 489.371094 549.4375 488.300781 C 549.113281 487.230469 548.84375 486.148438 548.625 485.050781 C 548.40625 483.953125 548.242188 482.847656 548.132812 481.734375 C 548.023438 480.621094 547.96875 479.507812 547.96875 478.386719 C 547.96875 477.269531 548.023438 476.152344 548.132812 475.039062 C 548.242188 473.929688 548.40625 472.824219 548.625 471.726562 C 548.84375 470.628906 549.113281 469.542969 549.4375 468.472656 C 549.761719 467.402344 550.140625 466.351562 550.566406 465.320312 C 550.996094 464.285156 551.472656 463.277344 552 462.289062 C 552.527344 461.300781 553.101562 460.34375 553.722656 459.414062 C 554.34375 458.484375 555.007812 457.585938 555.71875 456.722656 C 556.425781 455.859375 557.175781 455.03125 557.964844 454.238281 C 558.757812 453.449219 559.585938 452.699219 560.449219 451.988281 C 561.3125 451.277344 562.210938 450.613281 563.140625 449.992188 C 564.070312 449.371094 565.027344 448.796875 566.011719 448.269531 C 567 447.742188 568.007812 447.265625 569.039062 446.835938 C 570.074219 446.40625 571.125 446.03125 572.195312 445.707031 C 573.265625 445.382812 574.347656 445.109375 575.445312 444.890625 C 576.539062 444.675781 577.644531 444.511719 578.757812 444.402344 C 579.871094 444.292969 580.984375 444.234375 582.101562 444.234375 C 583.222656 444.234375 584.335938 444.292969 585.449219 444.402344 C 586.5625 444.511719 587.667969 444.675781 588.761719 444.890625 C 589.859375 445.109375 590.941406 445.382812 592.011719 445.707031 C 593.082031 446.03125 594.132812 446.40625 595.164062 446.835938 C 596.199219 447.265625 597.207031 447.742188 598.195312 448.269531 C 599.179688 448.796875 600.136719 449.371094 601.066406 449.992188 C 601.996094 450.613281 602.894531 451.277344 603.757812 451.988281 C 604.621094 452.699219 605.449219 453.449219 606.238281 454.238281 C 607.03125 455.03125 607.78125 455.859375 608.488281 456.722656 C 609.199219 457.585938 609.863281 458.484375 610.484375 459.414062 C 611.105469 460.34375 611.679688 461.300781 612.207031 462.289062 C 612.734375 463.277344 613.210938 464.285156 613.640625 465.320312 C 614.066406 466.351562 614.441406 467.402344 614.769531 468.472656 C 615.09375 469.542969 615.363281 470.628906 615.582031 471.726562 C 615.800781 472.824219 615.964844 473.929688 616.074219 475.039062 C 616.183594 476.152344 616.238281 477.269531 616.238281 478.386719 C 616.238281 479.507812 616.183594 480.625 616.074219 481.738281 C 615.964844 482.851562 615.800781 483.957031 615.582031 485.054688 C 615.363281 486.152344 615.09375 487.234375 614.769531 488.304688 C 614.445312 489.375 614.066406 490.429688 613.640625 491.460938 C 613.210938 492.496094 612.734375 493.507812 612.207031 494.492188 C 611.679688 495.480469 611.105469 496.4375 610.484375 497.367188 C 609.863281 498.300781 609.199219 499.199219 608.492188 500.0625 C 607.78125 500.925781 607.03125 501.757812 606.242188 502.546875 C 605.453125 503.339844 604.625 504.089844 603.761719 504.800781 C 602.894531 505.511719 602 506.175781 601.070312 506.796875 C 600.140625 507.421875 599.183594 507.996094 598.195312 508.523438 C 597.210938 509.050781 596.199219 509.53125 595.167969 509.957031 C 594.136719 510.386719 593.082031 510.765625 592.015625 511.089844 C 590.945312 511.414062 589.859375 511.6875 588.765625 511.90625 C 587.667969 512.125 586.5625 512.289062 585.449219 512.402344 C 584.335938 512.511719 583.222656 512.566406 582.101562 512.566406 Z M 582.101562 417.460938 C 580.984375 417.460938 579.871094 417.40625 578.757812 417.296875 C 577.644531 417.1875 576.539062 417.023438 575.445312 416.804688 C 574.347656 416.585938 573.265625 416.316406 572.195312 415.992188 C 571.125 415.664062 570.074219 415.289062 569.039062 414.863281 C 568.007812 414.433594 567 413.957031 566.011719 413.429688 C 565.027344 412.902344 564.070312 412.328125 563.140625 411.707031 C 562.210938 411.085938 561.3125 410.417969 560.449219 409.710938 C 559.585938 409 558.757812 408.25 557.964844 407.457031 C 557.175781 406.667969 556.425781 405.839844 555.71875 404.976562 C 555.007812 404.109375 554.34375 403.214844 553.722656 402.28125 C 553.101562 401.351562 552.527344 400.394531 552 399.410156 C 551.472656 398.421875 550.996094 397.410156 550.566406 396.378906 C 550.140625 395.34375 549.761719 394.292969 549.4375 393.222656 C 549.113281 392.152344 548.84375 391.070312 548.625 389.972656 C 548.40625 388.875 548.242188 387.769531 548.132812 386.65625 C 548.023438 385.542969 547.96875 384.425781 547.96875 383.308594 C 547.96875 382.191406 548.023438 381.074219 548.132812 379.960938 C 548.242188 378.847656 548.40625 377.742188 548.625 376.644531 C 548.84375 375.550781 549.113281 374.464844 549.4375 373.394531 C 549.761719 372.324219 550.140625 371.273438 550.566406 370.238281 C 550.996094 369.207031 551.472656 368.195312 552 367.210938 C 552.527344 366.222656 553.101562 365.265625 553.722656 364.335938 C 554.34375 363.40625 555.007812 362.507812 555.71875 361.644531 C 556.425781 360.777344 557.175781 359.949219 557.964844 359.160156 C 558.757812 358.367188 559.585938 357.617188 560.449219 356.910156 C 561.3125 356.199219 562.210938 355.535156 563.140625 354.914062 C 564.070312 354.292969 565.027344 353.71875 566.011719 353.191406 C 567 352.664062 568.007812 352.183594 569.039062 351.757812 C 570.074219 351.328125 571.125 350.953125 572.195312 350.628906 C 573.265625 350.304688 574.347656 350.03125 575.445312 349.8125 C 576.539062 349.59375 577.644531 349.429688 578.757812 349.320312 C 579.871094 349.210938 580.984375 349.15625 582.101562 349.15625 C 583.222656 349.15625 584.335938 349.210938 585.449219 349.320312 C 586.5625 349.429688 587.667969 349.59375 588.761719 349.8125 C 589.859375 350.03125 590.941406 350.304688 592.011719 350.628906 C 593.082031 350.953125 594.132812 351.328125 595.164062 351.757812 C 596.199219 352.183594 597.207031 352.664062 598.195312 353.191406 C 599.179688 353.71875 600.136719 354.292969 601.066406 354.914062 C 601.996094 355.535156 602.894531 356.199219 603.757812 356.910156 C 604.621094 357.617188 605.449219 358.367188 606.238281 359.160156 C 607.03125 359.949219 607.78125 360.777344 608.488281 361.644531 C 609.199219 362.507812 609.863281 363.40625 610.484375 364.335938 C 611.105469 365.265625 611.679688 366.222656 612.207031 367.210938 C 612.734375 368.195312 613.210938 369.207031 613.640625 370.238281 C 614.066406 371.273438 614.441406 372.324219 614.769531 373.394531 C 615.09375 374.464844 615.363281 375.550781 615.582031 376.644531 C 615.800781 377.742188 615.964844 378.847656 616.074219 379.960938 C 616.183594 381.074219 616.238281 382.191406 616.238281 383.308594 C 616.238281 384.429688 616.183594 385.542969 616.074219 386.65625 C 615.964844 387.769531 615.800781 388.875 615.582031 389.972656 C 615.363281 391.070312 615.09375 392.15625 614.769531 393.226562 C 614.445312 394.296875 614.066406 395.347656 613.640625 396.382812 C 613.210938 397.417969 612.734375 398.425781 612.207031 399.414062 C 611.679688 400.402344 611.105469 401.359375 610.484375 402.289062 C 609.863281 403.21875 609.199219 404.117188 608.492188 404.984375 C 607.78125 405.847656 607.03125 406.675781 606.242188 407.46875 C 605.453125 408.257812 604.625 409.011719 603.761719 409.722656 C 602.894531 410.429688 602 411.097656 601.070312 411.71875 C 600.140625 412.339844 599.183594 412.917969 598.195312 413.445312 C 597.210938 413.972656 596.199219 414.449219 595.167969 414.878906 C 594.136719 415.308594 593.082031 415.683594 592.015625 416.011719 C 590.945312 416.335938 589.859375 416.609375 588.765625 416.828125 C 587.667969 417.046875 586.5625 417.210938 585.449219 417.320312 C 584.335938 417.433594 583.222656 417.488281 582.101562 417.488281 Z M 582.101562 322.382812 C 580.984375 322.382812 579.871094 322.328125 578.757812 322.21875 C 577.644531 322.109375 576.539062 321.945312 575.441406 321.726562 C 574.34375 321.507812 573.261719 321.234375 572.191406 320.910156 C 571.121094 320.585938 570.070312 320.210938 569.039062 319.78125 C 568.003906 319.351562 566.996094 318.875 566.007812 318.347656 C 565.023438 317.820312 564.066406 317.246094 563.136719 316.625 C 562.207031 316 561.308594 315.335938 560.445312 314.625 C 559.578125 313.917969 558.753906 313.164062 557.960938 312.375 C 557.171875 311.582031 556.421875 310.753906 555.710938 309.890625 C 555.003906 309.023438 554.339844 308.128906 553.71875 307.195312 C 553.097656 306.265625 552.523438 305.308594 551.996094 304.320312 C 551.46875 303.332031 550.992188 302.324219 550.5625 301.289062 C 550.136719 300.257812 549.761719 299.203125 549.4375 298.132812 C 549.113281 297.0625 548.839844 295.976562 548.621094 294.882812 C 548.40625 293.785156 548.242188 292.679688 548.132812 291.566406 C 548.023438 290.449219 547.96875 289.335938 547.96875 288.214844 C 547.96875 287.097656 548.023438 285.980469 548.136719 284.867188 C 548.246094 283.753906 548.410156 282.648438 548.628906 281.550781 C 548.847656 280.453125 549.117188 279.371094 549.445312 278.300781 C 549.769531 277.230469 550.144531 276.179688 550.574219 275.144531 C 551.003906 274.109375 551.480469 273.101562 552.007812 272.113281 C 552.535156 271.128906 553.109375 270.171875 553.730469 269.242188 C 554.355469 268.308594 555.019531 267.414062 555.730469 266.546875 C 556.441406 265.683594 557.191406 264.855469 557.980469 264.066406 C 558.773438 263.277344 559.601562 262.527344 560.464844 261.816406 C 561.332031 261.105469 562.226562 260.441406 563.160156 259.820312 C 564.089844 259.199219 565.046875 258.625 566.035156 258.097656 C 567.019531 257.574219 568.03125 257.097656 569.0625 256.667969 C 570.097656 256.242188 571.148438 255.867188 572.21875 255.542969 C 573.289062 255.21875 574.371094 254.945312 575.46875 254.730469 C 576.566406 254.511719 577.671875 254.347656 578.785156 254.238281 C 579.898438 254.132812 581.011719 254.078125 582.132812 254.078125 C 583.25 254.078125 584.363281 254.132812 585.476562 254.246094 C 586.589844 254.355469 587.695312 254.519531 588.792969 254.738281 C 589.886719 254.960938 590.972656 255.230469 592.042969 255.558594 C 593.109375 255.882812 594.164062 256.261719 595.195312 256.691406 C 596.226562 257.117188 597.238281 257.597656 598.222656 258.125 C 599.207031 258.652344 600.164062 259.230469 601.09375 259.851562 C 602.023438 260.472656 602.921875 261.140625 603.785156 261.851562 C 604.648438 262.5625 605.476562 263.3125 606.265625 264.105469 C 607.054688 264.898438 607.804688 265.726562 608.511719 266.59375 C 609.222656 267.457031 609.886719 268.355469 610.503906 269.285156 C 611.125 270.21875 611.699219 271.175781 612.226562 272.164062 C 612.75 273.152344 613.226562 274.160156 613.652344 275.195312 C 614.082031 276.230469 614.457031 277.28125 614.777344 278.355469 C 615.101562 279.425781 615.371094 280.507812 615.589844 281.605469 C 615.804688 282.703125 615.96875 283.808594 616.078125 284.921875 C 616.1875 286.035156 616.238281 287.152344 616.238281 288.273438 C 616.234375 289.390625 616.179688 290.503906 616.070312 291.617188 C 615.957031 292.730469 615.792969 293.835938 615.574219 294.929688 C 615.355469 296.027344 615.082031 297.109375 614.757812 298.179688 C 614.433594 299.25 614.054688 300.300781 613.628906 301.332031 C 613.199219 302.367188 612.722656 303.375 612.195312 304.359375 C 611.667969 305.347656 611.09375 306.304688 610.472656 307.234375 C 609.851562 308.160156 609.183594 309.058594 608.476562 309.921875 C 607.765625 310.785156 607.015625 311.613281 606.226562 312.402344 C 605.4375 313.195312 604.609375 313.945312 603.746094 314.652344 C 602.882812 315.363281 601.984375 316.027344 601.054688 316.648438 C 600.128906 317.269531 599.171875 317.84375 598.183594 318.371094 C 597.199219 318.898438 596.191406 319.375 595.160156 319.804688 C 594.125 320.230469 593.074219 320.609375 592.007812 320.933594 C 590.9375 321.257812 589.855469 321.53125 588.757812 321.75 C 587.664062 321.96875 586.558594 322.132812 585.449219 322.242188 C 584.335938 322.351562 583.222656 322.410156 582.101562 322.410156 Z M 705.289062 410.238281 L 643.320312 410.238281 C 642.769531 410.238281 642.226562 410.183594 641.6875 410.078125 C 641.148438 409.96875 640.625 409.8125 640.117188 409.601562 C 639.613281 409.390625 639.128906 409.132812 638.671875 408.828125 C 638.214844 408.523438 637.792969 408.175781 637.40625 407.785156 C 637.019531 407.398438 636.671875 406.976562 636.367188 406.519531 C 636.0625 406.0625 635.804688 405.578125 635.59375 405.074219 C 635.382812 404.566406 635.222656 404.042969 635.117188 403.503906 C 635.011719 402.964844 634.957031 402.417969 634.957031 401.871094 C 634.957031 401.320312 635.011719 400.777344 635.117188 400.238281 C 635.222656 399.699219 635.382812 399.175781 635.59375 398.667969 C 635.804688 398.160156 636.0625 397.679688 636.367188 397.222656 C 636.671875 396.765625 637.019531 396.34375 637.40625 395.953125 C 637.792969 395.566406 638.214844 395.21875 638.671875 394.914062 C 639.128906 394.609375 639.613281 394.351562 640.117188 394.140625 C 640.625 393.929688 641.148438 393.769531 641.6875 393.664062 C 642.226562 393.558594 642.769531 393.503906 643.320312 393.503906 L 705.289062 393.503906 C 705.835938 393.503906 706.382812 393.558594 706.917969 393.664062 C 707.457031 393.769531 707.980469 393.929688 708.488281 394.140625 C 708.996094 394.351562 709.476562 394.609375 709.933594 394.914062 C 710.390625 395.21875 710.8125 395.566406 711.203125 395.953125 C 711.589844 396.34375 711.9375 396.765625 712.242188 397.222656 C 712.546875 397.679688 712.804688 398.160156 713.015625 398.667969 C 713.222656 399.175781 713.382812 399.699219 713.488281 400.238281 C 713.597656 400.777344 713.652344 401.320312 713.652344 401.871094 C 713.652344 402.417969 713.597656 402.964844 713.488281 403.503906 C 713.382812 404.042969 713.222656 404.566406 713.015625 405.074219 C 712.804688 405.578125 712.546875 406.0625 712.242188 406.519531 C 711.9375 406.976562 711.589844 407.398438 711.203125 407.785156 C 710.8125 408.175781 710.390625 408.523438 709.933594 408.828125 C 709.476562 409.132812 708.996094 409.390625 708.488281 409.601562 C 707.980469 409.8125 707.457031 409.96875 706.917969 410.078125 C 706.382812 410.183594 705.835938 410.238281 705.289062 410.238281 Z M 754.449219 373.171875 L 643.320312 373.171875 C 642.769531 373.171875 642.226562 373.117188 641.6875 373.011719 C 641.148438 372.902344 640.625 372.746094 640.117188 372.535156 C 639.613281 372.324219 639.128906 372.066406 638.671875 371.761719 C 638.214844 371.457031 637.792969 371.109375 637.40625 370.71875 C 637.019531 370.332031 636.671875 369.910156 636.367188 369.453125 C 636.0625 368.996094 635.804688 368.511719 635.59375 368.003906 C 635.382812 367.5 635.222656 366.976562 635.117188 366.4375 C 635.011719 365.898438 634.957031 365.351562 634.957031 364.804688 C 634.957031 364.253906 635.011719 363.710938 635.117188 363.171875 C 635.222656 362.632812 635.382812 362.109375 635.59375 361.601562 C 635.804688 361.09375 636.0625 360.613281 636.367188 360.15625 C 636.671875 359.699219 637.019531 359.277344 637.40625 358.886719 C 637.792969 358.5 638.214844 358.152344 638.671875 357.847656 C 639.128906 357.542969 639.613281 357.285156 640.117188 357.074219 C 640.625 356.863281 641.148438 356.703125 641.6875 356.597656 C 642.226562 356.488281 642.769531 356.4375 643.320312 356.4375 L 754.449219 356.4375 C 754.996094 356.4375 755.539062 356.488281 756.078125 356.597656 C 756.617188 356.703125 757.140625 356.863281 757.648438 357.074219 C 758.15625 357.285156 758.636719 357.542969 759.09375 357.847656 C 759.550781 358.152344 759.972656 358.5 760.359375 358.886719 C 760.75 359.277344 761.097656 359.699219 761.402344 360.15625 C 761.707031 360.613281 761.964844 361.09375 762.171875 361.601562 C 762.382812 362.109375 762.542969 362.632812 762.648438 363.171875 C 762.757812 363.710938 762.808594 364.253906 762.808594 364.804688 C 762.808594 365.351562 762.757812 365.898438 762.648438 366.4375 C 762.542969 366.976562 762.382812 367.5 762.171875 368.003906 C 761.964844 368.511719 761.707031 368.996094 761.402344 369.453125 C 761.097656 369.910156 760.75 370.332031 760.359375 370.71875 C 759.972656 371.109375 759.550781 371.457031 759.09375 371.761719 C 758.636719 372.066406 758.15625 372.324219 757.648438 372.535156 C 757.140625 372.746094 756.617188 372.902344 756.078125 373.011719 C 755.539062 373.117188 754.996094 373.171875 754.449219 373.171875 Z M 634.957031 306.792969 C 634.957031 306.242188 635.011719 305.699219 635.117188 305.160156 C 635.222656 304.621094 635.382812 304.097656 635.59375 303.589844 C 635.804688 303.082031 636.0625 302.597656 636.367188 302.144531 C 636.671875 301.6875 637.019531 301.261719 637.40625 300.875 C 637.792969 300.484375 638.214844 300.140625 638.671875 299.835938 C 639.128906 299.527344 639.613281 299.269531 640.117188 299.0625 C 640.625 298.851562 641.148438 298.691406 641.6875 298.585938 C 642.226562 298.476562 642.769531 298.425781 643.320312 298.425781 L 705.289062 298.425781 C 705.835938 298.425781 706.378906 298.476562 706.917969 298.585938 C 707.457031 298.691406 707.980469 298.851562 708.488281 299.0625 C 708.996094 299.269531 709.476562 299.527344 709.933594 299.835938 C 710.390625 300.140625 710.8125 300.484375 711.203125 300.875 C 711.589844 301.261719 711.9375 301.6875 712.242188 302.144531 C 712.546875 302.597656 712.804688 303.082031 713.015625 303.589844 C 713.222656 304.097656 713.382812 304.621094 713.488281 305.160156 C 713.597656 305.699219 713.652344 306.242188 713.652344 306.792969 C 713.652344 307.339844 713.597656 307.886719 713.488281 308.421875 C 713.382812 308.960938 713.222656 309.484375 713.015625 309.992188 C 712.804688 310.5 712.546875 310.984375 712.242188 311.441406 C 711.9375 311.898438 711.589844 312.320312 711.203125 312.707031 C 710.8125 313.097656 710.390625 313.441406 709.933594 313.75 C 709.476562 314.054688 708.996094 314.3125 708.488281 314.523438 C 707.980469 314.730469 707.457031 314.890625 706.917969 314.996094 C 706.378906 315.105469 705.835938 315.160156 705.289062 315.160156 L 643.320312 315.160156 C 642.769531 315.160156 642.226562 315.105469 641.6875 314.996094 C 641.148438 314.890625 640.625 314.730469 640.117188 314.523438 C 639.613281 314.3125 639.128906 314.054688 638.671875 313.75 C 638.214844 313.441406 637.792969 313.097656 637.40625 312.707031 C 637.019531 312.320312 636.671875 311.898438 636.367188 311.441406 C 636.0625 310.984375 635.804688 310.5 635.59375 309.992188 C 635.382812 309.484375 635.222656 308.960938 635.117188 308.421875 C 635.011719 307.886719 634.957031 307.339844 634.957031 306.792969 Z M 754.449219 278.09375 L 643.320312 278.09375 C 642.769531 278.09375 642.226562 278.039062 641.6875 277.929688 C 641.148438 277.824219 640.625 277.664062 640.117188 277.453125 C 639.613281 277.246094 639.128906 276.988281 638.671875 276.683594 C 638.214844 276.375 637.792969 276.03125 637.40625 275.640625 C 637.019531 275.253906 636.671875 274.828125 636.367188 274.375 C 636.0625 273.917969 635.804688 273.433594 635.59375 272.925781 C 635.382812 272.417969 635.222656 271.894531 635.117188 271.355469 C 635.011719 270.816406 634.957031 270.273438 634.957031 269.726562 C 634.957031 269.175781 635.011719 268.632812 635.117188 268.09375 C 635.222656 267.554688 635.382812 267.03125 635.59375 266.523438 C 635.804688 266.015625 636.0625 265.53125 636.367188 265.074219 C 636.671875 264.621094 637.019531 264.195312 637.40625 263.808594 C 637.792969 263.417969 638.214844 263.074219 638.671875 262.765625 C 639.128906 262.460938 639.613281 262.203125 640.117188 261.996094 C 640.625 261.785156 641.148438 261.625 641.6875 261.519531 C 642.226562 261.410156 642.769531 261.359375 643.320312 261.359375 L 754.449219 261.359375 C 754.996094 261.359375 755.539062 261.410156 756.078125 261.519531 C 756.617188 261.625 757.140625 261.785156 757.648438 261.996094 C 758.15625 262.203125 758.636719 262.460938 759.09375 262.765625 C 759.550781 263.074219 759.972656 263.417969 760.359375 263.808594 C 760.75 264.195312 761.097656 264.621094 761.402344 265.074219 C 761.707031 265.53125 761.964844 266.015625 762.171875 266.523438 C 762.382812 267.03125 762.542969 267.554688 762.648438 268.09375 C 762.757812 268.632812 762.808594 269.175781 762.808594 269.726562 C 762.808594 270.273438 762.757812 270.816406 762.648438 271.355469 C 762.542969 271.894531 762.382812 272.417969 762.171875 272.925781 C 761.964844 273.433594 761.707031 273.917969 761.402344 274.375 C 761.097656 274.828125 760.75 275.253906 760.359375 275.640625 C 759.972656 276.03125 759.550781 276.375 759.09375 276.683594 C 758.636719 276.988281 758.15625 277.246094 757.648438 277.453125 C 757.140625 277.664062 756.617188 277.824219 756.078125 277.929688 C 755.539062 278.039062 754.996094 278.09375 754.449219 278.09375 Z M 754.449219 278.09375 " fill-opacity="1" fill-rule="nonzero"/><path fill="#329f83" d="M 599.511719 573.496094 C 599.511719 574.066406 599.480469 574.632812 599.421875 575.203125 C 599.363281 575.769531 599.28125 576.332031 599.167969 576.890625 C 599.054688 577.449219 598.914062 578 598.746094 578.546875 C 598.582031 579.089844 598.386719 579.625 598.167969 580.152344 C 597.949219 580.679688 597.703125 581.191406 597.433594 581.695312 C 597.164062 582.195312 596.867188 582.683594 596.550781 583.15625 C 596.234375 583.628906 595.894531 584.085938 595.53125 584.527344 C 595.167969 584.964844 594.785156 585.386719 594.378906 585.789062 C 593.976562 586.191406 593.554688 586.570312 593.113281 586.933594 C 592.671875 587.292969 592.214844 587.628906 591.738281 587.945312 C 591.265625 588.261719 590.773438 588.554688 590.273438 588.820312 C 589.769531 589.089844 589.253906 589.332031 588.726562 589.546875 C 588.199219 589.765625 587.664062 589.953125 587.117188 590.117188 C 586.574219 590.285156 586.019531 590.421875 585.460938 590.53125 C 584.902344 590.640625 584.339844 590.722656 583.773438 590.777344 C 583.203125 590.832031 582.636719 590.859375 582.066406 590.855469 C 581.496094 590.855469 580.929688 590.828125 580.359375 590.769531 C 579.792969 590.710938 579.230469 590.628906 578.671875 590.515625 C 578.113281 590.402344 577.5625 590.265625 577.019531 590.097656 C 576.472656 589.929688 575.9375 589.738281 575.410156 589.519531 C 574.886719 589.300781 574.371094 589.054688 573.871094 588.785156 C 573.367188 588.515625 572.878906 588.222656 572.40625 587.90625 C 571.933594 587.585938 571.476562 587.246094 571.039062 586.886719 C 570.597656 586.523438 570.175781 586.140625 569.773438 585.734375 C 569.371094 585.332031 568.992188 584.910156 568.628906 584.46875 C 568.269531 584.027344 567.929688 583.570312 567.613281 583.09375 C 567.296875 582.621094 567.007812 582.132812 566.738281 581.628906 C 566.472656 581.125 566.226562 580.609375 566.011719 580.082031 C 565.792969 579.554688 565.601562 579.019531 565.4375 578.472656 C 565.273438 577.929688 565.136719 577.375 565.023438 576.816406 C 564.914062 576.257812 564.832031 575.695312 564.777344 575.128906 C 564.722656 574.558594 564.695312 573.992188 564.695312 573.421875 C 564.695312 572.851562 564.722656 572.28125 564.78125 571.714844 C 564.835938 571.148438 564.921875 570.585938 565.03125 570.027344 C 565.144531 569.464844 565.28125 568.914062 565.449219 568.367188 C 565.613281 567.824219 565.808594 567.289062 566.023438 566.761719 C 566.242188 566.234375 566.488281 565.71875 566.757812 565.21875 C 567.027344 564.714844 567.316406 564.226562 567.636719 563.753906 C 567.953125 563.28125 568.292969 562.824219 568.652344 562.382812 C 569.015625 561.941406 569.398438 561.519531 569.800781 561.117188 C 570.203125 560.714844 570.625 560.332031 571.066406 559.96875 C 571.507812 559.609375 571.964844 559.269531 572.4375 558.953125 C 572.910156 558.636719 573.398438 558.34375 573.902344 558.074219 C 574.40625 557.808594 574.917969 557.5625 575.445312 557.347656 C 575.972656 557.128906 576.507812 556.9375 577.054688 556.769531 C 577.597656 556.605469 578.152344 556.46875 578.710938 556.355469 C 579.269531 556.246094 579.832031 556.160156 580.398438 556.105469 C 580.964844 556.050781 581.535156 556.023438 582.101562 556.023438 C 582.675781 556.023438 583.246094 556.050781 583.8125 556.105469 C 584.382812 556.164062 584.945312 556.25 585.503906 556.359375 C 586.066406 556.472656 586.617188 556.613281 587.164062 556.777344 C 587.710938 556.945312 588.25 557.136719 588.777344 557.355469 C 589.304688 557.574219 589.820312 557.820312 590.324219 558.089844 C 590.824219 558.359375 591.316406 558.65625 591.789062 558.972656 C 592.261719 559.292969 592.722656 559.632812 593.164062 559.996094 C 593.601562 560.359375 594.027344 560.742188 594.429688 561.148438 C 594.832031 561.550781 595.214844 561.976562 595.574219 562.417969 C 595.9375 562.859375 596.277344 563.320312 596.59375 563.796875 C 596.910156 564.269531 597.203125 564.761719 597.46875 565.265625 C 597.738281 565.769531 597.980469 566.285156 598.199219 566.816406 C 598.417969 567.34375 598.609375 567.882812 598.773438 568.429688 C 598.9375 568.976562 599.074219 569.53125 599.183594 570.089844 C 599.292969 570.652344 599.378906 571.214844 599.433594 571.785156 C 599.488281 572.355469 599.511719 572.925781 599.511719 573.496094 Z M 599.511719 573.496094 " fill-opacity="1" fill-rule="nonzero"/><path fill="#329f83" d="M 599.511719 478.417969 C 599.511719 478.988281 599.484375 479.554688 599.429688 480.125 C 599.371094 480.691406 599.289062 481.253906 599.175781 481.8125 C 599.066406 482.375 598.929688 482.925781 598.761719 483.472656 C 598.597656 484.019531 598.40625 484.554688 598.1875 485.082031 C 597.96875 485.609375 597.726562 486.125 597.457031 486.625 C 597.1875 487.128906 596.894531 487.617188 596.578125 488.09375 C 596.261719 488.566406 595.921875 489.023438 595.558594 489.464844 C 595.199219 489.90625 594.816406 490.328125 594.414062 490.730469 C 594.011719 491.136719 593.589844 491.519531 593.148438 491.878906 C 592.707031 492.242188 592.25 492.582031 591.773438 492.898438 C 591.300781 493.214844 590.8125 493.507812 590.308594 493.777344 C 589.808594 494.046875 589.292969 494.289062 588.765625 494.507812 C 588.238281 494.726562 587.703125 494.917969 587.15625 495.082031 C 586.609375 495.25 586.058594 495.386719 585.5 495.5 C 584.941406 495.609375 584.378906 495.695312 583.808594 495.75 C 583.242188 495.804688 582.671875 495.832031 582.101562 495.832031 C 581.535156 495.832031 580.964844 495.804688 580.398438 495.75 C 579.828125 495.695312 579.265625 495.609375 578.707031 495.5 C 578.148438 495.386719 577.59375 495.25 577.050781 495.082031 C 576.503906 494.917969 575.96875 494.726562 575.441406 494.507812 C 574.914062 494.289062 574.398438 494.046875 573.898438 493.777344 C 573.394531 493.507812 572.90625 493.214844 572.433594 492.898438 C 571.957031 492.582031 571.5 492.242188 571.058594 491.878906 C 570.617188 491.519531 570.195312 491.136719 569.792969 490.730469 C 569.390625 490.328125 569.007812 489.90625 568.644531 489.464844 C 568.285156 489.023438 567.945312 488.566406 567.628906 488.09375 C 567.3125 487.617188 567.019531 487.128906 566.75 486.625 C 566.480469 486.125 566.238281 485.609375 566.019531 485.082031 C 565.800781 484.554688 565.609375 484.019531 565.445312 483.472656 C 565.277344 482.925781 565.140625 482.375 565.027344 481.8125 C 564.917969 481.253906 564.835938 480.691406 564.777344 480.125 C 564.722656 479.554688 564.695312 478.988281 564.695312 478.417969 C 564.695312 477.847656 564.722656 477.277344 564.777344 476.707031 C 564.835938 476.140625 564.917969 475.578125 565.027344 475.019531 C 565.140625 474.457031 565.277344 473.90625 565.445312 473.359375 C 565.609375 472.8125 565.800781 472.277344 566.019531 471.75 C 566.238281 471.222656 566.480469 470.707031 566.75 470.207031 C 567.019531 469.703125 567.3125 469.214844 567.628906 468.738281 C 567.945312 468.265625 568.285156 467.808594 568.644531 467.367188 C 569.007812 466.925781 569.390625 466.503906 569.792969 466.101562 C 570.195312 465.695312 570.617188 465.3125 571.058594 464.953125 C 571.5 464.589844 571.957031 464.25 572.429688 463.933594 C 572.90625 463.617188 573.394531 463.324219 573.898438 463.054688 C 574.398438 462.785156 574.914062 462.542969 575.441406 462.324219 C 575.96875 462.105469 576.503906 461.914062 577.050781 461.75 C 577.59375 461.582031 578.148438 461.445312 578.707031 461.332031 C 579.265625 461.222656 579.828125 461.136719 580.398438 461.082031 C 580.964844 461.027344 581.535156 461 582.101562 461 C 582.671875 461 583.242188 461.027344 583.808594 461.082031 C 584.375 461.140625 584.941406 461.222656 585.5 461.335938 C 586.058594 461.445312 586.609375 461.585938 587.15625 461.75 C 587.699219 461.917969 588.238281 462.109375 588.761719 462.328125 C 589.289062 462.546875 589.804688 462.789062 590.308594 463.058594 C 590.808594 463.328125 591.296875 463.621094 591.773438 463.9375 C 592.246094 464.253906 592.703125 464.59375 593.144531 464.957031 C 593.585938 465.316406 594.007812 465.699219 594.410156 466.105469 C 594.8125 466.507812 595.195312 466.929688 595.554688 467.371094 C 595.917969 467.8125 596.257812 468.269531 596.574219 468.742188 C 596.890625 469.21875 597.183594 469.707031 597.453125 470.207031 C 597.722656 470.710938 597.964844 471.226562 598.183594 471.753906 C 598.402344 472.28125 598.59375 472.816406 598.757812 473.363281 C 598.925781 473.90625 599.0625 474.460938 599.175781 475.019531 C 599.285156 475.578125 599.371094 476.140625 599.425781 476.710938 C 599.484375 477.277344 599.511719 477.847656 599.511719 478.417969 Z M 599.511719 478.417969 " fill-opacity="1" fill-rule="nonzero"/><path fill="#329f83" d="M 599.511719 383.335938 C 599.511719 383.90625 599.484375 384.476562 599.429688 385.042969 C 599.371094 385.613281 599.289062 386.175781 599.175781 386.734375 C 599.066406 387.292969 598.929688 387.847656 598.761719 388.394531 C 598.597656 388.9375 598.40625 389.476562 598.1875 390.003906 C 597.96875 390.53125 597.726562 391.042969 597.457031 391.546875 C 597.1875 392.050781 596.894531 392.539062 596.578125 393.015625 C 596.261719 393.488281 595.921875 393.945312 595.558594 394.386719 C 595.199219 394.828125 594.816406 395.25 594.414062 395.652344 C 594.011719 396.054688 593.589844 396.4375 593.148438 396.800781 C 592.707031 397.164062 592.25 397.503906 591.773438 397.820312 C 591.300781 398.136719 590.8125 398.429688 590.308594 398.699219 C 589.808594 398.96875 589.292969 399.210938 588.765625 399.429688 C 588.238281 399.648438 587.703125 399.839844 587.15625 400.003906 C 586.609375 400.171875 586.058594 400.308594 585.5 400.421875 C 584.941406 400.53125 584.378906 400.613281 583.808594 400.671875 C 583.242188 400.726562 582.671875 400.753906 582.101562 400.753906 C 581.535156 400.753906 580.964844 400.726562 580.398438 400.671875 C 579.828125 400.613281 579.265625 400.53125 578.707031 400.421875 C 578.148438 400.308594 577.59375 400.171875 577.050781 400.003906 C 576.503906 399.839844 575.96875 399.648438 575.441406 399.429688 C 574.914062 399.210938 574.398438 398.96875 573.898438 398.699219 C 573.394531 398.429688 572.90625 398.136719 572.433594 397.820312 C 571.957031 397.503906 571.5 397.164062 571.058594 396.800781 C 570.617188 396.4375 570.195312 396.054688 569.792969 395.652344 C 569.390625 395.25 569.007812 394.828125 568.644531 394.386719 C 568.285156 393.945312 567.945312 393.488281 567.628906 393.015625 C 567.3125 392.539062 567.019531 392.050781 566.75 391.546875 C 566.480469 391.042969 566.238281 390.53125 566.019531 390.003906 C 565.800781 389.476562 565.609375 388.9375 565.445312 388.394531 C 565.277344 387.847656 565.140625 387.292969 565.027344 386.734375 C 564.917969 386.175781 564.835938 385.613281 564.777344 385.042969 C 564.722656 384.476562 564.695312 383.90625 564.695312 383.335938 C 564.695312 382.765625 564.722656 382.199219 564.777344 381.628906 C 564.835938 381.0625 564.917969 380.5 565.027344 379.9375 C 565.140625 379.378906 565.277344 378.828125 565.445312 378.28125 C 565.609375 377.734375 565.800781 377.199219 566.019531 376.671875 C 566.238281 376.144531 566.480469 375.628906 566.75 375.125 C 567.019531 374.625 567.3125 374.132812 567.628906 373.660156 C 567.945312 373.1875 568.285156 372.726562 568.644531 372.289062 C 569.007812 371.847656 569.390625 371.425781 569.792969 371.019531 C 570.195312 370.617188 570.617188 370.234375 571.058594 369.871094 C 571.5 369.511719 571.957031 369.171875 572.429688 368.855469 C 572.90625 368.539062 573.394531 368.246094 573.898438 367.976562 C 574.398438 367.707031 574.914062 367.464844 575.441406 367.246094 C 575.96875 367.027344 576.503906 366.835938 577.050781 366.667969 C 577.59375 366.503906 578.148438 366.367188 578.707031 366.253906 C 579.265625 366.144531 579.828125 366.058594 580.398438 366.003906 C 580.964844 365.949219 581.535156 365.917969 582.101562 365.917969 C 582.671875 365.917969 583.242188 365.949219 583.808594 366.003906 C 584.375 366.0625 584.941406 366.144531 585.5 366.257812 C 586.058594 366.367188 586.609375 366.507812 587.15625 366.671875 C 587.699219 366.839844 588.238281 367.03125 588.761719 367.25 C 589.289062 367.46875 589.804688 367.710938 590.308594 367.980469 C 590.808594 368.25 591.296875 368.542969 591.773438 368.859375 C 592.246094 369.175781 592.703125 369.515625 593.144531 369.878906 C 593.585938 370.238281 594.007812 370.621094 594.410156 371.023438 C 594.8125 371.429688 595.195312 371.851562 595.554688 372.292969 C 595.917969 372.730469 596.257812 373.191406 596.574219 373.664062 C 596.890625 374.136719 597.183594 374.625 597.453125 375.128906 C 597.722656 375.632812 597.964844 376.148438 598.183594 376.671875 C 598.402344 377.199219 598.59375 377.738281 598.757812 378.28125 C 598.925781 378.828125 599.0625 379.378906 599.175781 379.941406 C 599.285156 380.5 599.371094 381.0625 599.425781 381.628906 C 599.484375 382.199219 599.511719 382.765625 599.511719 383.335938 Z M 599.511719 383.335938 " fill-opacity="1" fill-rule="nonzero"/><path fill="#329f83" d="M 599.511719 288.273438 C 599.511719 288.84375 599.484375 289.410156 599.429688 289.980469 C 599.371094 290.546875 599.289062 291.109375 599.175781 291.667969 C 599.066406 292.230469 598.929688 292.78125 598.761719 293.328125 C 598.597656 293.875 598.40625 294.410156 598.1875 294.9375 C 597.96875 295.464844 597.726562 295.980469 597.457031 296.484375 C 597.1875 296.984375 596.894531 297.472656 596.578125 297.949219 C 596.261719 298.421875 595.921875 298.878906 595.558594 299.320312 C 595.199219 299.761719 594.816406 300.183594 594.414062 300.589844 C 594.011719 300.992188 593.589844 301.375 593.148438 301.734375 C 592.707031 302.097656 592.25 302.4375 591.773438 302.753906 C 591.300781 303.070312 590.8125 303.363281 590.308594 303.632812 C 589.808594 303.902344 589.292969 304.144531 588.765625 304.363281 C 588.238281 304.582031 587.703125 304.773438 587.15625 304.941406 C 586.609375 305.105469 586.058594 305.242188 585.5 305.355469 C 584.941406 305.464844 584.378906 305.550781 583.808594 305.605469 C 583.242188 305.660156 582.671875 305.691406 582.101562 305.691406 C 581.535156 305.691406 580.964844 305.660156 580.398438 305.605469 C 579.828125 305.550781 579.265625 305.464844 578.707031 305.355469 C 578.148438 305.242188 577.59375 305.105469 577.050781 304.941406 C 576.503906 304.773438 575.96875 304.582031 575.441406 304.363281 C 574.914062 304.144531 574.398438 303.902344 573.898438 303.632812 C 573.394531 303.363281 572.90625 303.070312 572.433594 302.753906 C 571.957031 302.4375 571.5 302.097656 571.058594 301.734375 C 570.617188 301.375 570.195312 300.992188 569.792969 300.589844 C 569.390625 300.183594 569.007812 299.761719 568.644531 299.320312 C 568.285156 298.878906 567.945312 298.421875 567.628906 297.949219 C 567.3125 297.472656 567.019531 296.984375 566.75 296.484375 C 566.480469 295.980469 566.238281 295.464844 566.019531 294.9375 C 565.800781 294.410156 565.609375 293.875 565.445312 293.328125 C 565.277344 292.78125 565.140625 292.230469 565.027344 291.667969 C 564.917969 291.109375 564.835938 290.546875 564.777344 289.980469 C 564.722656 289.410156 564.695312 288.84375 564.695312 288.273438 C 564.695312 287.703125 564.722656 287.132812 564.777344 286.566406 C 564.835938 285.996094 564.917969 285.433594 565.027344 284.875 C 565.140625 284.3125 565.277344 283.761719 565.445312 283.214844 C 565.609375 282.667969 565.800781 282.132812 566.019531 281.605469 C 566.238281 281.078125 566.480469 280.5625 566.75 280.0625 C 567.019531 279.558594 567.3125 279.070312 567.628906 278.59375 C 567.945312 278.121094 568.285156 277.664062 568.644531 277.222656 C 569.007812 276.78125 569.390625 276.359375 569.792969 275.957031 C 570.195312 275.550781 570.617188 275.167969 571.058594 274.808594 C 571.5 274.445312 571.957031 274.105469 572.429688 273.789062 C 572.90625 273.472656 573.394531 273.179688 573.898438 272.910156 C 574.398438 272.640625 574.914062 272.398438 575.441406 272.179688 C 575.96875 271.960938 576.503906 271.769531 577.050781 271.605469 C 577.59375 271.4375 578.148438 271.300781 578.707031 271.1875 C 579.265625 271.078125 579.828125 270.992188 580.398438 270.9375 C 580.964844 270.882812 581.535156 270.855469 582.101562 270.855469 C 582.671875 270.855469 583.242188 270.882812 583.808594 270.9375 C 584.375 270.996094 584.941406 271.078125 585.5 271.191406 C 586.058594 271.304688 586.609375 271.441406 587.15625 271.605469 C 587.699219 271.773438 588.238281 271.964844 588.761719 272.183594 C 589.289062 272.402344 589.804688 272.644531 590.308594 272.914062 C 590.808594 273.183594 591.296875 273.476562 591.773438 273.792969 C 592.246094 274.109375 592.703125 274.449219 593.144531 274.8125 C 593.585938 275.175781 594.007812 275.554688 594.410156 275.960938 C 594.8125 276.363281 595.195312 276.785156 595.554688 277.226562 C 595.917969 277.667969 596.257812 278.125 596.574219 278.597656 C 596.890625 279.074219 597.183594 279.5625 597.453125 280.0625 C 597.722656 280.566406 597.964844 281.082031 598.183594 281.609375 C 598.402344 282.136719 598.59375 282.671875 598.757812 283.21875 C 598.925781 283.761719 599.0625 284.316406 599.175781 284.875 C 599.285156 285.433594 599.371094 285.996094 599.425781 286.566406 C 599.484375 287.132812 599.511719 287.703125 599.511719 288.273438 Z M 599.511719 288.273438 " fill-opacity="1" fill-rule="nonzero"/><g clip-path="url(#8638981efd)"><path fill="#329f83" d="M 711.964844 139.460938 L 711.964844 212.519531 L 598.855469 212.519531 L 598.855469 139.460938 L 620.933594 139.460938 C 621.484375 139.460938 622.027344 139.40625 622.566406 139.300781 C 623.105469 139.195312 623.628906 139.035156 624.136719 138.824219 C 624.640625 138.613281 625.125 138.355469 625.582031 138.050781 C 626.039062 137.746094 626.460938 137.398438 626.847656 137.011719 C 627.238281 136.621094 627.582031 136.199219 627.886719 135.742188 C 628.191406 135.285156 628.449219 134.804688 628.660156 134.296875 C 628.871094 133.789062 629.03125 133.265625 629.136719 132.726562 C 629.242188 132.1875 629.296875 131.644531 629.296875 131.09375 L 629.296875 104.195312 L 647.027344 104.195312 L 647.027344 162.636719 L 626.675781 162.636719 C 626.128906 162.636719 625.585938 162.691406 625.046875 162.800781 C 624.507812 162.90625 623.984375 163.066406 623.476562 163.277344 C 622.96875 163.484375 622.488281 163.742188 622.03125 164.046875 C 621.574219 164.355469 621.152344 164.699219 620.765625 165.089844 C 620.375 165.476562 620.027344 165.898438 619.722656 166.355469 C 619.417969 166.8125 619.160156 167.296875 618.949219 167.804688 C 618.742188 168.3125 618.582031 168.835938 618.476562 169.375 C 618.367188 169.914062 618.3125 170.457031 618.3125 171.003906 C 618.3125 171.554688 618.367188 172.097656 618.476562 172.636719 C 618.582031 173.175781 618.742188 173.699219 618.949219 174.207031 C 619.160156 174.714844 619.417969 175.199219 619.722656 175.65625 C 620.027344 176.109375 620.375 176.535156 620.765625 176.921875 C 621.152344 177.3125 621.574219 177.65625 622.03125 177.960938 C 622.488281 178.269531 622.96875 178.527344 623.476562 178.734375 C 623.984375 178.945312 624.507812 179.105469 625.046875 179.210938 C 625.585938 179.320312 626.128906 179.371094 626.675781 179.371094 L 684.089844 179.371094 C 684.636719 179.371094 685.179688 179.320312 685.71875 179.210938 C 686.257812 179.105469 686.78125 178.945312 687.289062 178.734375 C 687.796875 178.527344 688.277344 178.269531 688.734375 177.960938 C 689.191406 177.65625 689.613281 177.3125 690 176.921875 C 690.390625 176.535156 690.738281 176.109375 691.042969 175.65625 C 691.347656 175.199219 691.605469 174.714844 691.8125 174.207031 C 692.023438 173.699219 692.183594 173.175781 692.289062 172.636719 C 692.398438 172.097656 692.449219 171.554688 692.449219 171.003906 C 692.449219 170.457031 692.398438 169.914062 692.289062 169.375 C 692.183594 168.835938 692.023438 168.3125 691.8125 167.804688 C 691.605469 167.296875 691.347656 166.8125 691.042969 166.355469 C 690.738281 165.898438 690.390625 165.476562 690 165.089844 C 689.613281 164.699219 689.191406 164.355469 688.734375 164.046875 C 688.277344 163.742188 687.796875 163.484375 687.289062 163.277344 C 686.78125 163.066406 686.257812 162.90625 685.71875 162.800781 C 685.179688 162.691406 684.636719 162.636719 684.089844 162.636719 L 663.753906 162.636719 L 663.753906 104.195312 L 681.480469 104.195312 L 681.480469 131.09375 C 681.480469 131.644531 681.535156 132.1875 681.640625 132.726562 C 681.75 133.265625 681.90625 133.789062 682.117188 134.296875 C 682.328125 134.804688 682.585938 135.285156 682.890625 135.742188 C 683.195312 136.199219 683.542969 136.621094 683.929688 137.011719 C 684.320312 137.398438 684.742188 137.746094 685.199219 138.050781 C 685.65625 138.355469 686.136719 138.613281 686.644531 138.824219 C 687.152344 139.035156 687.675781 139.195312 688.214844 139.300781 C 688.75 139.40625 689.296875 139.460938 689.84375 139.460938 Z M 711.964844 139.460938 " fill-opacity="1" fill-rule="nonzero"/></g><g clip-path="url(#512dae0cf7)"><path fill="#329f83" d="M 668.046875 686.242188 L 476.71875 686.242188 C 476.097656 686.242188 475.484375 686.210938 474.867188 686.148438 C 474.253906 686.089844 473.640625 685.996094 473.035156 685.875 C 472.429688 685.753906 471.828125 685.601562 471.238281 685.421875 C 470.648438 685.242188 470.066406 685.035156 469.496094 684.796875 C 468.921875 684.558594 468.367188 684.296875 467.820312 684.003906 C 467.273438 683.710938 466.746094 683.394531 466.230469 683.050781 C 465.71875 682.707031 465.222656 682.339844 464.742188 681.945312 C 464.265625 681.554688 463.808594 681.136719 463.371094 680.699219 C 462.933594 680.261719 462.519531 679.804688 462.128906 679.328125 C 461.734375 678.847656 461.367188 678.351562 461.023438 677.839844 C 460.679688 677.324219 460.363281 676.792969 460.070312 676.25 C 459.777344 675.703125 459.515625 675.144531 459.277344 674.574219 C 459.039062 674.003906 458.832031 673.421875 458.652344 672.828125 C 458.472656 672.238281 458.320312 671.636719 458.199219 671.03125 C 458.078125 670.425781 457.988281 669.8125 457.925781 669.199219 C 457.863281 668.582031 457.832031 667.964844 457.832031 667.347656 L 457.832031 171.914062 C 457.832031 171.292969 457.863281 170.675781 457.921875 170.058594 C 457.984375 169.445312 458.074219 168.832031 458.195312 168.226562 C 458.316406 167.617188 458.46875 167.019531 458.648438 166.425781 C 458.828125 165.835938 459.035156 165.253906 459.273438 164.679688 C 459.507812 164.109375 459.773438 163.550781 460.066406 163.003906 C 460.355469 162.457031 460.675781 161.929688 461.019531 161.414062 C 461.363281 160.898438 461.730469 160.402344 462.121094 159.925781 C 462.515625 159.445312 462.929688 158.988281 463.367188 158.550781 C 463.804688 158.113281 464.261719 157.695312 464.738281 157.304688 C 465.21875 156.910156 465.714844 156.542969 466.226562 156.199219 C 466.742188 155.855469 467.269531 155.535156 467.816406 155.242188 C 468.363281 154.953125 468.921875 154.6875 469.492188 154.449219 C 470.0625 154.210938 470.644531 154.003906 471.234375 153.824219 C 471.828125 153.644531 472.425781 153.492188 473.035156 153.371094 C 473.640625 153.25 474.25 153.15625 474.867188 153.097656 C 475.480469 153.035156 476.097656 153.003906 476.71875 153.003906 L 582.132812 153.003906 L 582.132812 188.910156 L 504.761719 188.910156 C 504.210938 188.910156 503.667969 188.964844 503.128906 189.074219 C 502.589844 189.179688 502.066406 189.339844 501.5625 189.546875 C 501.054688 189.757812 500.570312 190.015625 500.113281 190.320312 C 499.660156 190.625 499.234375 190.972656 498.847656 191.363281 C 498.460938 191.75 498.113281 192.171875 497.808594 192.628906 C 497.503906 193.085938 497.246094 193.570312 497.035156 194.078125 C 496.824219 194.585938 496.667969 195.109375 496.558594 195.644531 C 496.453125 196.183594 496.398438 196.730469 496.398438 197.277344 L 496.398438 640.878906 C 496.398438 641.429688 496.453125 641.972656 496.558594 642.511719 C 496.667969 643.050781 496.824219 643.574219 497.035156 644.082031 C 497.246094 644.589844 497.503906 645.070312 497.808594 645.527344 C 498.113281 645.984375 498.460938 646.40625 498.847656 646.796875 C 499.234375 647.183594 499.660156 647.53125 500.113281 647.835938 C 500.570312 648.140625 501.054688 648.398438 501.5625 648.609375 C 502.066406 648.820312 502.589844 648.976562 503.128906 649.085938 C 503.667969 649.191406 504.210938 649.246094 504.761719 649.246094 L 643.933594 649.246094 C 650.359375 662.628906 658.398438 674.960938 668.046875 686.242188 Z M 668.046875 686.242188 " fill-opacity="1" fill-rule="nonzero"/></g><path fill="#329f83" d="M 852.960938 171.914062 L 852.960938 416.414062 C 840.449219 411.996094 827.59375 409.101562 814.394531 407.726562 L 814.394531 197.277344 C 814.394531 196.730469 814.339844 196.183594 814.234375 195.644531 C 814.128906 195.109375 813.96875 194.585938 813.757812 194.078125 C 813.546875 193.570312 813.289062 193.085938 812.984375 192.628906 C 812.679688 192.171875 812.332031 191.75 811.945312 191.363281 C 811.558594 190.972656 811.136719 190.625 810.679688 190.320312 C 810.222656 190.015625 809.738281 189.757812 809.234375 189.546875 C 808.726562 189.339844 808.203125 189.179688 807.664062 189.074219 C 807.125 188.964844 806.582031 188.910156 806.03125 188.910156 L 728.691406 188.910156 L 728.691406 153.003906 L 834.101562 153.003906 C 834.722656 153.003906 835.339844 153.035156 835.953125 153.097656 C 836.566406 153.160156 837.179688 153.253906 837.785156 153.375 C 838.390625 153.496094 838.988281 153.648438 839.578125 153.828125 C 840.171875 154.011719 840.75 154.21875 841.320312 154.457031 C 841.890625 154.695312 842.449219 154.960938 842.992188 155.253906 C 843.539062 155.546875 844.066406 155.863281 844.582031 156.207031 C 845.09375 156.550781 845.589844 156.921875 846.066406 157.3125 C 846.542969 157.707031 847 158.121094 847.4375 158.558594 C 847.875 158.996094 848.289062 159.457031 848.679688 159.933594 C 849.070312 160.410156 849.4375 160.910156 849.78125 161.421875 C 850.125 161.9375 850.441406 162.46875 850.730469 163.011719 C 851.023438 163.558594 851.285156 164.117188 851.523438 164.6875 C 851.757812 165.257812 851.96875 165.839844 852.148438 166.433594 C 852.328125 167.023438 852.476562 167.621094 852.597656 168.230469 C 852.71875 168.835938 852.808594 169.445312 852.871094 170.0625 C 852.929688 170.675781 852.960938 171.292969 852.960938 171.914062 Z M 852.960938 171.914062 " fill-opacity="1" fill-rule="nonzero"/><path fill="#329f83" d="M 796.75 472.796875 C 795.058594 472.796875 793.367188 472.835938 791.675781 472.921875 C 789.984375 473.003906 788.300781 473.128906 786.613281 473.292969 C 784.929688 473.457031 783.25 473.664062 781.578125 473.914062 C 779.902344 474.164062 778.238281 474.453125 776.578125 474.78125 C 774.917969 475.113281 773.265625 475.480469 771.625 475.894531 C 769.984375 476.304688 768.355469 476.753906 766.734375 477.246094 C 765.117188 477.738281 763.507812 478.269531 761.914062 478.839844 C 760.324219 479.410156 758.746094 480.019531 757.179688 480.664062 C 755.617188 481.3125 754.070312 482 752.539062 482.722656 C 751.011719 483.445312 749.5 484.207031 748.007812 485.003906 C 746.515625 485.804688 745.042969 486.636719 743.589844 487.507812 C 742.140625 488.378906 740.710938 489.28125 739.304688 490.222656 C 737.898438 491.164062 736.515625 492.136719 735.15625 493.148438 C 733.796875 494.15625 732.460938 495.195312 731.152344 496.269531 C 729.84375 497.34375 728.5625 498.449219 727.308594 499.585938 C 726.054688 500.722656 724.832031 501.890625 723.632812 503.085938 C 722.4375 504.285156 721.269531 505.507812 720.132812 506.765625 C 718.996094 508.019531 717.894531 509.300781 716.820312 510.609375 C 715.746094 511.917969 714.703125 513.25 713.695312 514.609375 C 712.6875 515.96875 711.714844 517.355469 710.773438 518.761719 C 709.832031 520.167969 708.929688 521.597656 708.058594 523.050781 C 707.1875 524.503906 706.355469 525.976562 705.554688 527.46875 C 704.757812 528.960938 703.996094 530.472656 703.273438 532.003906 C 702.550781 533.535156 701.863281 535.082031 701.21875 536.644531 C 700.570312 538.210938 699.960938 539.789062 699.390625 541.382812 C 698.820312 542.976562 698.289062 544.582031 697.796875 546.203125 C 697.308594 547.824219 696.855469 549.457031 696.445312 551.097656 C 696.03125 552.738281 695.660156 554.390625 695.332031 556.050781 C 695 557.710938 694.710938 559.378906 694.464844 561.054688 C 694.214844 562.730469 694.007812 564.410156 693.84375 566.09375 C 693.675781 567.777344 693.550781 569.464844 693.46875 571.15625 C 693.386719 572.847656 693.34375 574.539062 693.34375 576.234375 C 693.34375 577.925781 693.382812 579.617188 693.46875 581.308594 C 693.550781 583 693.675781 584.6875 693.839844 586.375 C 694.003906 588.058594 694.210938 589.738281 694.460938 591.414062 C 694.710938 593.085938 695 594.753906 695.328125 596.414062 C 695.65625 598.074219 696.027344 599.726562 696.441406 601.371094 C 696.851562 603.011719 697.300781 604.644531 697.792969 606.261719 C 698.285156 607.882812 698.8125 609.492188 699.382812 611.085938 C 699.953125 612.679688 700.5625 614.257812 701.210938 615.824219 C 701.859375 617.386719 702.542969 618.933594 703.265625 620.464844 C 703.988281 621.996094 704.75 623.507812 705.546875 625 C 706.34375 626.492188 707.179688 627.964844 708.050781 629.417969 C 708.917969 630.871094 709.824219 632.300781 710.761719 633.707031 C 711.703125 635.117188 712.675781 636.5 713.683594 637.859375 C 714.695312 639.21875 715.734375 640.554688 716.808594 641.863281 C 717.882812 643.171875 718.984375 644.453125 720.121094 645.707031 C 721.257812 646.960938 722.425781 648.1875 723.621094 649.386719 C 724.816406 650.582031 726.042969 651.75 727.296875 652.886719 C 728.550781 654.023438 729.832031 655.128906 731.140625 656.203125 C 732.445312 657.277344 733.78125 658.320312 735.140625 659.328125 C 736.5 660.335938 737.882812 661.3125 739.289062 662.25 C 740.695312 663.191406 742.125 664.097656 743.574219 664.96875 C 745.027344 665.839844 746.5 666.671875 747.992188 667.472656 C 749.484375 668.269531 750.996094 669.03125 752.523438 669.753906 C 754.054688 670.476562 755.601562 671.164062 757.164062 671.8125 C 758.726562 672.460938 760.304688 673.070312 761.898438 673.640625 C 763.492188 674.210938 765.097656 674.742188 766.71875 675.234375 C 768.335938 675.722656 769.964844 676.175781 771.609375 676.585938 C 773.25 677 774.898438 677.371094 776.558594 677.699219 C 778.21875 678.03125 779.886719 678.320312 781.558594 678.570312 C 783.234375 678.816406 784.914062 679.023438 786.597656 679.191406 C 788.28125 679.355469 789.96875 679.480469 791.65625 679.5625 C 793.347656 679.648438 795.039062 679.6875 796.730469 679.6875 C 798.421875 679.6875 800.113281 679.648438 801.804688 679.566406 C 803.496094 679.480469 805.179688 679.355469 806.867188 679.191406 C 808.550781 679.027344 810.226562 678.816406 811.902344 678.570312 C 813.574219 678.320312 815.242188 678.03125 816.902344 677.703125 C 818.5625 677.371094 820.210938 677 821.855469 676.589844 C 823.496094 676.179688 825.125 675.726562 826.746094 675.234375 C 828.363281 674.746094 829.972656 674.214844 831.5625 673.644531 C 833.15625 673.074219 834.734375 672.464844 836.300781 671.816406 C 837.863281 671.167969 839.410156 670.480469 840.9375 669.757812 C 842.46875 669.035156 843.980469 668.273438 845.472656 667.476562 C 846.964844 666.675781 848.4375 665.84375 849.886719 664.972656 C 851.339844 664.101562 852.769531 663.195312 854.175781 662.257812 C 855.582031 661.316406 856.964844 660.339844 858.324219 659.332031 C 859.683594 658.324219 861.015625 657.285156 862.324219 656.210938 C 863.632812 655.136719 864.914062 654.03125 866.167969 652.894531 C 867.421875 651.757812 868.648438 650.589844 869.84375 649.390625 C 871.039062 648.195312 872.207031 646.96875 873.34375 645.714844 C 874.480469 644.460938 875.585938 643.179688 876.65625 641.871094 C 877.730469 640.5625 878.773438 639.226562 879.78125 637.867188 C 880.789062 636.507812 881.761719 635.125 882.703125 633.714844 C 883.640625 632.308594 884.546875 630.878906 885.417969 629.425781 C 886.289062 627.972656 887.121094 626.5 887.917969 625.007812 C 888.714844 623.515625 889.476562 622.003906 890.199219 620.472656 C 890.925781 618.941406 891.609375 617.394531 892.257812 615.832031 C 892.90625 614.265625 893.515625 612.6875 894.082031 611.09375 C 894.652344 609.5 895.183594 607.890625 895.675781 606.273438 C 896.167969 604.652344 896.617188 603.019531 897.03125 601.378906 C 897.441406 599.738281 897.8125 598.085938 898.140625 596.425781 C 898.472656 594.765625 898.761719 593.097656 899.007812 591.421875 C 899.257812 589.746094 899.464844 588.066406 899.628906 586.382812 C 899.796875 584.699219 899.921875 583.007812 900.003906 581.320312 C 900.085938 579.628906 900.128906 577.9375 900.128906 576.242188 C 900.125 574.550781 900.082031 572.859375 899.996094 571.167969 C 899.914062 569.480469 899.785156 567.792969 899.617188 566.109375 C 899.453125 564.425781 899.242188 562.746094 898.992188 561.070312 C 898.742188 559.398438 898.453125 557.730469 898.121094 556.070312 C 897.789062 554.414062 897.417969 552.761719 897.003906 551.121094 C 896.59375 549.480469 896.140625 547.847656 895.648438 546.230469 C 895.15625 544.609375 894.625 543.003906 894.054688 541.414062 C 893.484375 539.820312 892.875 538.242188 892.226562 536.679688 C 891.578125 535.113281 890.890625 533.570312 890.167969 532.039062 C 889.445312 530.511719 888.683594 529 887.882812 527.507812 C 887.085938 526.015625 886.253906 524.542969 885.382812 523.09375 C 884.511719 521.640625 883.609375 520.210938 882.667969 518.804688 C 881.726562 517.398438 880.753906 516.015625 879.746094 514.65625 C 878.738281 513.296875 877.699219 511.964844 876.625 510.65625 C 875.550781 509.347656 874.445312 508.066406 873.3125 506.8125 C 872.175781 505.558594 871.007812 504.332031 869.8125 503.136719 C 868.617188 501.941406 867.394531 500.773438 866.140625 499.636719 C 864.886719 498.5 863.605469 497.394531 862.300781 496.320312 C 860.992188 495.246094 859.660156 494.207031 858.300781 493.199219 C 856.941406 492.1875 855.5625 491.214844 854.15625 490.273438 C 852.75 489.332031 851.320312 488.425781 849.871094 487.554688 C 848.421875 486.6875 846.949219 485.851562 845.457031 485.050781 C 843.96875 484.253906 842.457031 483.492188 840.929688 482.769531 C 839.398438 482.042969 837.855469 481.355469 836.292969 480.707031 C 834.730469 480.058594 833.152344 479.449219 831.5625 478.878906 C 829.96875 478.304688 828.363281 477.773438 826.746094 477.28125 C 825.128906 476.789062 823.5 476.335938 821.859375 475.925781 C 820.21875 475.511719 818.566406 475.140625 816.910156 474.808594 C 815.25 474.476562 813.585938 474.183594 811.914062 473.933594 C 810.238281 473.683594 808.5625 473.476562 806.878906 473.308594 C 805.195312 473.140625 803.507812 473.011719 801.820312 472.925781 C 800.132812 472.84375 798.441406 472.796875 796.75 472.796875 Z M 863.890625 596.464844 C 863.890625 597.011719 863.835938 597.558594 863.726562 598.09375 C 863.621094 598.632812 863.460938 599.15625 863.253906 599.664062 C 863.042969 600.171875 862.785156 600.65625 862.480469 601.113281 C 862.175781 601.570312 861.828125 601.992188 861.441406 602.378906 C 861.050781 602.769531 860.628906 603.113281 860.171875 603.421875 C 859.714844 603.726562 859.234375 603.984375 858.726562 604.195312 C 858.21875 604.402344 857.695312 604.5625 857.15625 604.667969 C 856.621094 604.777344 856.074219 604.832031 855.527344 604.832031 L 825.28125 604.832031 L 825.28125 635.148438 C 825.28125 635.695312 825.226562 636.242188 825.121094 636.78125 C 825.011719 637.320312 824.855469 637.84375 824.644531 638.347656 C 824.433594 638.855469 824.175781 639.339844 823.871094 639.796875 C 823.566406 640.253906 823.21875 640.675781 822.832031 641.0625 C 822.441406 641.453125 822.019531 641.800781 821.5625 642.105469 C 821.105469 642.410156 820.625 642.667969 820.117188 642.878906 C 819.609375 643.089844 819.085938 643.246094 818.550781 643.355469 C 818.011719 643.460938 817.46875 643.515625 816.917969 643.515625 L 776.582031 643.515625 C 776.03125 643.515625 775.488281 643.460938 774.949219 643.355469 C 774.410156 643.246094 773.886719 643.089844 773.378906 642.878906 C 772.875 642.667969 772.390625 642.410156 771.933594 642.105469 C 771.476562 641.800781 771.054688 641.453125 770.667969 641.0625 C 770.28125 640.675781 769.933594 640.253906 769.628906 639.796875 C 769.324219 639.339844 769.066406 638.855469 768.855469 638.347656 C 768.644531 637.84375 768.484375 637.320312 768.378906 636.78125 C 768.273438 636.242188 768.21875 635.695312 768.21875 635.148438 L 768.21875 604.832031 L 737.917969 604.832031 C 737.367188 604.832031 736.824219 604.777344 736.285156 604.667969 C 735.746094 604.5625 735.222656 604.402344 734.714844 604.195312 C 734.210938 603.984375 733.726562 603.726562 733.269531 603.421875 C 732.8125 603.113281 732.390625 602.769531 732.003906 602.378906 C 731.613281 601.992188 731.269531 601.570312 730.964844 601.113281 C 730.660156 600.65625 730.402344 600.171875 730.191406 599.664062 C 729.980469 599.15625 729.820312 598.632812 729.714844 598.09375 C 729.609375 597.558594 729.554688 597.011719 729.554688 596.464844 L 729.554688 556.023438 C 729.554688 555.472656 729.609375 554.929688 729.714844 554.390625 C 729.820312 553.851562 729.980469 553.328125 730.191406 552.820312 C 730.402344 552.3125 730.660156 551.832031 730.964844 551.375 C 731.269531 550.917969 731.613281 550.492188 732.003906 550.105469 C 732.390625 549.71875 732.8125 549.371094 733.269531 549.066406 C 733.726562 548.757812 734.210938 548.5 734.714844 548.292969 C 735.222656 548.082031 735.746094 547.921875 736.285156 547.816406 C 736.824219 547.707031 737.367188 547.65625 737.917969 547.65625 L 768.21875 547.65625 L 768.21875 517.378906 C 768.21875 516.828125 768.273438 516.285156 768.378906 515.746094 C 768.484375 515.207031 768.644531 514.683594 768.855469 514.175781 C 769.066406 513.667969 769.324219 513.1875 769.628906 512.730469 C 769.933594 512.273438 770.28125 511.851562 770.667969 511.464844 C 771.054688 511.074219 771.476562 510.726562 771.933594 510.421875 C 772.390625 510.117188 772.875 509.859375 773.378906 509.648438 C 773.886719 509.4375 774.410156 509.28125 774.949219 509.171875 C 775.488281 509.066406 776.03125 509.011719 776.582031 509.011719 L 816.917969 509.011719 C 817.46875 509.011719 818.011719 509.066406 818.550781 509.171875 C 819.085938 509.28125 819.609375 509.4375 820.117188 509.648438 C 820.625 509.859375 821.105469 510.117188 821.5625 510.421875 C 822.019531 510.726562 822.441406 511.074219 822.832031 511.464844 C 823.21875 511.851562 823.566406 512.273438 823.871094 512.730469 C 824.175781 513.1875 824.433594 513.667969 824.644531 514.175781 C 824.855469 514.683594 825.011719 515.207031 825.121094 515.746094 C 825.226562 516.285156 825.28125 516.828125 825.28125 517.378906 L 825.28125 547.65625 L 855.527344 547.65625 C 856.074219 547.65625 856.617188 547.707031 857.15625 547.816406 C 857.695312 547.921875 858.21875 548.082031 858.726562 548.292969 C 859.234375 548.5 859.714844 548.757812 860.171875 549.066406 C 860.628906 549.371094 861.050781 549.71875 861.441406 550.105469 C 861.828125 550.492188 862.175781 550.917969 862.480469 551.375 C 862.785156 551.828125 863.042969 552.3125 863.253906 552.820312 C 863.460938 553.328125 863.621094 553.851562 863.726562 554.390625 C 863.835938 554.929688 863.890625 555.472656 863.890625 556.023438 Z M 863.890625 596.464844 " fill-opacity="1" fill-rule="nonzero"/><path fill="#329f83" d="M 847.164062 564.390625 L 847.164062 588.097656 L 816.917969 588.097656 C 816.367188 588.097656 815.824219 588.148438 815.285156 588.257812 C 814.746094 588.363281 814.226562 588.523438 813.71875 588.734375 C 813.210938 588.941406 812.726562 589.199219 812.273438 589.507812 C 811.816406 589.8125 811.394531 590.160156 811.003906 590.546875 C 810.617188 590.933594 810.269531 591.359375 809.964844 591.816406 C 809.660156 592.273438 809.402344 592.753906 809.191406 593.261719 C 808.980469 593.769531 808.824219 594.292969 808.714844 594.832031 C 808.609375 595.371094 808.554688 595.914062 808.554688 596.464844 L 808.554688 626.78125 L 784.945312 626.78125 L 784.945312 596.464844 C 784.945312 595.914062 784.890625 595.371094 784.78125 594.832031 C 784.675781 594.292969 784.515625 593.769531 784.308594 593.261719 C 784.097656 592.753906 783.839844 592.269531 783.535156 591.816406 C 783.230469 591.359375 782.882812 590.933594 782.496094 590.546875 C 782.105469 590.160156 781.683594 589.8125 781.226562 589.507812 C 780.769531 589.199219 780.289062 588.941406 779.78125 588.734375 C 779.273438 588.523438 778.75 588.363281 778.210938 588.257812 C 777.675781 588.148438 777.128906 588.097656 776.582031 588.097656 L 746.28125 588.097656 L 746.28125 564.390625 L 776.582031 564.390625 C 777.128906 564.390625 777.675781 564.335938 778.210938 564.226562 C 778.75 564.121094 779.273438 563.960938 779.78125 563.753906 C 780.289062 563.542969 780.769531 563.285156 781.226562 562.980469 C 781.683594 562.671875 782.105469 562.328125 782.496094 561.9375 C 782.882812 561.550781 783.230469 561.128906 783.535156 560.671875 C 783.839844 560.214844 784.097656 559.730469 784.308594 559.222656 C 784.515625 558.714844 784.675781 558.191406 784.78125 557.652344 C 784.890625 557.117188 784.945312 556.570312 784.945312 556.023438 L 784.945312 525.746094 L 808.554688 525.746094 L 808.554688 556.023438 C 808.554688 556.570312 808.609375 557.117188 808.714844 557.652344 C 808.824219 558.191406 808.980469 558.714844 809.191406 559.222656 C 809.402344 559.730469 809.660156 560.214844 809.964844 560.671875 C 810.269531 561.128906 810.617188 561.550781 811.003906 561.9375 C 811.394531 562.328125 811.816406 562.671875 812.273438 562.980469 C 812.726562 563.285156 813.210938 563.542969 813.71875 563.753906 C 814.226562 563.960938 814.746094 564.121094 815.285156 564.226562 C 815.824219 564.335938 816.367188 564.390625 816.917969 564.390625 Z M 847.164062 564.390625 " fill-opacity="1" fill-rule="nonzero"/></svg>