<svg xmlns="http://www.w3.org/2000/svg" xmlns:xlink="http://www.w3.org/1999/xlink" width="1920" zoomAndPan="magnify" viewBox="0 0 1440 809.999993" height="1080" preserveAspectRatio="xMidYMid meet" version="1.0"><defs><clipPath id="0526c09398"><path d="M 733 65.351562 L 824 65.351562 L 824 156 L 733 156 Z M 733 65.351562 " clip-rule="nonzero"/></clipPath><clipPath id="0185193772"><path d="M 462 65.351562 L 553 65.351562 L 553 156 L 462 156 Z M 462 65.351562 " clip-rule="nonzero"/></clipPath><clipPath id="fb7e7cc826"><path d="M 470 619.109375 L 796.597656 619.109375 L 796.597656 744.851562 L 470 744.851562 Z M 470 619.109375 " clip-rule="nonzero"/></clipPath><clipPath id="7359b02393"><path d="M 682 174 L 875.527344 174 L 875.527344 627 L 682 627 Z M 682 174 " clip-rule="nonzero"/></clipPath></defs><rect x="-144" width="1728" fill="#ffffff" y="-80.999999" height="971.999992" fill-opacity="1"/><rect x="-144" width="1728" fill="#ffffff" y="-80.999999" height="971.999992" fill-opacity="1"/><g clip-path="url(#0526c09398)"><path fill="#329f83" d="M 823.417969 110.417969 C 823.417969 85.53125 803.230469 65.351562 778.332031 65.351562 C 753.429688 65.351562 733.246094 85.53125 733.246094 110.417969 C 733.246094 135.308594 753.429688 155.484375 778.332031 155.484375 C 803.230469 155.484375 823.417969 135.308594 823.417969 110.417969 " fill-opacity="1" fill-rule="nonzero"/></g><g clip-path="url(#0185193772)"><path fill="#329f83" d="M 507.265625 65.351562 C 482.367188 65.351562 462.179688 85.53125 462.179688 110.417969 C 462.179688 135.308594 482.367188 155.484375 507.265625 155.484375 C 532.167969 155.484375 552.351562 135.308594 552.351562 110.417969 C 552.351562 85.53125 532.167969 65.351562 507.265625 65.351562 " fill-opacity="1" fill-rule="nonzero"/></g><path fill="#329f83" d="M 737.230469 632.128906 L 795.355469 574.03125 C 797.148438 572.242188 797.148438 569.335938 795.355469 567.542969 L 737.230469 509.445312 C 734.34375 506.554688 729.394531 508.605469 729.394531 512.691406 L 729.394531 544.613281 C 729.394531 547.636719 726.945312 550.089844 723.921875 550.089844 L 475.90625 550.089844 C 472.882812 550.089844 470.429688 552.539062 470.429688 555.5625 L 470.429688 586.382812 C 470.429688 589.40625 472.882812 591.855469 475.90625 591.855469 L 723.921875 591.855469 C 726.945312 591.855469 729.394531 594.308594 729.394531 597.332031 L 729.394531 628.882812 C 729.394531 632.96875 734.34375 635.019531 737.230469 632.128906 " fill-opacity="1" fill-rule="nonzero"/><g clip-path="url(#fb7e7cc826)"><path fill="#329f83" d="M 791 661.105469 L 542.984375 661.105469 C 539.960938 661.105469 537.507812 658.652344 537.507812 655.628906 L 537.507812 624.078125 C 537.507812 619.992188 532.5625 617.941406 529.671875 620.832031 L 471.550781 678.929688 C 469.757812 680.71875 469.757812 683.628906 471.550781 685.417969 L 529.671875 743.511719 C 532.5625 746.402344 537.507812 744.355469 537.507812 740.273438 L 537.507812 708.347656 C 537.507812 705.324219 539.960938 702.875 542.984375 702.875 L 791 702.875 C 794.023438 702.875 796.476562 700.421875 796.476562 697.398438 L 796.476562 666.578125 C 796.476562 663.554688 794.023438 661.105469 791 661.105469 " fill-opacity="1" fill-rule="nonzero"/></g><path fill="#329f83" d="M 486.273438 610.996094 L 475.90625 610.996094 C 462.328125 610.996094 451.28125 599.957031 451.28125 586.382812 L 451.28125 555.5625 C 451.28125 541.988281 462.328125 530.949219 475.90625 530.949219 L 489.125 530.949219 L 489.125 394.933594 C 493.691406 396.121094 498.480469 396.753906 503.417969 396.753906 C 508.355469 396.753906 513.144531 396.121094 517.714844 394.933594 L 517.714844 530.949219 L 573.242188 530.949219 C 573.378906 475.855469 573.792969 406.910156 574.894531 352.238281 C 576.183594 288.617188 565.046875 255.242188 559.023438 238.488281 C 558.058594 235.808594 560.050781 232.976562 562.902344 232.976562 C 564.785156 232.976562 566.429688 234.246094 566.902344 236.066406 L 596.851562 351.539062 C 599.101562 360.214844 607.238281 366.046875 616.183594 365.390625 C 626.109375 364.660156 633.398438 356.363281 633.398438 346.914062 C 633.398438 345.4375 633.222656 343.9375 632.847656 342.433594 L 600.660156 212.210938 C 595.21875 190.191406 575.445312 174.71875 552.753906 174.71875 L 454.082031 174.71875 C 431.390625 174.71875 411.621094 190.191406 406.179688 212.210938 L 373.992188 342.433594 C 371.230469 353.589844 379.179688 364.546875 390.65625 365.390625 C 391.117188 365.421875 391.574219 365.441406 392.027344 365.441406 C 400.425781 365.441406 407.851562 359.773438 409.988281 351.539062 L 439.9375 236.066406 C 440.410156 234.246094 442.054688 232.976562 443.933594 232.976562 C 446.785156 232.976562 448.777344 235.808594 447.816406 238.488281 C 441.789062 255.242188 430.65625 288.617188 431.941406 352.238281 C 433.589844 433.738281 433.695312 547.007812 433.640625 598.726562 C 433.628906 614.054688 446.050781 626.480469 461.382812 626.480469 C 469.042969 626.480469 475.976562 623.375 480.996094 618.355469 C 483.132812 616.222656 484.921875 613.734375 486.273438 610.996094 " fill-opacity="1" fill-rule="nonzero"/><g clip-path="url(#7359b02393)"><path fill="#329f83" d="M 833.703125 174.71875 L 723.507812 174.71875 C 700.644531 174.71875 682.113281 193.246094 682.113281 216.097656 L 682.113281 353.613281 C 682.113281 362.5625 689.375 369.824219 698.332031 369.824219 C 702.808594 369.824219 706.867188 368.007812 709.800781 365.074219 C 712.738281 362.140625 714.550781 358.085938 714.550781 353.613281 L 714.550781 238.472656 C 714.550781 235.4375 717.015625 232.976562 720.050781 232.976562 C 721.566406 232.976562 722.941406 233.59375 723.9375 234.585938 C 724.933594 235.582031 725.550781 236.957031 725.550781 238.472656 L 725.550781 490.519531 C 728.183594 489.511719 731.035156 488.953125 734.019531 488.953125 C 740.332031 488.953125 746.28125 491.425781 750.769531 495.910156 L 769.535156 514.667969 L 769.535156 374.769531 C 769.535156 372.039062 771.75 369.824219 774.480469 369.824219 L 782.730469 369.824219 C 784.09375 369.824219 785.335938 370.378906 786.226562 371.277344 C 787.121094 372.164062 787.679688 373.40625 787.679688 374.769531 L 787.679688 532.804688 L 808.894531 554.007812 C 813.378906 558.488281 815.847656 564.449219 815.847656 570.789062 C 815.847656 577.125 813.378906 583.082031 808.894531 587.566406 L 788.035156 608.414062 C 789.882812 618.683594 798.863281 626.480469 809.671875 626.480469 C 815.742188 626.480469 821.238281 624.019531 825.21875 620.042969 C 829.203125 616.0625 831.664062 610.5625 831.664062 604.5 L 831.664062 238.472656 C 831.664062 235.4375 834.128906 232.976562 837.164062 232.976562 C 838.679688 232.976562 840.054688 233.59375 841.050781 234.585938 C 842.042969 235.582031 842.664062 236.957031 842.664062 238.472656 L 842.664062 353.613281 C 842.664062 362.5625 849.925781 369.824219 858.878906 369.824219 C 863.355469 369.824219 867.414062 368.007812 870.351562 365.074219 C 873.285156 362.140625 875.101562 358.085938 875.101562 353.613281 L 875.101562 216.097656 C 875.101562 193.246094 856.566406 174.71875 833.703125 174.71875 " fill-opacity="1" fill-rule="nonzero"/></g></svg>