<svg xmlns="http://www.w3.org/2000/svg" xmlns:xlink="http://www.w3.org/1999/xlink" width="1920" zoomAndPan="magnify" viewBox="0 0 1440 809.999993" height="1080" preserveAspectRatio="xMidYMid meet" version="1.0"><defs><clipPath id="402daa5002"><path d="M 479.515625 137.972656 L 898.765625 137.972656 L 898.765625 770.972656 L 479.515625 770.972656 Z M 479.515625 137.972656 " clip-rule="nonzero"/></clipPath></defs><rect x="-144" width="1728" fill="#ffffff" y="-80.999999" height="971.999992" fill-opacity="1"/><rect x="-144" width="1728" fill="#ffffff" y="-80.999999" height="971.999992" fill-opacity="1"/><path fill="#329f83" d="M 874.691406 222.15625 L 768.617188 222.15625 L 768.617188 248.777344 L 845.589844 248.777344 C 848.886719 248.777344 851.554688 251.445312 851.554688 254.746094 L 851.554688 714.277344 C 851.554688 717.574219 848.886719 720.246094 845.589844 720.246094 L 532.710938 720.246094 C 529.414062 720.246094 526.746094 717.574219 526.746094 714.277344 L 526.746094 254.746094 C 526.746094 251.445312 529.414062 248.777344 532.710938 248.777344 L 609.6875 248.777344 L 609.6875 222.15625 L 503.613281 222.15625 L 503.613281 746.863281 L 874.691406 746.863281 L 874.691406 222.15625 " fill-opacity="1" fill-rule="nonzero"/><g clip-path="url(#402daa5002)"><path fill="#329f83" d="M 491.679688 216.191406 C 491.679688 212.890625 494.351562 210.222656 497.648438 210.222656 L 609.6875 210.222656 L 609.6875 199.835938 C 609.6875 196.535156 612.355469 193.867188 615.652344 193.867188 L 643.558594 193.867188 C 644.566406 169.582031 664.632812 150.144531 689.152344 150.144531 C 713.671875 150.144531 733.734375 169.582031 734.746094 193.867188 L 762.648438 193.867188 C 765.945312 193.867188 768.617188 196.535156 768.617188 199.835938 L 768.617188 210.222656 L 880.65625 210.222656 C 883.953125 210.222656 886.621094 212.890625 886.621094 216.191406 L 886.621094 752.832031 C 886.621094 756.128906 883.953125 758.796875 880.65625 758.796875 L 497.648438 758.796875 C 494.351562 758.796875 491.679688 756.128906 491.679688 752.832031 Z M 497.644531 770.972656 L 880.660156 770.972656 C 890.65625 770.972656 898.789062 762.832031 898.789062 752.832031 L 898.789062 216.195312 C 898.789062 206.1875 890.65625 198.050781 880.660156 198.050781 L 780.695312 198.050781 C 779.796875 188.878906 772.046875 181.695312 762.652344 181.695312 L 745.234375 181.695312 C 738.960938 156.417969 716.230469 137.972656 689.152344 137.972656 C 662.074219 137.972656 639.34375 156.417969 633.070312 181.695312 L 615.652344 181.695312 C 606.257812 181.695312 598.507812 188.878906 597.609375 198.050781 L 497.644531 198.050781 C 487.648438 198.050781 479.515625 206.1875 479.515625 216.195312 L 479.515625 752.832031 C 479.515625 762.832031 487.648438 770.972656 497.644531 770.972656 " fill-opacity="1" fill-rule="nonzero"/></g><path fill="#329f83" d="M 710.730469 486.148438 C 714.027344 486.148438 716.695312 488.816406 716.695312 492.113281 C 716.695312 495.414062 714.027344 498.082031 710.730469 498.082031 L 577.667969 498.082031 C 574.375 498.082031 571.703125 495.414062 571.703125 492.113281 C 571.703125 488.816406 574.375 486.148438 577.667969 486.148438 Z M 643.527344 348.773438 L 670.824219 348.773438 L 670.824219 321.46875 C 670.824219 311.355469 679.042969 303.132812 689.152344 303.132812 C 699.257812 303.132812 707.480469 311.355469 707.480469 321.46875 L 707.480469 348.773438 L 734.777344 348.773438 C 744.886719 348.773438 753.105469 356.996094 753.105469 367.105469 C 753.105469 377.21875 744.886719 385.4375 734.777344 385.4375 L 707.480469 385.4375 L 707.480469 412.746094 C 707.480469 422.859375 699.257812 431.078125 689.152344 431.078125 C 679.042969 431.078125 670.824219 422.859375 670.824219 412.746094 L 670.824219 385.4375 L 643.527344 385.4375 C 633.417969 385.4375 625.195312 377.21875 625.195312 367.105469 C 625.195312 356.996094 633.417969 348.773438 643.527344 348.773438 Z M 764.617188 492.34375 L 791.386719 456.824219 C 793.375 454.191406 797.117188 453.664062 799.742188 455.648438 C 802.375 457.636719 802.898438 461.378906 800.917969 464.003906 L 769.6875 505.441406 C 768.597656 506.890625 766.914062 507.761719 765.117188 507.8125 C 765.046875 507.820312 764.988281 507.820312 764.921875 507.820312 C 763.1875 507.820312 761.53125 507.0625 760.394531 505.738281 L 745.621094 488.53125 C 743.476562 486.03125 743.761719 482.269531 746.261719 480.117188 C 748.753906 477.980469 752.519531 478.257812 754.671875 480.757812 Z M 800.917969 517.84375 L 769.6875 559.28125 C 768.597656 560.726562 766.914062 561.601562 765.117188 561.652344 C 765.046875 561.65625 764.988281 561.65625 764.921875 561.65625 C 763.1875 561.65625 761.53125 560.902344 760.394531 559.578125 L 745.621094 542.371094 C 743.476562 539.867188 743.761719 536.105469 746.261719 533.953125 C 748.753906 531.824219 752.519531 532.097656 754.671875 534.597656 L 764.617188 546.183594 L 791.386719 510.664062 C 793.375 508.042969 797.117188 507.5 799.742188 509.488281 C 802.375 511.472656 802.898438 515.214844 800.917969 517.84375 Z M 800.917969 571.683594 L 769.6875 613.117188 C 768.597656 614.566406 766.914062 615.441406 765.117188 615.492188 C 765.046875 615.496094 764.988281 615.496094 764.921875 615.496094 C 763.1875 615.496094 761.53125 614.742188 760.394531 613.417969 L 745.621094 596.207031 C 743.476562 593.707031 743.761719 589.945312 746.261719 587.792969 C 748.753906 585.664062 752.519531 585.929688 754.671875 588.4375 L 764.617188 600.019531 L 791.386719 564.5 C 793.375 561.867188 797.117188 561.339844 799.742188 563.328125 C 802.375 565.3125 802.898438 569.054688 800.917969 571.683594 Z M 800.917969 625.523438 L 769.6875 666.957031 C 768.597656 668.40625 766.914062 669.277344 765.117188 669.328125 C 765.046875 669.335938 764.988281 669.335938 764.921875 669.335938 C 763.1875 669.335938 761.53125 668.578125 760.394531 667.253906 L 745.621094 650.046875 C 743.476562 647.546875 743.761719 643.78125 746.261719 641.632812 C 748.753906 639.496094 752.519531 639.769531 754.671875 642.273438 L 764.617188 653.859375 L 791.386719 618.339844 C 793.375 615.71875 797.117188 615.179688 799.742188 617.164062 C 802.375 619.152344 802.898438 622.890625 800.917969 625.523438 Z M 710.730469 551.921875 L 577.667969 551.921875 C 574.375 551.921875 571.703125 549.253906 571.703125 545.953125 C 571.703125 542.65625 574.375 539.988281 577.667969 539.988281 L 710.730469 539.988281 C 714.027344 539.988281 716.695312 542.65625 716.695312 545.953125 C 716.695312 549.253906 714.027344 551.921875 710.730469 551.921875 Z M 710.730469 605.761719 L 577.667969 605.761719 C 574.375 605.761719 571.703125 603.089844 571.703125 599.792969 C 571.703125 596.496094 574.375 593.824219 577.667969 593.824219 L 710.730469 593.824219 C 714.027344 593.824219 716.695312 596.496094 716.695312 599.792969 C 716.695312 603.089844 714.027344 605.761719 710.730469 605.761719 Z M 710.730469 659.601562 L 577.667969 659.601562 C 574.375 659.601562 571.703125 656.929688 571.703125 653.632812 C 571.703125 650.332031 574.375 647.664062 577.667969 647.664062 L 710.730469 647.664062 C 714.027344 647.664062 716.695312 650.332031 716.695312 653.632812 C 716.695312 656.929688 714.027344 659.601562 710.730469 659.601562 Z M 609.6875 260.710938 L 538.679688 260.710938 L 538.679688 708.308594 L 839.625 708.308594 L 839.625 260.710938 L 768.617188 260.710938 L 768.617188 271.097656 C 768.617188 274.394531 765.945312 277.0625 762.648438 277.0625 L 615.652344 277.0625 C 612.355469 277.0625 609.6875 274.394531 609.6875 271.097656 L 609.6875 260.710938 " fill-opacity="1" fill-rule="nonzero"/><path fill="#329f83" d="M 756.683594 205.800781 L 728.410156 205.800781 C 726.722656 205.800781 725.113281 205.082031 723.980469 203.832031 C 722.847656 202.570312 722.304688 200.898438 722.476562 199.214844 L 722.660156 197.730469 C 722.746094 197.09375 722.855469 196.453125 722.855469 195.789062 C 722.855469 177.199219 707.734375 162.078125 689.152344 162.078125 C 670.566406 162.078125 655.449219 177.199219 655.449219 195.789062 C 655.449219 196.453125 655.554688 197.09375 655.640625 197.730469 L 655.828125 199.214844 C 655.996094 200.898438 655.457031 202.570312 654.324219 203.832031 C 653.1875 205.082031 651.582031 205.800781 649.890625 205.800781 L 621.617188 205.800781 L 621.617188 265.128906 L 756.683594 265.128906 L 756.683594 205.800781 " fill-opacity="1" fill-rule="nonzero"/><path fill="#329f83" d="M 643.527344 373.507812 L 676.789062 373.507812 C 680.085938 373.507812 682.753906 376.175781 682.753906 379.472656 L 682.753906 412.746094 C 682.753906 416.273438 685.625 419.148438 689.152344 419.148438 C 692.675781 419.148438 695.546875 416.273438 695.546875 412.746094 L 695.546875 379.472656 C 695.546875 376.175781 698.214844 373.507812 701.511719 373.507812 L 734.777344 373.507812 C 738.304688 373.507812 741.175781 370.632812 741.175781 367.105469 C 741.175781 363.582031 738.304688 360.710938 734.777344 360.710938 L 701.511719 360.710938 C 698.214844 360.710938 695.546875 358.039062 695.546875 354.742188 L 695.546875 321.46875 C 695.546875 317.941406 692.675781 315.070312 689.152344 315.070312 C 685.625 315.070312 682.753906 317.941406 682.753906 321.46875 L 682.753906 354.742188 C 682.753906 358.039062 680.085938 360.710938 676.789062 360.710938 L 643.527344 360.710938 C 640 360.710938 637.128906 363.582031 637.128906 367.105469 C 637.128906 370.632812 640 373.507812 643.527344 373.507812 " fill-opacity="1" fill-rule="nonzero"/></svg>